{"glyphs":{"0":{"ha":772,"x_min":58,"x_max":704,"o":"m 381 998 q 607 895 526 998 q 704 490 704 773 q 606 85 704 208 q 381 -17 526 -17 q 147 95 236 -17 q 58 492 58 206 q 156 897 58 773 q 381 998 237 998 m 381 840 q 319 818 347 840 q 277 739 292 796 q 258 490 258 665 q 275 250 258 315 q 320 163 293 184 q 381 141 347 141 q 443 163 416 141 q 485 242 470 185 q 505 490 505 315 q 487 731 505 665 q 443 818 469 796 q 381 840 416 840 z "},"1":{"ha":772,"x_min":110,"x_max":547,"o":"m 547 0 l 356 0 l 356 718 q 110 574 252 621 l 110 747 q 272 839 184 771 q 392 998 359 907 l 547 998 l 547 0 z "},"2":{"ha":772,"x_min":35,"x_max":703,"o":"m 703 177 l 703 0 l 35 0 q 100 190 45 100 q 314 429 154 280 q 472 591 443 549 q 511 708 511 650 q 477 806 511 772 q 382 840 443 840 q 288 804 323 840 q 247 685 252 768 l 57 704 q 163 930 74 861 q 387 998 253 998 q 618 919 534 998 q 703 722 703 840 q 679 594 703 654 q 602 467 654 533 q 477 340 568 422 q 363 230 387 257 q 324 177 339 203 l 703 177 z "},"3":{"ha":772,"x_min":52,"x_max":713,"o":"m 52 264 l 237 286 q 284 178 245 216 q 378 141 323 141 q 477 186 437 141 q 517 307 517 231 q 479 420 517 378 q 385 463 440 463 q 297 448 348 463 l 318 604 q 436 637 395 602 q 477 732 477 673 q 447 812 477 782 q 368 842 417 842 q 284 808 319 842 q 242 709 250 774 l 66 739 q 122 883 85 829 q 225 967 159 937 q 373 998 291 998 q 598 909 513 998 q 668 743 668 836 q 525 534 668 612 q 662 452 610 516 q 713 298 713 389 q 617 75 713 168 q 379 -17 522 -17 q 155 61 244 -17 q 52 264 66 138 z "},"4":{"ha":772,"x_min":26,"x_max":741,"o":"m 433 0 l 433 200 l 26 200 l 26 367 l 457 998 l 617 998 l 617 368 l 741 368 l 741 200 l 617 200 l 617 0 l 433 0 m 433 368 l 433 707 l 204 368 l 433 368 z "},"5":{"ha":772,"x_min":62,"x_max":730,"o":"m 62 256 l 252 275 q 300 173 260 211 q 392 136 340 136 q 493 184 452 136 q 534 330 534 233 q 493 468 534 422 q 387 513 452 513 q 239 441 304 513 l 85 463 l 182 981 l 686 981 l 686 802 l 327 802 l 297 633 q 427 665 361 665 q 642 573 554 665 q 730 334 730 481 q 659 115 730 211 q 390 -17 562 -17 q 165 57 252 -17 q 62 256 79 131 z "},"6":{"ha":772,"x_min":59,"x_max":723,"o":"m 705 751 l 520 730 q 485 814 513 787 q 411 842 456 842 q 309 787 351 842 q 256 562 267 733 q 433 646 328 646 q 638 555 553 646 q 723 320 723 464 q 633 75 723 168 q 404 -17 544 -17 q 156 100 253 -17 q 59 484 59 217 q 160 878 59 757 q 422 998 261 998 q 610 935 536 998 q 705 751 684 871 m 273 335 q 315 192 273 242 q 413 141 358 141 q 501 182 466 141 q 536 318 536 224 q 498 460 536 415 q 404 505 460 505 q 311 462 349 505 q 273 335 273 419 z "},"7":{"ha":772,"x_min":59,"x_max":711,"o":"m 59 804 l 59 981 l 711 981 l 711 842 q 547 614 630 763 q 419 299 463 466 q 376 0 376 132 l 193 0 q 278 420 197 206 q 492 804 358 635 l 59 804 z "},"8":{"ha":772,"x_min":56,"x_max":710,"o":"m 222 536 q 115 622 149 568 q 81 742 81 677 q 159 926 81 853 q 380 998 237 998 q 600 926 522 998 q 678 742 678 853 q 642 619 678 673 q 541 536 606 565 q 667 439 624 503 q 710 292 710 376 q 622 68 710 155 q 389 -18 534 -18 q 163 54 253 -18 q 56 284 56 138 q 96 432 56 365 q 222 536 136 500 m 262 728 q 294 640 262 671 q 380 608 326 608 q 467 640 434 608 q 499 729 499 672 q 467 815 499 783 q 382 847 435 847 q 294 814 327 847 q 262 728 262 782 m 244 302 q 284 180 244 224 q 385 136 325 136 q 483 178 444 136 q 522 300 522 220 q 482 413 522 370 q 382 455 443 455 q 278 407 313 455 q 244 302 244 359 z "},"9":{"ha":772,"x_min":44,"x_max":708,"o":"m 63 230 l 248 250 q 283 167 254 194 q 358 140 311 140 q 458 194 417 140 q 511 419 500 248 q 332 336 439 336 q 129 426 214 336 q 44 662 44 517 q 134 906 44 813 q 363 998 224 998 q 611 881 514 998 q 708 496 708 764 q 607 103 708 224 q 344 -18 506 -18 q 155 44 227 -18 q 63 230 83 106 m 494 646 q 452 789 494 739 q 354 840 410 840 q 266 799 301 840 q 231 662 231 757 q 269 520 231 566 q 364 475 307 475 q 457 519 419 475 q 494 646 494 562 z "}," ":{"ha":386,"x_min":0,"x_max":0,"o":""},"!":{"ha":463,"x_min":125,"x_max":331,"o":"m 174 256 l 125 761 l 125 994 l 331 994 l 331 761 l 282 256 l 174 256 m 133 0 l 133 191 l 323 191 l 323 0 l 133 0 z "},"\"":{"ha":659,"x_min":76,"x_max":589,"o":"m 112 641 l 76 826 l 76 994 l 283 994 l 283 826 l 252 641 l 112 641 m 418 641 l 382 826 l 382 994 l 589 994 l 589 826 l 558 641 l 418 641 z "},"#":{"ha":772,"x_min":12,"x_max":756,"o":"m 104 248 l 12 248 l 12 397 l 134 397 l 175 597 l 12 597 l 12 747 l 205 747 l 259 1011 l 411 1011 l 357 747 l 507 747 l 559 1011 l 717 1011 l 663 747 l 756 747 l 756 597 l 632 597 l 591 397 l 756 397 l 756 248 l 561 248 l 507 -17 l 356 -17 l 408 248 l 258 248 l 204 -17 l 51 -17 l 104 248 m 328 597 l 288 397 l 438 397 l 477 597 l 328 597 z "},"$":{"ha":772,"x_min":47,"x_max":711,"o":"m 332 147 l 332 431 q 137 546 199 469 q 75 733 75 623 q 145 920 75 844 q 332 1007 215 996 l 332 1074 l 430 1074 l 430 1007 q 602 933 538 994 q 683 771 665 873 l 511 749 q 430 857 496 829 l 430 592 q 652 478 593 548 q 711 298 711 408 q 636 91 711 175 q 430 -12 562 7 l 430 -139 l 332 -139 l 332 -16 q 141 72 214 -1 q 47 279 68 145 l 224 298 q 265 204 235 243 q 332 147 295 165 m 332 859 q 268 813 292 846 q 244 741 244 781 q 266 674 244 705 q 332 625 288 644 l 332 859 m 430 138 q 513 185 481 147 q 545 273 545 222 q 518 352 545 319 q 430 402 491 385 l 430 138 z "},"%":{"ha":1235,"x_min":60,"x_max":1170,"o":"m 60 749 q 119 947 60 882 q 278 1011 178 1011 q 440 947 382 1011 q 499 749 499 883 q 440 551 499 615 q 281 486 382 486 q 119 550 178 486 q 60 749 60 614 m 209 750 q 231 620 209 653 q 278 595 248 595 q 326 620 309 595 q 347 750 347 653 q 326 880 347 847 q 278 905 309 905 q 231 880 248 905 q 209 750 209 847 m 423 -38 l 282 -38 l 812 1011 l 949 1011 l 423 -38 m 731 223 q 790 421 731 357 q 950 486 848 486 q 1111 421 1053 486 q 1170 223 1170 357 q 1111 24 1170 89 q 952 -40 1053 -40 q 790 24 848 -40 q 731 223 731 89 m 880 224 q 902 94 880 127 q 949 69 919 69 q 996 94 979 69 q 1018 224 1018 127 q 996 354 1018 321 q 949 378 979 378 q 902 354 918 378 q 880 224 880 321 z "},"&":{"ha":1003,"x_min":61,"x_max":981,"o":"m 981 121 l 865 -26 q 703 88 781 16 q 574 8 642 34 q 413 -18 507 -18 q 134 87 227 -18 q 61 273 61 168 q 118 445 61 368 q 288 577 175 521 q 212 692 237 637 q 186 795 186 747 q 258 948 186 886 q 464 1011 330 1011 q 665 945 593 1011 q 738 785 738 880 q 702 670 738 724 q 557 547 666 616 l 695 365 q 737 478 720 408 l 909 439 q 865 305 884 347 q 824 234 846 262 q 906 169 856 204 q 981 121 957 133 m 462 662 l 513 701 q 570 789 570 745 q 543 851 570 825 q 469 877 515 877 q 397 854 423 877 q 372 802 372 831 q 415 716 372 766 l 462 662 m 387 455 q 289 375 321 422 q 256 279 256 328 q 297 179 256 218 q 405 140 337 140 q 491 157 450 140 q 581 216 532 175 l 387 455 z "},"'":{"ha":330,"x_min":62,"x_max":270,"o":"m 98 641 l 62 826 l 62 994 l 270 994 l 270 826 l 239 641 l 98 641 z "},"(":{"ha":463,"x_min":73,"x_max":418,"o":"m 416 -292 l 285 -292 q 127 33 181 -136 q 73 360 73 202 q 140 731 73 556 q 288 1011 198 883 l 418 1011 q 290 662 325 806 q 255 356 255 517 q 276 128 255 245 q 332 -94 296 12 q 416 -292 356 -163 z "},")":{"ha":463,"x_min":45,"x_max":391,"o":"m 47 -292 q 126 -107 103 -172 q 169 41 149 -43 q 198 201 189 125 q 208 356 208 277 q 173 662 208 517 q 45 1011 138 806 l 175 1011 q 334 702 277 865 q 391 370 391 538 q 346 66 391 229 q 178 -292 295 -115 l 47 -292 z "},"*":{"ha":541,"x_min":19,"x_max":511,"o":"m 166 537 l 64 616 q 165 722 113 671 q 192 747 186 742 q 95 770 175 750 q 19 791 37 784 l 59 910 q 218 831 148 874 q 201 1011 201 941 l 322 1011 q 304 829 322 962 q 362 856 317 835 q 475 903 423 884 l 511 781 q 336 747 435 764 l 418 656 q 456 610 442 628 l 353 542 l 261 693 q 166 537 220 620 z "},"+":{"ha":811,"x_min":58,"x_max":753,"o":"m 318 143 l 318 401 l 58 401 l 58 580 l 318 580 l 318 838 l 492 838 l 492 580 l 753 580 l 753 401 l 492 401 l 492 143 l 318 143 z "},",":{"ha":386,"x_min":79,"x_max":286,"o":"m 95 191 l 286 191 l 286 54 q 271 -76 286 -28 q 217 -162 257 -124 q 117 -222 178 -200 l 79 -143 q 161 -91 137 -124 q 187 0 186 -58 l 95 0 l 95 191 z "},"-":{"ha":463,"x_min":44,"x_max":418,"o":"m 44 265 l 44 456 l 418 456 l 418 265 l 44 265 z "},".":{"ha":386,"x_min":100,"x_max":290,"o":"m 100 0 l 100 191 l 290 191 l 290 0 l 100 0 z "},"/":{"ha":386,"x_min":-2,"x_max":387,"o":"m -2 -17 l 244 1011 l 387 1011 l 138 -17 l -2 -17 z "},":":{"ha":463,"x_min":136,"x_max":327,"o":"m 136 530 l 136 720 l 327 720 l 327 530 l 136 530 m 136 0 l 136 191 l 327 191 l 327 0 l 136 0 z "},";":{"ha":463,"x_min":115,"x_max":321,"o":"m 131 530 l 131 720 l 321 720 l 321 530 l 131 530 m 131 191 l 321 191 l 321 54 q 307 -76 321 -28 q 253 -162 293 -124 q 153 -222 214 -200 l 115 -143 q 197 -90 173 -124 q 223 0 222 -56 l 131 0 l 131 191 z "},"<":{"ha":811,"x_min":64,"x_max":746,"o":"m 746 113 l 64 410 l 64 574 l 746 869 l 746 675 l 271 494 l 746 305 l 746 113 z "},"=":{"ha":811,"x_min":58,"x_max":753,"o":"m 58 553 l 58 728 l 753 728 l 753 553 l 58 553 m 58 252 l 58 428 l 753 428 l 753 252 l 58 252 z "},">":{"ha":811,"x_min":64,"x_max":747,"o":"m 64 113 l 64 304 l 541 492 l 64 677 l 64 867 l 747 572 l 747 410 l 64 113 z "},"?":{"ha":848,"x_min":72,"x_max":785,"o":"m 509 256 l 336 256 q 336 302 336 294 q 363 440 336 386 q 475 562 391 494 q 574 651 558 630 q 600 724 600 684 q 555 820 600 780 q 435 859 511 859 q 314 818 363 859 q 247 692 265 777 l 72 713 q 175 920 79 835 q 427 1004 271 1004 q 688 919 591 1004 q 785 719 785 833 q 750 600 785 656 q 597 446 714 543 q 523 366 537 396 q 509 256 508 335 m 336 0 l 336 191 l 527 191 l 527 0 l 336 0 z "},"@":{"ha":1354,"x_min":41,"x_max":1350,"o":"m 1205 13 l 1350 13 q 1141 -203 1282 -125 q 749 -292 981 -292 q 363 -217 526 -292 q 121 6 200 -141 q 41 328 41 154 q 132 683 41 518 q 378 929 222 847 q 736 1012 535 1012 q 1040 945 907 1012 q 1243 756 1173 879 q 1314 489 1314 634 q 1207 176 1314 316 q 865 0 1074 0 q 780 20 808 0 q 742 77 751 39 q 557 0 662 0 q 371 78 445 0 q 296 284 296 155 q 386 575 296 444 q 664 735 494 735 q 842 643 785 735 l 859 718 l 1038 718 l 936 232 q 926 172 926 186 q 934 147 926 155 q 953 138 942 138 q 1037 178 985 138 q 1149 316 1106 229 q 1192 496 1192 403 q 1071 775 1192 663 q 734 887 950 887 q 422 812 550 887 q 230 601 294 737 q 165 318 165 465 q 237 58 165 175 q 440 -114 309 -60 q 739 -168 570 -168 q 1017 -122 901 -168 q 1205 13 1134 -77 m 472 292 q 507 165 472 205 q 593 124 542 124 q 666 143 632 124 q 717 186 692 157 q 779 307 753 227 q 805 454 805 386 q 769 572 805 531 q 680 613 734 613 q 572 568 621 613 q 497 439 522 523 q 472 292 472 356 z "},"A":{"ha":1003,"x_min":0,"x_max":998,"o":"m 998 0 l 779 0 l 692 226 l 295 226 l 213 0 l 0 0 l 387 994 l 600 994 l 998 0 m 628 393 l 491 762 l 357 393 l 628 393 z "},"B":{"ha":1003,"x_min":102,"x_max":935,"o":"m 102 994 l 499 994 q 675 984 617 994 q 779 943 733 975 q 855 860 825 912 q 886 744 886 808 q 848 616 886 674 q 746 528 810 557 q 886 438 837 502 q 935 288 935 374 q 903 156 935 220 q 817 54 871 92 q 682 7 762 16 q 440 0 632 1 l 102 0 l 102 994 m 302 829 l 302 599 l 434 599 q 580 602 551 599 q 661 638 631 608 q 690 715 690 667 q 665 790 690 762 q 589 825 640 819 q 418 829 559 829 l 302 829 m 302 433 l 302 168 l 488 168 q 626 174 597 168 q 699 213 671 182 q 727 298 727 245 q 705 374 727 342 q 643 419 684 405 q 465 433 602 433 l 302 433 z "},"C":{"ha":1003,"x_min":66,"x_max":932,"o":"m 737 366 l 932 304 q 783 62 887 141 q 519 -17 679 -17 q 193 118 321 -17 q 66 488 66 254 q 194 874 66 736 q 531 1011 322 1011 q 827 903 713 1011 q 929 720 895 840 l 730 673 q 657 795 713 750 q 521 840 601 840 q 341 760 410 840 q 273 503 273 681 q 340 235 273 315 q 517 155 408 155 q 654 205 597 155 q 737 366 712 256 z "},"D":{"ha":1003,"x_min":100,"x_max":934,"o":"m 100 994 l 467 994 q 656 975 591 994 q 806 884 744 949 q 901 723 869 818 q 934 488 934 627 q 903 276 934 365 q 797 100 866 168 q 656 21 745 50 q 478 0 589 0 l 100 0 l 100 994 m 301 826 l 301 168 l 451 168 q 572 177 535 168 q 653 218 621 189 q 706 314 686 248 q 726 496 726 381 q 706 673 726 612 q 649 770 686 735 q 556 817 612 804 q 391 826 514 826 l 301 826 z "},"E":{"ha":926,"x_min":101,"x_max":857,"o":"m 101 0 l 101 994 l 838 994 l 838 826 l 302 826 l 302 606 l 801 606 l 801 438 l 302 438 l 302 168 l 857 168 l 857 0 l 101 0 z "},"F":{"ha":848,"x_min":102,"x_max":784,"o":"m 102 0 l 102 994 l 784 994 l 784 826 l 303 826 l 303 591 l 718 591 l 718 422 l 303 422 l 303 0 l 102 0 z "},"G":{"ha":1080,"x_min":66,"x_max":996,"o":"m 564 366 l 564 533 l 996 533 l 996 137 q 813 30 933 76 q 571 -17 694 -17 q 299 48 415 -17 q 125 236 183 114 q 66 500 66 357 q 132 777 66 656 q 322 962 197 897 q 560 1011 418 1011 q 849 933 745 1011 q 983 719 954 856 l 784 682 q 705 797 763 755 q 560 840 647 840 q 351 756 429 840 q 273 509 273 673 q 352 243 273 332 q 558 155 431 155 q 685 179 621 155 q 793 239 748 204 l 793 366 l 564 366 z "},"H":{"ha":1003,"x_min":102,"x_max":897,"o":"m 102 0 l 102 994 l 302 994 l 302 603 l 696 603 l 696 994 l 897 994 l 897 0 l 696 0 l 696 435 l 302 435 l 302 0 l 102 0 z "},"I":{"ha":386,"x_min":95,"x_max":296,"o":"m 95 0 l 95 994 l 296 994 l 296 0 l 95 0 z "},"J":{"ha":772,"x_min":24,"x_max":660,"o":"m 460 994 l 660 994 l 660 365 q 638 175 660 241 q 532 36 609 88 q 330 -17 456 -17 q 104 65 183 -17 q 24 307 24 148 l 213 329 q 238 208 216 243 q 337 155 271 155 q 432 193 404 155 q 460 352 460 231 l 460 994 z "},"K":{"ha":1003,"x_min":104,"x_max":1000,"o":"m 104 0 l 104 994 l 304 994 l 304 553 l 710 994 l 980 994 l 606 607 l 1000 0 l 741 0 l 467 467 l 304 300 l 304 0 l 104 0 z "},"L":{"ha":848,"x_min":106,"x_max":806,"o":"m 106 0 l 106 986 l 307 986 l 307 168 l 806 168 l 806 0 l 106 0 z "},"M":{"ha":1157,"x_min":98,"x_max":1059,"o":"m 98 0 l 98 994 l 399 994 l 579 316 l 758 994 l 1059 994 l 1059 0 l 872 0 l 872 783 l 675 0 l 481 0 l 285 783 l 285 0 l 98 0 z "},"N":{"ha":1003,"x_min":103,"x_max":892,"o":"m 103 0 l 103 994 l 298 994 l 705 330 l 705 994 l 892 994 l 892 0 l 690 0 l 290 648 l 290 0 l 103 0 z "},"O":{"ha":1080,"x_min":60,"x_max":1025,"o":"m 60 491 q 106 746 60 643 q 198 882 140 822 q 327 972 257 943 q 541 1011 420 1011 q 893 875 761 1011 q 1025 496 1025 739 q 894 119 1025 255 q 544 -17 763 -17 q 191 118 322 -17 q 60 491 60 254 m 267 498 q 345 242 267 329 q 543 155 423 155 q 740 241 663 155 q 817 500 817 328 q 742 755 817 671 q 543 840 667 840 q 343 754 419 840 q 267 498 267 669 z "},"P":{"ha":926,"x_min":101,"x_max":863,"o":"m 101 0 l 101 994 l 423 994 q 662 979 606 994 q 805 882 747 957 q 863 688 863 807 q 829 534 863 597 q 745 436 796 472 q 641 389 694 401 q 433 375 569 375 l 302 375 l 302 0 l 101 0 m 302 826 l 302 544 l 412 544 q 570 559 530 544 q 633 608 610 575 q 656 686 656 642 q 624 775 656 740 q 543 819 592 810 q 399 826 507 826 l 302 826 z "},"Q":{"ha":1080,"x_min":60,"x_max":1062,"o":"m 901 126 q 1062 42 975 73 l 988 -100 q 899 -62 943 -86 q 766 26 890 -58 q 549 -17 668 -17 q 190 118 320 -17 q 60 497 60 253 q 191 876 60 741 q 544 1011 321 1011 q 895 876 765 1011 q 1024 497 1024 741 q 988 271 1024 368 q 901 126 961 196 m 740 239 q 798 349 779 285 q 817 497 817 414 q 741 754 817 669 q 543 840 665 840 q 343 754 420 840 q 267 497 267 669 q 343 236 267 323 q 536 150 420 150 q 618 164 580 150 q 494 227 557 204 l 551 341 q 740 239 650 307 z "},"R":{"ha":1003,"x_min":102,"x_max":996,"o":"m 102 0 l 102 994 l 524 994 q 756 967 684 994 q 871 872 828 941 q 915 715 915 804 q 849 531 915 604 q 652 439 783 458 q 760 355 718 401 q 874 194 802 310 l 996 0 l 755 0 l 610 216 q 505 362 533 332 q 444 404 476 393 q 343 415 412 415 l 302 415 l 302 0 l 102 0 m 302 574 l 451 574 q 631 586 595 574 q 688 628 667 598 q 708 703 708 658 q 681 784 708 753 q 606 823 654 814 q 459 826 581 826 l 302 826 l 302 574 z "},"S":{"ha":926,"x_min":50,"x_max":859,"o":"m 50 323 l 245 342 q 317 198 263 244 q 463 152 371 152 q 609 193 559 152 q 658 289 658 234 q 637 349 658 324 q 565 392 616 374 q 404 435 530 404 q 178 534 243 475 q 86 734 86 616 q 129 876 86 810 q 253 977 172 942 q 449 1011 334 1011 q 731 929 636 1011 q 830 710 825 847 l 629 701 q 574 811 616 778 q 447 845 532 845 q 310 809 359 845 q 278 747 278 786 q 308 687 278 712 q 492 621 346 655 q 709 549 639 586 q 819 448 779 512 q 859 290 859 384 q 811 130 859 204 q 677 19 764 55 q 460 -18 590 -18 q 171 70 272 -18 q 50 323 70 157 z "},"T":{"ha":848,"x_min":30,"x_max":820,"o":"m 325 0 l 325 826 l 30 826 l 30 994 l 820 994 l 820 826 l 526 826 l 526 0 l 325 0 z "},"U":{"ha":1003,"x_min":100,"x_max":892,"o":"m 100 994 l 300 994 l 300 456 q 308 290 300 328 q 369 192 321 229 q 502 155 418 155 q 631 190 587 155 q 683 275 674 224 q 692 444 692 326 l 692 994 l 892 994 l 892 472 q 876 219 892 293 q 816 94 860 145 q 699 13 772 43 q 508 -17 626 -17 q 292 16 366 -17 q 176 101 218 49 q 119 212 133 154 q 100 464 100 297 l 100 994 z "},"V":{"ha":926,"x_min":-1,"x_max":925,"o":"m 355 0 l -1 994 l 217 994 l 469 258 l 712 994 l 925 994 l 569 0 l 355 0 z "},"W":{"ha":1311,"x_min":5,"x_max":1310,"o":"m 242 0 l 5 994 l 210 994 l 360 311 l 542 994 l 781 994 l 955 300 l 1107 994 l 1310 994 l 1068 0 l 855 0 l 657 743 l 460 0 l 242 0 z "},"X":{"ha":926,"x_min":0,"x_max":924,"o":"m 0 0 l 340 519 l 32 994 l 267 994 l 466 675 l 661 994 l 894 994 l 585 511 l 924 0 l 682 0 l 462 344 l 241 0 l 0 0 z "},"Y":{"ha":926,"x_min":-2,"x_max":928,"o":"m 362 0 l 362 418 l -2 994 l 233 994 l 467 601 l 696 994 l 928 994 l 562 417 l 562 0 l 362 0 z "},"Z":{"ha":848,"x_min":15,"x_max":823,"o":"m 15 0 l 15 181 l 537 826 l 74 826 l 74 994 l 802 994 l 802 838 l 257 168 l 823 168 l 823 0 l 15 0 z "},"[":{"ha":463,"x_min":99,"x_max":437,"o":"m 99 -280 l 99 994 l 437 994 l 437 844 l 280 844 l 280 -130 l 437 -130 l 437 -280 l 99 -280 z "},"\\":{"ha":386,"x_min":-2,"x_max":387,"o":"m -2 1011 l 138 1011 l 387 -17 l 244 -17 l -2 1011 z "},"]":{"ha":463,"x_min":26,"x_max":363,"o":"m 363 994 l 363 -280 l 26 -280 l 26 -130 l 182 -130 l 182 846 l 26 846 l 26 994 l 363 994 z "},"^":{"ha":811,"x_min":78,"x_max":732,"o":"m 78 469 l 333 1011 l 484 1011 l 732 469 l 540 469 l 406 801 l 272 469 l 78 469 z "},"_":{"ha":772,"x_min":-13,"x_max":779,"o":"m -13 -275 l -13 -151 l 779 -151 l 779 -275 l -13 -275 z "},"`":{"ha":463,"x_min":28,"x_max":336,"o":"m 336 808 l 216 808 l 28 1011 l 242 1011 l 336 808 z "},"a":{"ha":772,"x_min":50,"x_max":726,"o":"m 242 500 l 69 532 q 170 686 98 636 q 381 736 241 736 q 571 706 509 736 q 659 630 633 676 q 684 459 684 583 l 682 237 q 691 97 682 142 q 726 0 701 52 l 537 0 q 519 56 530 19 q 512 79 514 73 q 408 7 463 31 q 289 -16 352 -16 q 114 44 178 -16 q 50 197 50 104 q 79 306 50 258 q 160 379 108 353 q 312 423 213 404 q 497 470 446 448 l 497 489 q 470 567 497 544 q 368 591 443 591 q 288 571 317 591 q 242 500 260 551 m 497 346 q 381 317 460 334 q 277 283 302 300 q 240 216 240 257 q 270 147 240 176 q 346 118 300 118 q 444 152 397 118 q 490 215 479 178 q 497 308 497 239 l 497 346 z "},"b":{"ha":848,"x_min":92,"x_max":795,"o":"m 92 0 l 92 994 l 282 994 l 282 636 q 491 736 370 736 q 709 641 623 736 q 795 368 795 546 q 707 83 795 183 q 494 -16 619 -16 q 372 15 432 -16 q 269 106 312 45 l 269 0 l 92 0 m 281 376 q 316 210 281 264 q 448 134 366 134 q 555 188 511 134 q 600 358 600 242 q 555 536 600 481 q 440 591 510 591 q 326 537 372 591 q 281 376 281 484 z "},"c":{"ha":772,"x_min":58,"x_max":737,"o":"m 728 507 l 540 473 q 497 558 530 530 q 410 587 463 587 q 296 537 338 587 q 254 373 254 488 q 297 192 254 245 q 412 139 340 139 q 501 170 467 139 q 550 276 536 201 l 737 244 q 625 50 708 115 q 404 -16 543 -16 q 152 83 245 -16 q 58 359 58 183 q 152 637 58 538 q 407 736 246 736 q 616 680 538 736 q 728 507 694 623 z "},"d":{"ha":848,"x_min":57,"x_max":760,"o":"m 760 0 l 583 0 l 583 106 q 479 14 539 44 q 358 -16 419 -16 q 145 84 234 -16 q 57 363 57 184 q 143 641 57 546 q 361 736 229 736 q 570 636 481 736 l 570 994 l 760 994 l 760 0 m 252 376 q 283 209 252 260 q 412 134 330 134 q 524 190 478 134 q 570 357 570 246 q 526 536 570 481 q 411 591 481 591 q 297 537 343 591 q 252 376 252 483 z "},"e":{"ha":772,"x_min":44,"x_max":721,"o":"m 517 229 l 707 197 q 591 38 670 93 q 393 -16 512 -16 q 115 106 205 -16 q 44 355 44 205 q 138 635 44 534 q 374 736 231 736 q 628 630 535 736 q 717 305 721 524 l 239 305 q 286 173 241 220 q 395 126 330 126 q 471 151 440 126 q 517 229 501 175 m 528 422 q 485 548 526 505 q 386 591 444 591 q 283 545 323 591 q 243 422 242 500 l 528 422 z "},"f":{"ha":463,"x_min":16,"x_max":503,"o":"m 16 720 l 122 720 l 122 774 q 141 910 122 865 q 213 983 161 955 q 344 1011 264 1011 q 503 987 425 1011 l 477 854 q 390 865 432 865 q 331 845 349 865 q 313 771 313 826 l 313 720 l 455 720 l 455 570 l 313 570 l 313 0 l 122 0 l 122 570 l 16 570 l 16 720 z "},"g":{"ha":848,"x_min":57,"x_max":760,"o":"m 82 -47 l 300 -74 q 325 -126 305 -112 q 410 -146 352 -146 q 522 -124 485 -146 q 560 -76 547 -109 q 569 12 569 -52 l 569 117 q 353 0 484 0 q 123 123 208 0 q 57 364 57 220 q 144 641 57 545 q 361 736 231 736 q 581 619 494 736 l 581 720 l 760 720 l 760 74 q 739 -117 760 -54 q 680 -216 718 -180 q 578 -272 642 -252 q 418 -292 515 -292 q 158 -230 235 -292 q 81 -71 81 -167 q 82 -47 81 -61 m 252 375 q 297 207 252 260 q 406 154 341 154 q 524 209 476 154 q 572 370 572 263 q 526 536 572 482 q 410 591 480 591 q 297 537 341 591 q 252 375 252 484 z "},"h":{"ha":848,"x_min":99,"x_max":755,"o":"m 290 994 l 290 629 q 510 736 382 736 q 629 712 576 736 q 708 650 682 688 q 745 566 735 612 q 755 422 755 519 l 755 0 l 564 0 l 564 380 q 553 524 564 494 q 515 573 543 555 q 446 591 488 591 q 361 568 399 591 q 307 498 324 545 q 290 361 290 452 l 290 0 l 99 0 l 99 994 l 290 994 z "},"i":{"ha":386,"x_min":100,"x_max":290,"o":"m 100 818 l 100 994 l 290 994 l 290 818 l 100 818 m 100 0 l 100 720 l 290 720 l 290 0 l 100 0 z "},"j":{"ha":386,"x_min":-64,"x_max":286,"o":"m 96 818 l 96 994 l 286 994 l 286 818 l 96 818 m 286 720 l 286 22 q 268 -172 286 -115 q 199 -260 250 -229 q 68 -292 148 -292 q 7 -287 40 -292 q -64 -272 -26 -282 l -31 -109 q -5 -114 -17 -112 q 17 -115 7 -115 q 65 -103 46 -115 q 90 -73 83 -90 q 96 33 96 -55 l 96 720 l 286 720 z "},"k":{"ha":772,"x_min":93,"x_max":759,"o":"m 93 0 l 93 994 l 283 994 l 283 467 l 507 720 l 741 720 l 495 457 l 759 0 l 553 0 l 372 323 l 283 231 l 283 0 l 93 0 z "},"l":{"ha":386,"x_min":100,"x_max":290,"o":"m 100 0 l 100 994 l 290 994 l 290 0 l 100 0 z "},"m":{"ha":1235,"x_min":85,"x_max":1145,"o":"m 85 720 l 261 720 l 261 622 q 486 736 355 736 q 606 708 555 736 q 689 622 656 680 q 791 708 736 680 q 909 736 846 736 q 1043 704 988 736 q 1125 610 1098 672 q 1145 460 1145 564 l 1145 0 l 954 0 l 954 412 q 935 550 954 519 q 853 591 908 591 q 778 566 813 591 q 727 495 743 542 q 711 346 711 448 l 711 0 l 521 0 l 521 395 q 511 530 521 500 q 479 576 500 561 q 421 591 458 591 q 342 567 377 591 q 291 498 307 543 q 276 350 276 454 l 276 0 l 85 0 l 85 720 z "},"n":{"ha":848,"x_min":98,"x_max":755,"o":"m 755 0 l 564 0 l 564 368 q 552 518 564 484 q 512 572 540 553 q 446 591 485 591 q 357 564 397 591 q 303 492 318 536 q 289 326 289 447 l 289 0 l 98 0 l 98 720 l 275 720 l 275 614 q 513 736 370 736 q 628 714 576 736 q 707 656 680 691 q 744 576 734 621 q 755 448 755 531 l 755 0 z "},"o":{"ha":848,"x_min":56,"x_max":799,"o":"m 56 370 q 102 554 56 465 q 235 690 149 643 q 427 736 321 736 q 694 630 590 736 q 799 362 799 524 q 693 91 799 199 q 428 -16 588 -16 q 239 28 329 -16 q 102 160 149 73 q 56 370 56 246 m 251 360 q 302 196 251 253 q 427 139 353 139 q 552 196 502 139 q 603 361 603 253 q 552 524 603 467 q 427 581 502 581 q 302 524 353 581 q 251 360 251 467 z "},"p":{"ha":848,"x_min":94,"x_max":797,"o":"m 94 720 l 272 720 l 272 614 q 366 703 307 669 q 496 736 425 736 q 709 638 622 736 q 797 364 797 540 q 709 84 797 184 q 495 -16 621 -16 q 387 7 435 -16 q 285 89 338 31 l 285 -274 l 94 -274 l 94 720 m 283 372 q 331 193 283 251 q 448 135 379 135 q 559 188 515 135 q 603 363 603 241 q 557 531 603 476 q 445 586 512 586 q 329 532 375 586 q 283 372 283 478 z "},"q":{"ha":848,"x_min":62,"x_max":761,"o":"m 570 -274 l 570 88 q 477 12 533 40 q 357 -16 422 -16 q 155 76 235 -16 q 62 368 62 184 q 150 639 62 542 q 368 736 237 736 q 492 706 439 736 q 585 614 545 675 l 585 720 l 761 720 l 761 -274 l 570 -274 m 576 369 q 531 533 576 479 q 418 587 486 587 q 303 532 349 587 q 256 358 256 477 q 301 187 256 239 q 412 134 346 134 q 527 193 477 134 q 576 369 576 252 z "},"r":{"ha":541,"x_min":92,"x_max":558,"o":"m 282 0 l 92 0 l 92 720 l 269 720 l 269 618 q 350 713 314 690 q 433 736 387 736 q 558 701 498 736 l 499 534 q 410 566 451 566 q 342 544 370 566 q 298 464 314 522 q 282 222 282 406 l 282 0 z "},"s":{"ha":772,"x_min":33,"x_max":705,"o":"m 33 205 l 224 235 q 273 150 236 179 q 378 121 311 121 q 489 149 452 121 q 514 199 514 168 q 500 235 514 221 q 437 260 486 249 q 144 353 206 311 q 59 515 59 412 q 133 673 59 609 q 362 736 207 736 q 582 688 510 736 q 681 546 654 640 l 501 513 q 457 577 490 555 q 366 600 425 600 q 258 578 290 600 q 236 540 236 564 q 255 505 236 519 q 433 452 281 486 q 646 367 585 417 q 705 225 705 316 q 623 55 705 126 q 378 -16 540 -16 q 145 43 231 -16 q 33 205 59 103 z "},"t":{"ha":463,"x_min":21,"x_max":446,"o":"m 430 720 l 430 568 l 300 568 l 300 278 q 303 175 300 190 q 320 151 307 161 q 353 142 334 142 q 429 160 379 142 l 446 12 q 295 -16 379 -16 q 202 1 243 -16 q 141 46 161 18 q 115 120 122 73 q 109 254 109 153 l 109 568 l 21 568 l 21 720 l 109 720 l 109 863 l 300 975 l 300 720 l 430 720 z "},"u":{"ha":848,"x_min":96,"x_max":751,"o":"m 574 0 l 574 108 q 470 17 534 50 q 335 -16 406 -16 q 205 16 262 -16 q 121 105 147 47 q 96 264 96 163 l 96 720 l 286 720 l 286 389 q 297 203 286 237 q 335 149 307 169 q 406 129 363 129 q 493 156 454 129 q 546 222 532 182 q 560 416 560 262 l 560 720 l 751 720 l 751 0 l 574 0 z "},"v":{"ha":772,"x_min":7,"x_max":755,"o":"m 298 0 l 7 720 l 208 720 l 343 353 l 382 230 q 402 292 398 277 q 422 353 412 322 l 559 720 l 755 720 l 469 0 l 298 0 z "},"w":{"ha":1080,"x_min":6,"x_max":1080,"o":"m 234 0 l 6 720 l 191 720 l 326 248 l 450 720 l 634 720 l 754 248 l 892 720 l 1080 720 l 848 0 l 665 0 l 541 463 l 419 0 l 234 0 z "},"x":{"ha":772,"x_min":8,"x_max":760,"o":"m 8 0 l 268 371 l 19 720 l 252 720 l 379 522 l 513 720 l 737 720 l 493 379 l 760 0 l 526 0 l 379 223 l 231 0 l 8 0 z "},"y":{"ha":772,"x_min":9,"x_max":750,"o":"m 9 720 l 212 720 l 385 209 l 553 720 l 750 720 l 496 27 l 450 -98 q 402 -195 425 -161 q 350 -249 380 -228 q 278 -281 321 -269 q 180 -292 235 -292 q 73 -281 125 -292 l 56 -132 q 136 -140 100 -140 q 235 -101 203 -140 q 283 -2 267 -62 l 9 720 z "},"z":{"ha":694,"x_min":23,"x_max":666,"o":"m 23 0 l 23 149 l 293 458 q 391 566 359 534 q 304 564 358 564 l 50 562 l 50 720 l 645 720 l 645 585 l 370 268 l 273 163 q 371 168 352 168 l 666 168 l 666 0 l 23 0 z "},"{":{"ha":541,"x_min":41,"x_max":505,"o":"m 41 278 l 41 441 q 115 456 90 444 q 159 497 140 468 q 184 569 177 526 q 189 682 189 602 q 201 866 189 814 q 245 949 214 918 q 338 999 277 981 q 469 1011 380 1011 l 505 1011 l 505 849 q 408 841 429 849 q 376 815 387 832 q 366 755 366 798 q 360 593 366 713 q 342 485 357 526 q 306 416 328 443 q 239 359 284 389 q 304 306 279 336 q 343 231 330 275 q 361 113 357 186 q 366 -31 366 0 q 376 -94 366 -76 q 409 -120 387 -111 q 505 -130 431 -130 l 505 -292 l 469 -292 q 328 -278 377 -292 q 246 -229 279 -263 q 201 -145 212 -195 q 189 12 189 -96 q 178 174 189 136 q 133 251 163 228 q 41 278 103 275 z "},"|":{"ha":389,"x_min":119,"x_max":271,"o":"m 119 -292 l 119 1011 l 271 1011 l 271 -292 l 119 -292 z "},"}":{"ha":541,"x_min":31,"x_max":494,"o":"m 494 278 q 420 263 445 275 q 377 222 395 251 q 351 150 359 193 q 346 37 346 117 q 334 -146 346 -94 q 290 -230 322 -199 q 197 -280 258 -262 q 66 -292 155 -292 l 31 -292 l 31 -130 q 125 -120 103 -130 q 158 -94 148 -111 q 169 -35 169 -77 q 175 123 170 6 q 193 236 178 193 q 233 308 208 278 q 296 359 258 337 q 223 423 246 392 q 180 537 191 468 q 169 746 172 585 q 160 814 168 797 q 129 840 151 831 q 31 849 107 849 l 31 1011 l 66 1011 q 207 997 158 1011 q 289 948 256 983 q 334 864 322 914 q 346 707 346 814 q 356 545 346 583 q 401 468 371 491 q 494 441 432 444 l 494 278 z "},"~":{"ha":811,"x_min":45,"x_max":766,"o":"m 45 352 l 45 528 q 246 621 132 621 q 325 613 289 621 q 454 567 361 604 q 581 529 547 529 q 668 552 618 529 q 766 627 718 576 l 766 444 q 679 382 734 411 q 563 354 623 354 q 497 362 529 354 q 395 401 465 370 q 231 446 290 446 q 45 352 136 446 z "},"Ä":{"ha":1003,"x_min":0,"x_max":998,"o":"m 998 0 l 779 0 l 692 226 l 295 226 l 213 0 l 0 0 l 387 994 l 600 994 l 998 0 m 628 393 l 491 762 l 357 393 l 628 393 m 260 1051 l 260 1215 l 423 1215 l 423 1051 l 260 1051 m 551 1051 l 551 1215 l 715 1215 l 715 1051 l 551 1051 z "},"Å":{"ha":1003,"x_min":0,"x_max":998,"o":"m 998 0 l 779 0 l 692 226 l 295 226 l 213 0 l 0 0 l 387 994 l 600 994 l 998 0 m 628 393 l 491 762 l 357 393 l 628 393 m 625 1059 q 586 965 625 1004 q 492 926 547 926 q 398 965 437 926 q 359 1059 359 1004 q 398 1153 359 1114 q 492 1192 437 1192 q 586 1154 547 1192 q 625 1059 625 1115 m 552 1059 q 534 1102 552 1084 q 492 1120 517 1120 q 449 1102 467 1120 q 431 1059 431 1084 q 449 1017 431 1034 q 492 999 467 999 q 534 1017 517 999 q 552 1059 552 1034 z "},"Ç":{"ha":1003,"x_min":66,"x_max":932,"o":"m 737 366 l 932 304 q 783 62 887 141 q 519 -17 679 -17 q 193 118 321 -17 q 66 488 66 254 q 194 874 66 736 q 531 1011 322 1011 q 827 903 713 1011 q 929 720 895 840 l 730 673 q 657 795 713 750 q 521 840 601 840 q 341 760 410 840 q 273 503 273 681 q 340 235 273 315 q 517 155 408 155 q 654 205 597 155 q 737 366 712 256 m 315 -273 l 315 -193 q 444 -201 385 -201 q 533 -179 504 -201 q 555 -137 555 -163 q 534 -97 555 -114 q 469 -80 513 -80 q 380 -94 426 -80 l 398 -26 q 512 -8 451 -8 q 641 -45 597 -8 q 685 -136 685 -83 q 636 -233 685 -196 q 448 -284 570 -284 q 315 -273 360 -284 z "},"É":{"ha":926,"x_min":101,"x_max":857,"o":"m 101 0 l 101 994 l 838 994 l 838 826 l 302 826 l 302 606 l 801 606 l 801 438 l 302 438 l 302 168 l 857 168 l 857 0 l 101 0 m 356 1051 l 450 1254 l 663 1254 l 477 1051 l 356 1051 z "},"Ñ":{"ha":1003,"x_min":103,"x_max":892,"o":"m 103 0 l 103 994 l 298 994 l 705 330 l 705 994 l 892 994 l 892 0 l 690 0 l 290 648 l 290 0 l 103 0 m 353 1049 l 266 1049 q 265 1074 265 1065 q 300 1183 265 1145 q 389 1221 334 1221 q 433 1216 412 1221 q 507 1187 453 1211 q 591 1163 561 1163 q 628 1177 613 1163 q 646 1222 642 1190 l 734 1222 q 700 1091 734 1131 q 614 1052 667 1052 q 568 1057 591 1052 q 490 1084 553 1061 q 399 1108 428 1108 q 366 1095 378 1108 q 353 1049 353 1082 z "},"Ö":{"ha":1080,"x_min":60,"x_max":1025,"o":"m 60 491 q 106 746 60 643 q 198 882 140 822 q 327 972 257 943 q 541 1011 420 1011 q 893 875 761 1011 q 1025 496 1025 739 q 894 119 1025 255 q 544 -17 763 -17 q 191 118 322 -17 q 60 491 60 254 m 267 498 q 345 242 267 329 q 543 155 423 155 q 740 241 663 155 q 817 500 817 328 q 742 755 817 671 q 543 840 667 840 q 343 754 419 840 q 267 498 267 669 m 303 1051 l 303 1215 l 467 1215 l 467 1051 l 303 1051 m 595 1051 l 595 1215 l 759 1215 l 759 1051 l 595 1051 z "},"Ü":{"ha":1003,"x_min":100,"x_max":892,"o":"m 100 994 l 300 994 l 300 456 q 308 290 300 328 q 369 192 321 229 q 502 155 418 155 q 631 190 587 155 q 683 275 674 224 q 692 444 692 326 l 692 994 l 892 994 l 892 472 q 876 219 892 293 q 816 94 860 145 q 699 13 772 43 q 508 -17 626 -17 q 292 16 366 -17 q 176 101 218 49 q 119 212 133 154 q 100 464 100 297 l 100 994 m 271 1051 l 271 1215 l 434 1215 l 434 1051 l 271 1051 m 562 1051 l 562 1215 l 726 1215 l 726 1051 l 562 1051 z "},"á":{"ha":772,"x_min":50,"x_max":726,"o":"m 242 500 l 69 532 q 170 686 98 636 q 381 736 241 736 q 571 706 509 736 q 659 630 633 676 q 684 459 684 583 l 682 237 q 691 97 682 142 q 726 0 701 52 l 537 0 q 519 56 530 19 q 512 79 514 73 q 408 7 463 31 q 289 -16 352 -16 q 114 44 178 -16 q 50 197 50 104 q 79 306 50 258 q 160 379 108 353 q 312 423 213 404 q 497 470 446 448 l 497 489 q 470 567 497 544 q 368 591 443 591 q 288 571 317 591 q 242 500 260 551 m 497 346 q 381 317 460 334 q 277 283 302 300 q 240 216 240 257 q 270 147 240 176 q 346 118 300 118 q 444 152 397 118 q 490 215 479 178 q 497 308 497 239 l 497 346 m 291 808 l 385 1011 l 598 1011 l 412 808 l 291 808 z "},"à":{"ha":772,"x_min":50,"x_max":726,"o":"m 242 500 l 69 532 q 170 686 98 636 q 381 736 241 736 q 571 706 509 736 q 659 630 633 676 q 684 459 684 583 l 682 237 q 691 97 682 142 q 726 0 701 52 l 537 0 q 519 56 530 19 q 512 79 514 73 q 408 7 463 31 q 289 -16 352 -16 q 114 44 178 -16 q 50 197 50 104 q 79 306 50 258 q 160 379 108 353 q 312 423 213 404 q 497 470 446 448 l 497 489 q 470 567 497 544 q 368 591 443 591 q 288 571 317 591 q 242 500 260 551 m 497 346 q 381 317 460 334 q 277 283 302 300 q 240 216 240 257 q 270 147 240 176 q 346 118 300 118 q 444 152 397 118 q 490 215 479 178 q 497 308 497 239 l 497 346 m 484 808 l 363 808 l 176 1011 l 390 1011 l 484 808 z "},"â":{"ha":772,"x_min":50,"x_max":726,"o":"m 242 500 l 69 532 q 170 686 98 636 q 381 736 241 736 q 571 706 509 736 q 659 630 633 676 q 684 459 684 583 l 682 237 q 691 97 682 142 q 726 0 701 52 l 537 0 q 519 56 530 19 q 512 79 514 73 q 408 7 463 31 q 289 -16 352 -16 q 114 44 178 -16 q 50 197 50 104 q 79 306 50 258 q 160 379 108 353 q 312 423 213 404 q 497 470 446 448 l 497 489 q 470 567 497 544 q 368 591 443 591 q 288 571 317 591 q 242 500 260 551 m 497 346 q 381 317 460 334 q 277 283 302 300 q 240 216 240 257 q 270 147 240 176 q 346 118 300 118 q 444 152 397 118 q 490 215 479 178 q 497 308 497 239 l 497 346 m 158 811 l 300 1011 l 477 1011 l 617 811 l 464 811 l 385 912 l 312 811 l 158 811 z "},"ä":{"ha":772,"x_min":50,"x_max":726,"o":"m 242 500 l 69 532 q 170 686 98 636 q 381 736 241 736 q 571 706 509 736 q 659 630 633 676 q 684 459 684 583 l 682 237 q 691 97 682 142 q 726 0 701 52 l 537 0 q 519 56 530 19 q 512 79 514 73 q 408 7 463 31 q 289 -16 352 -16 q 114 44 178 -16 q 50 197 50 104 q 79 306 50 258 q 160 379 108 353 q 312 423 213 404 q 497 470 446 448 l 497 489 q 470 567 497 544 q 368 591 443 591 q 288 571 317 591 q 242 500 260 551 m 497 346 q 381 317 460 334 q 277 283 302 300 q 240 216 240 257 q 270 147 240 176 q 346 118 300 118 q 444 152 397 118 q 490 215 479 178 q 497 308 497 239 l 497 346 m 160 848 l 160 1011 l 323 1011 l 323 848 l 160 848 m 452 848 l 452 1011 l 616 1011 l 616 848 l 452 848 z "},"ã":{"ha":772,"x_min":50,"x_max":726,"o":"m 242 500 l 69 532 q 170 686 98 636 q 381 736 241 736 q 571 706 509 736 q 659 630 633 676 q 684 459 684 583 l 682 237 q 691 97 682 142 q 726 0 701 52 l 537 0 q 519 56 530 19 q 512 79 514 73 q 408 7 463 31 q 289 -16 352 -16 q 114 44 178 -16 q 50 197 50 104 q 79 306 50 258 q 160 379 108 353 q 312 423 213 404 q 497 470 446 448 l 497 489 q 470 567 497 544 q 368 591 443 591 q 288 571 317 591 q 242 500 260 551 m 497 346 q 381 317 460 334 q 277 283 302 300 q 240 216 240 257 q 270 147 240 176 q 346 118 300 118 q 444 152 397 118 q 490 215 479 178 q 497 308 497 239 l 497 346 m 241 817 l 154 817 q 153 842 153 833 q 188 951 153 913 q 277 989 222 989 q 321 984 300 989 q 395 955 341 979 q 479 931 449 931 q 516 945 501 931 q 534 990 530 958 l 623 990 q 588 859 622 899 q 502 820 555 820 q 456 825 479 820 q 378 852 441 829 q 288 876 316 876 q 254 863 266 876 q 241 817 241 850 z "},"å":{"ha":772,"x_min":50,"x_max":726,"o":"m 242 500 l 69 532 q 170 686 98 636 q 381 736 241 736 q 571 706 509 736 q 659 630 633 676 q 684 459 684 583 l 682 237 q 691 97 682 142 q 726 0 701 52 l 537 0 q 519 56 530 19 q 512 79 514 73 q 408 7 463 31 q 289 -16 352 -16 q 114 44 178 -16 q 50 197 50 104 q 79 306 50 258 q 160 379 108 353 q 312 423 213 404 q 497 470 446 448 l 497 489 q 470 567 497 544 q 368 591 443 591 q 288 571 317 591 q 242 500 260 551 m 497 346 q 381 317 460 334 q 277 283 302 300 q 240 216 240 257 q 270 147 240 176 q 346 118 300 118 q 444 152 397 118 q 490 215 479 178 q 497 308 497 239 l 497 346 m 520 910 q 481 816 520 855 q 387 777 442 777 q 293 816 332 777 q 254 910 254 855 q 293 1004 254 965 q 387 1043 332 1043 q 481 1004 442 1043 q 520 910 520 966 m 448 910 q 430 953 448 935 q 387 970 412 970 q 345 953 362 970 q 327 910 327 935 q 345 867 327 885 q 387 850 362 850 q 430 867 412 850 q 448 910 448 885 z "},"ç":{"ha":772,"x_min":58,"x_max":737,"o":"m 728 507 l 540 473 q 497 558 530 530 q 410 587 463 587 q 296 537 338 587 q 254 373 254 488 q 297 192 254 245 q 412 139 340 139 q 501 170 467 139 q 550 276 536 201 l 737 244 q 625 50 708 115 q 404 -16 543 -16 q 152 83 245 -16 q 58 359 58 183 q 152 637 58 538 q 407 736 246 736 q 616 680 538 736 q 728 507 694 623 m 214 -273 l 214 -193 q 342 -201 284 -201 q 432 -179 403 -201 q 454 -137 454 -163 q 433 -97 454 -114 q 368 -80 412 -80 q 279 -94 325 -80 l 297 -26 q 411 -8 350 -8 q 540 -45 496 -8 q 584 -136 584 -83 q 535 -233 584 -196 q 347 -284 469 -284 q 214 -273 259 -284 z "},"é":{"ha":772,"x_min":44,"x_max":721,"o":"m 517 229 l 707 197 q 591 38 670 93 q 393 -16 512 -16 q 115 106 205 -16 q 44 355 44 205 q 138 635 44 534 q 374 736 231 736 q 628 630 535 736 q 717 305 721 524 l 239 305 q 286 173 241 220 q 395 126 330 126 q 471 151 440 126 q 517 229 501 175 m 528 422 q 485 548 526 505 q 386 591 444 591 q 283 545 323 591 q 243 422 242 500 l 528 422 m 284 808 l 378 1011 l 591 1011 l 405 808 l 284 808 z "},"è":{"ha":772,"x_min":44,"x_max":721,"o":"m 517 229 l 707 197 q 591 38 670 93 q 393 -16 512 -16 q 115 106 205 -16 q 44 355 44 205 q 138 635 44 534 q 374 736 231 736 q 628 630 535 736 q 717 305 721 524 l 239 305 q 286 173 241 220 q 395 126 330 126 q 471 151 440 126 q 517 229 501 175 m 528 422 q 485 548 526 505 q 386 591 444 591 q 283 545 323 591 q 243 422 242 500 l 528 422 m 477 808 l 357 808 l 170 1011 l 383 1011 l 477 808 z "},"ê":{"ha":772,"x_min":44,"x_max":721,"o":"m 517 229 l 707 197 q 591 38 670 93 q 393 -16 512 -16 q 115 106 205 -16 q 44 355 44 205 q 138 635 44 534 q 374 736 231 736 q 628 630 535 736 q 717 305 721 524 l 239 305 q 286 173 241 220 q 395 126 330 126 q 471 151 440 126 q 517 229 501 175 m 528 422 q 485 548 526 505 q 386 591 444 591 q 283 545 323 591 q 243 422 242 500 l 528 422 m 151 811 l 294 1011 l 470 1011 l 610 811 l 457 811 l 378 912 l 305 811 l 151 811 z "},"ë":{"ha":772,"x_min":44,"x_max":721,"o":"m 517 229 l 707 197 q 591 38 670 93 q 393 -16 512 -16 q 115 106 205 -16 q 44 355 44 205 q 138 635 44 534 q 374 736 231 736 q 628 630 535 736 q 717 305 721 524 l 239 305 q 286 173 241 220 q 395 126 330 126 q 471 151 440 126 q 517 229 501 175 m 528 422 q 485 548 526 505 q 386 591 444 591 q 283 545 323 591 q 243 422 242 500 l 528 422 m 153 848 l 153 1011 l 316 1011 l 316 848 l 153 848 m 444 848 l 444 1011 l 608 1011 l 608 848 l 444 848 z "},"í":{"ha":386,"x_min":85,"x_max":393,"o":"m 100 0 l 100 720 l 290 720 l 290 0 l 100 0 m 85 808 l 179 1011 l 393 1011 l 206 808 l 85 808 z "},"ì":{"ha":386,"x_min":-16,"x_max":292,"o":"m 100 0 l 100 720 l 290 720 l 290 0 l 100 0 m 292 808 l 172 808 l -16 1011 l 198 1011 l 292 808 z "},"î":{"ha":386,"x_min":-35,"x_max":425,"o":"m 100 0 l 100 720 l 290 720 l 290 0 l 100 0 m -35 811 l 108 1011 l 284 1011 l 425 811 l 271 811 l 193 912 l 119 811 l -35 811 z "},"ï":{"ha":386,"x_min":-33,"x_max":423,"o":"m 100 0 l 100 720 l 290 720 l 290 0 l 100 0 m -33 848 l -33 1011 l 131 1011 l 131 848 l -33 848 m 259 848 l 259 1011 l 423 1011 l 423 848 l 259 848 z "},"ñ":{"ha":848,"x_min":98,"x_max":755,"o":"m 755 0 l 564 0 l 564 368 q 552 518 564 484 q 512 572 540 553 q 446 591 485 591 q 357 564 397 591 q 303 492 318 536 q 289 326 289 447 l 289 0 l 98 0 l 98 720 l 275 720 l 275 614 q 513 736 370 736 q 628 714 576 736 q 707 656 680 691 q 744 576 734 621 q 755 448 755 531 l 755 0 m 279 817 l 193 817 q 192 842 192 833 q 227 951 192 913 q 315 989 261 989 q 359 984 339 989 q 434 955 380 979 q 518 931 488 931 q 554 945 540 931 q 573 990 569 958 l 661 990 q 627 859 661 899 q 541 820 593 820 q 495 825 517 820 q 417 852 479 829 q 326 876 355 876 q 292 863 304 876 q 279 817 280 850 z "},"ó":{"ha":848,"x_min":56,"x_max":799,"o":"m 56 370 q 102 554 56 465 q 235 690 149 643 q 427 736 321 736 q 694 630 590 736 q 799 362 799 524 q 693 91 799 199 q 428 -16 588 -16 q 239 28 329 -16 q 102 160 149 73 q 56 370 56 246 m 251 360 q 302 196 251 253 q 427 139 353 139 q 552 196 502 139 q 603 361 603 253 q 552 524 603 467 q 427 581 502 581 q 302 524 353 581 q 251 360 251 467 m 331 808 l 425 1011 l 638 1011 l 452 808 l 331 808 z "},"ò":{"ha":848,"x_min":56,"x_max":799,"o":"m 56 370 q 102 554 56 465 q 235 690 149 643 q 427 736 321 736 q 694 630 590 736 q 799 362 799 524 q 693 91 799 199 q 428 -16 588 -16 q 239 28 329 -16 q 102 160 149 73 q 56 370 56 246 m 251 360 q 302 196 251 253 q 427 139 353 139 q 552 196 502 139 q 603 361 603 253 q 552 524 603 467 q 427 581 502 581 q 302 524 353 581 q 251 360 251 467 m 523 808 l 403 808 l 216 1011 l 429 1011 l 523 808 z "},"ô":{"ha":848,"x_min":56,"x_max":799,"o":"m 56 370 q 102 554 56 465 q 235 690 149 643 q 427 736 321 736 q 694 630 590 736 q 799 362 799 524 q 693 91 799 199 q 428 -16 588 -16 q 239 28 329 -16 q 102 160 149 73 q 56 370 56 246 m 251 360 q 302 196 251 253 q 427 139 353 139 q 552 196 502 139 q 603 361 603 253 q 552 524 603 467 q 427 581 502 581 q 302 524 353 581 q 251 360 251 467 m 197 811 l 340 1011 l 516 1011 l 656 811 l 503 811 l 425 912 l 351 811 l 197 811 z "},"ö":{"ha":848,"x_min":56,"x_max":799,"o":"m 56 370 q 102 554 56 465 q 235 690 149 643 q 427 736 321 736 q 694 630 590 736 q 799 362 799 524 q 693 91 799 199 q 428 -16 588 -16 q 239 28 329 -16 q 102 160 149 73 q 56 370 56 246 m 251 360 q 302 196 251 253 q 427 139 353 139 q 552 196 502 139 q 603 361 603 253 q 552 524 603 467 q 427 581 502 581 q 302 524 353 581 q 251 360 251 467 m 192 848 l 192 1011 l 355 1011 l 355 848 l 192 848 m 484 848 l 484 1011 l 648 1011 l 648 848 l 484 848 z "},"õ":{"ha":848,"x_min":56,"x_max":799,"o":"m 56 370 q 102 554 56 465 q 235 690 149 643 q 427 736 321 736 q 694 630 590 736 q 799 362 799 524 q 693 91 799 199 q 428 -16 588 -16 q 239 28 329 -16 q 102 160 149 73 q 56 370 56 246 m 251 360 q 302 196 251 253 q 427 139 353 139 q 552 196 502 139 q 603 361 603 253 q 552 524 603 467 q 427 581 502 581 q 302 524 353 581 q 251 360 251 467 m 280 817 l 193 817 q 193 842 193 833 q 227 951 193 913 q 316 989 262 989 q 360 984 340 989 q 434 955 380 979 q 519 931 488 931 q 555 945 541 931 q 574 990 570 958 l 662 990 q 628 859 661 899 q 541 820 594 820 q 496 825 518 820 q 418 852 480 829 q 327 876 355 876 q 293 863 305 876 q 280 817 281 850 z "},"ú":{"ha":848,"x_min":96,"x_max":751,"o":"m 574 0 l 574 108 q 470 17 534 50 q 335 -16 406 -16 q 205 16 262 -16 q 121 105 147 47 q 96 264 96 163 l 96 720 l 286 720 l 286 389 q 297 203 286 237 q 335 149 307 169 q 406 129 363 129 q 493 156 454 129 q 546 222 532 182 q 560 416 560 262 l 560 720 l 751 720 l 751 0 l 574 0 m 327 808 l 420 1011 l 634 1011 l 448 808 l 327 808 z "},"ù":{"ha":848,"x_min":96,"x_max":751,"o":"m 574 0 l 574 108 q 470 17 534 50 q 335 -16 406 -16 q 205 16 262 -16 q 121 105 147 47 q 96 264 96 163 l 96 720 l 286 720 l 286 389 q 297 203 286 237 q 335 149 307 169 q 406 129 363 129 q 493 156 454 129 q 546 222 532 182 q 560 416 560 262 l 560 720 l 751 720 l 751 0 l 574 0 m 519 808 l 399 808 l 212 1011 l 426 1011 l 519 808 z "},"û":{"ha":848,"x_min":96,"x_max":751,"o":"m 574 0 l 574 108 q 470 17 534 50 q 335 -16 406 -16 q 205 16 262 -16 q 121 105 147 47 q 96 264 96 163 l 96 720 l 286 720 l 286 389 q 297 203 286 237 q 335 149 307 169 q 406 129 363 129 q 493 156 454 129 q 546 222 532 182 q 560 416 560 262 l 560 720 l 751 720 l 751 0 l 574 0 m 194 811 l 336 1011 l 513 1011 l 653 811 l 500 811 l 421 912 l 348 811 l 194 811 z "},"ü":{"ha":848,"x_min":96,"x_max":751,"o":"m 574 0 l 574 108 q 470 17 534 50 q 335 -16 406 -16 q 205 16 262 -16 q 121 105 147 47 q 96 264 96 163 l 96 720 l 286 720 l 286 389 q 297 203 286 237 q 335 149 307 169 q 406 129 363 129 q 493 156 454 129 q 546 222 532 182 q 560 416 560 262 l 560 720 l 751 720 l 751 0 l 574 0 m 195 848 l 195 1011 l 359 1011 l 359 848 l 195 848 m 487 848 l 487 1011 l 651 1011 l 651 848 l 487 848 z "},"†":{"ha":772,"x_min":46,"x_max":718,"o":"m 294 -237 l 294 563 l 46 563 l 46 720 l 294 720 l 294 982 l 472 982 l 472 720 l 718 720 l 718 563 l 472 563 l 472 -237 l 294 -237 z "},"°":{"ha":555,"x_min":58,"x_max":491,"o":"m 58 795 q 122 948 58 885 q 275 1011 185 1011 q 428 948 364 1011 q 491 795 491 884 q 428 642 491 705 q 275 578 364 578 q 122 642 185 578 q 58 795 58 705 m 171 795 q 201 722 171 752 q 275 691 232 691 q 348 722 317 691 q 378 795 378 752 q 348 868 378 838 q 275 899 317 899 q 201 868 232 899 q 171 795 171 838 z "},"¢":{"ha":772,"x_min":57,"x_max":736,"o":"m 505 550 l 381 142 q 412 139 396 139 q 500 170 465 139 q 549 276 535 201 l 736 244 q 625 50 707 115 q 404 -16 542 -16 q 335 -12 370 -16 l 256 -273 l 173 -250 l 252 11 q 107 144 158 52 q 57 363 57 237 q 151 637 57 538 q 406 736 245 736 q 469 732 436 736 l 546 987 l 629 964 l 553 712 q 727 507 682 663 l 539 473 q 505 550 531 522 m 425 586 q 409 587 416 587 q 295 537 337 587 q 252 372 252 488 q 304 182 252 241 l 425 586 z "},"£":{"ha":772,"x_min":9,"x_max":751,"o":"m 677 193 l 751 32 q 662 -2 712 11 q 564 -16 611 -16 q 401 13 503 -16 q 250 42 299 42 q 81 -17 168 42 l 9 147 q 119 264 85 202 q 153 382 153 326 q 150 421 153 401 l 9 421 l 9 571 l 115 571 q 87 733 87 651 q 128 874 87 807 q 242 976 168 941 q 404 1011 316 1011 q 616 944 537 1011 q 713 750 696 876 l 530 723 q 483 827 517 795 q 398 859 449 859 q 308 823 344 859 q 272 732 272 787 q 282 656 272 703 q 306 571 292 610 l 517 571 l 517 421 l 337 421 q 339 391 339 406 q 319 292 339 338 q 235 173 298 247 q 329 192 273 192 q 372 189 353 192 q 427 176 381 188 q 539 155 509 155 q 677 193 592 155 z "},"§":{"ha":772,"x_min":40,"x_max":724,"o":"m 669 783 l 482 763 q 453 840 479 813 q 378 866 426 866 q 311 847 334 866 q 288 803 288 827 q 319 739 288 770 q 458 643 340 719 q 614 534 576 567 q 699 436 673 485 q 724 329 724 388 q 693 213 724 266 q 601 116 663 159 q 663 35 642 78 q 683 -56 683 -8 q 608 -224 683 -157 q 391 -292 532 -292 q 174 -225 256 -292 q 78 -46 93 -158 l 264 -24 q 310 -116 276 -85 q 397 -146 345 -146 q 468 -123 441 -146 q 494 -66 494 -100 q 469 -9 494 -35 q 289 114 444 16 q 87 278 134 213 q 40 424 40 343 q 71 547 40 490 q 165 641 101 604 q 114 715 132 677 q 97 793 97 753 q 169 948 97 884 q 370 1011 240 1011 q 579 948 503 1011 q 669 783 655 884 m 498 199 q 543 251 528 226 q 557 298 557 275 q 542 345 557 321 q 456 419 526 368 l 271 553 q 231 515 248 540 q 213 461 213 490 q 304 331 213 393 l 498 199 z "},"•":{"ha":486,"x_min":45,"x_max":446,"o":"m 446 491 q 387 349 446 408 q 245 290 328 290 q 103 349 162 290 q 45 491 45 408 q 103 632 45 574 q 245 691 162 691 q 387 633 328 691 q 446 491 446 574 z "},"¶":{"ha":772,"x_min":-1,"x_max":766,"o":"m 431 -273 l 266 -273 l 266 437 q 68 519 137 446 q -1 713 -1 593 q 26 844 -1 785 q 101 938 54 903 q 212 986 149 972 q 361 994 250 994 l 766 994 l 766 817 l 689 817 l 689 -273 l 528 -273 l 528 817 l 431 817 l 431 -273 z "},"ß":{"ha":848,"x_min":94,"x_max":800,"o":"m 94 0 l 94 646 q 118 852 94 781 q 212 967 142 922 q 391 1011 281 1011 q 598 952 530 1011 q 667 806 667 893 q 630 679 667 747 q 587 597 593 612 q 582 571 582 582 q 599 524 582 549 q 680 437 610 509 q 775 317 751 366 q 800 214 800 267 q 731 50 800 116 q 559 -16 663 -16 q 428 21 487 -16 q 339 112 369 58 l 472 190 q 504 150 486 163 q 543 136 522 136 q 590 156 570 136 q 609 206 609 176 q 589 262 609 234 q 495 357 577 279 q 380 530 380 467 q 425 661 380 570 q 465 751 459 732 q 471 790 471 770 q 449 841 471 820 q 389 862 427 862 q 331 844 355 862 q 297 799 306 827 q 285 646 285 762 l 285 0 l 94 0 z "},"®":{"ha":1023,"x_min":-6,"x_max":1033,"o":"m 513 1015 q 770 948 647 1015 q 963 756 892 881 q 1033 495 1033 631 q 964 236 1033 359 q 772 44 895 113 q 513 -24 649 -24 q 255 44 378 -24 q 63 236 132 113 q -6 495 -6 359 q 64 756 -6 631 q 257 948 134 881 q 513 1015 380 1015 m 514 913 q 309 859 407 913 q 154 705 210 806 q 97 495 97 605 q 152 287 97 386 q 307 132 208 188 q 514 77 406 77 q 722 132 623 77 q 876 287 821 188 q 932 495 932 386 q 875 705 932 605 q 720 859 819 806 q 514 913 621 913 m 279 217 l 279 768 l 391 768 q 567 767 548 768 q 653 745 623 762 q 705 692 684 728 q 726 613 726 656 q 687 511 726 553 q 577 458 648 469 q 616 438 602 449 q 653 395 629 427 q 694 328 659 387 l 759 217 l 621 217 l 574 307 q 497 420 528 397 q 420 444 467 444 l 391 444 l 391 217 l 279 217 m 391 530 l 436 530 q 556 538 533 530 q 593 564 580 545 q 607 606 607 583 q 594 647 607 629 q 556 673 581 665 q 436 681 532 681 l 391 681 l 391 530 z "},"©":{"ha":1023,"x_min":-6,"x_max":1033,"o":"m 513 1015 q 770 947 647 1015 q 963 756 892 880 q 1033 495 1033 631 q 964 236 1033 359 q 772 44 895 113 q 513 -24 649 -24 q 255 44 378 -24 q 63 236 132 113 q -6 495 -6 359 q 64 756 -6 631 q 257 947 134 880 q 513 1015 380 1015 m 513 912 q 308 859 406 912 q 153 705 209 805 q 96 495 96 605 q 152 288 96 387 q 306 133 207 189 q 513 78 405 78 q 721 133 622 78 q 875 288 820 189 q 930 495 930 387 q 874 705 930 604 q 719 859 818 805 q 513 912 621 912 m 640 418 l 749 381 q 663 250 723 296 q 521 205 604 205 q 332 281 405 205 q 258 490 258 357 q 291 646 258 578 q 385 749 323 715 q 522 783 446 783 q 662 743 606 783 q 749 618 718 703 l 639 592 q 590 664 620 642 q 518 686 559 686 q 417 640 456 686 q 378 494 378 593 q 416 349 378 395 q 509 302 455 302 q 588 329 555 302 q 640 418 621 355 z "},"™":{"ha":1389,"x_min":146,"x_max":1219,"o":"m 318 439 l 318 898 l 146 898 l 146 994 l 597 994 l 597 898 l 431 898 l 431 439 l 318 439 m 665 439 l 665 994 l 840 994 l 941 612 l 1043 994 l 1219 994 l 1219 439 l 1112 439 l 1112 882 l 991 439 l 890 439 l 770 882 l 770 439 l 665 439 z "},"´":{"ha":463,"x_min":127,"x_max":434,"o":"m 127 808 l 220 1011 l 434 1011 l 248 808 l 127 808 z "},"¨":{"ha":463,"x_min":3,"x_max":459,"o":"m 3 848 l 3 1011 l 167 1011 l 167 848 l 3 848 m 295 848 l 295 1011 l 459 1011 l 459 848 l 295 848 z "},"≠":{"ha":762,"x_min":33,"x_max":728,"o":"m 286 428 l 332 553 l 33 553 l 33 728 l 397 728 l 498 998 l 641 998 l 541 728 l 728 728 l 728 553 l 475 553 l 428 428 l 728 428 l 728 252 l 362 252 l 261 -17 l 121 -17 l 221 252 l 33 252 l 33 428 l 286 428 z "},"Æ":{"ha":1389,"x_min":-58,"x_max":1322,"o":"m -58 0 l 406 994 l 1303 994 l 1303 826 l 811 826 l 811 605 l 1265 605 l 1265 437 l 811 437 l 811 168 l 1322 168 l 1322 0 l 610 0 l 610 234 l 266 234 l 164 0 l -58 0 m 340 408 l 612 408 l 612 844 l 534 844 l 340 408 z "},"Ø":{"ha":1080,"x_min":43,"x_max":1042,"o":"m 840 922 l 947 1042 l 1042 959 l 928 831 q 999 681 974 770 q 1024 492 1024 592 q 893 119 1024 255 q 547 -17 762 -17 q 249 68 361 -17 l 139 -56 l 43 28 l 159 159 q 60 503 60 291 q 191 875 60 739 q 540 1011 321 1011 q 840 922 721 1011 m 715 782 q 542 840 647 840 q 342 755 418 840 q 267 498 267 670 q 298 314 267 391 l 715 782 m 789 675 l 372 207 q 541 146 442 146 q 739 233 661 146 q 817 494 817 321 q 789 675 817 604 z "},"∞":{"ha":990,"x_min":103,"x_max":889,"o":"m 462 572 q 564 690 512 654 q 681 726 616 726 q 830 663 770 726 q 889 490 889 600 q 830 316 889 380 q 681 253 770 253 q 565 289 617 253 q 462 408 513 325 q 368 321 421 351 q 267 291 315 291 q 151 344 199 291 q 103 490 103 397 q 151 635 103 582 q 267 688 199 688 q 368 658 315 688 q 462 572 421 628 m 525 491 q 605 384 582 404 q 683 353 641 353 q 762 393 734 353 q 790 492 790 433 q 760 591 790 556 q 685 627 729 627 q 615 602 650 627 q 525 491 581 578 m 404 492 q 275 588 336 588 q 221 563 243 588 q 198 493 198 538 q 220 421 198 447 q 275 395 243 395 q 322 410 301 395 q 404 492 359 434 z "},"±":{"ha":762,"x_min":34,"x_max":729,"o":"m 294 241 l 294 500 l 34 500 l 34 678 l 294 678 l 294 937 l 468 937 l 468 678 l 729 678 l 729 500 l 468 500 l 468 241 l 294 241 m 34 0 l 34 178 l 729 178 l 729 0 l 34 0 z "},"≤":{"ha":762,"x_min":41,"x_max":722,"o":"m 722 228 l 41 524 l 41 688 l 722 983 l 722 790 l 247 608 l 722 419 l 722 228 m 41 0 l 41 178 l 722 178 l 722 0 l 41 0 z "},"≥":{"ha":762,"x_min":41,"x_max":722,"o":"m 41 229 l 41 420 l 517 608 l 41 793 l 41 983 l 722 689 l 722 526 l 41 229 m 41 0 l 41 178 l 722 178 l 722 0 l 41 0 z "},"¥":{"ha":772,"x_min":1,"x_max":766,"o":"m 286 185 l 35 185 l 35 335 l 286 335 l 286 416 l 35 416 l 35 566 l 212 566 l 1 994 l 210 994 l 345 705 q 382 610 371 651 q 418 705 395 654 l 557 994 l 766 994 l 552 566 l 732 566 l 732 416 l 477 416 l 477 335 l 732 335 l 732 185 l 477 185 l 477 0 l 286 0 l 286 185 z "},"µ":{"ha":800,"x_min":75,"x_max":730,"o":"m 75 720 l 264 720 l 264 394 q 293 202 264 253 q 399 136 329 136 q 471 161 437 136 q 522 229 505 185 q 538 392 538 272 l 538 720 l 730 720 l 730 0 l 553 0 l 553 87 q 514 30 532 49 q 465 -3 496 11 q 408 -18 434 -18 q 323 9 360 -18 q 264 87 296 28 l 264 -276 l 75 -276 l 75 720 z "},"∂":{"ha":686,"x_min":27,"x_max":660,"o":"m 254 762 l 161 819 q 263 963 197 915 q 412 1011 330 1011 q 571 943 511 1011 q 660 640 660 845 q 604 296 660 463 q 448 57 547 130 q 238 -17 348 -17 q 86 45 144 -17 q 27 223 27 108 q 86 429 27 330 q 267 585 145 527 q 557 639 388 642 q 507 840 557 774 q 409 888 471 888 q 327 861 362 888 q 254 762 292 834 m 549 514 q 519 515 530 515 q 346 477 427 515 q 224 370 266 439 q 182 229 182 300 q 211 144 182 176 q 278 112 239 112 q 425 190 359 112 q 549 514 521 302 z "},"∑":{"ha":990,"x_min":83,"x_max":940,"o":"m 94 1011 l 933 1011 l 933 900 l 263 900 l 675 374 l 235 -183 l 940 -183 l 940 -292 l 83 -292 l 83 -165 l 503 369 l 94 892 l 94 1011 z "},"∏":{"ha":1143,"x_min":109,"x_max":1033,"o":"m 109 1011 l 1033 1011 l 1033 -292 l 903 -292 l 903 893 l 240 893 l 240 -292 l 109 -292 l 109 1011 z "},"∫":{"ha":380,"x_min":0,"x_max":380,"o":"m 136 643 l 148 1003 q 182 1175 154 1107 q 232 1241 200 1219 q 295 1263 264 1263 q 354 1241 329 1263 q 380 1191 380 1218 q 362 1140 380 1159 q 317 1120 344 1120 q 266 1145 294 1120 q 239 1158 250 1158 q 219 1148 227 1158 q 212 1115 212 1139 q 218 1017 212 1086 q 243 566 243 739 q 232 167 243 520 q 171 -104 227 -33 q 80 -149 134 -149 q 22 -126 45 -149 q 0 -67 0 -103 q 17 -18 0 -37 q 61 0 35 0 q 108 -22 88 0 q 141 -43 127 -43 q 160 -34 153 -43 q 168 -2 168 -24 q 161 79 168 26 q 136 643 136 293 z "},"ª":{"ha":514,"x_min":25,"x_max":480,"o":"m 172 849 l 44 875 q 107 977 60 942 q 250 1011 154 1011 q 400 985 349 1011 q 450 924 433 968 q 460 820 460 897 l 460 658 q 464 563 460 587 q 480 516 469 539 l 351 516 q 336 564 342 534 q 189 504 276 504 q 68 545 112 504 q 25 650 25 586 q 46 728 25 696 q 109 779 68 760 q 237 810 140 791 q 321 833 290 821 q 321 847 321 842 q 309 890 320 880 q 252 905 292 905 q 199 893 217 905 q 172 849 186 884 m 321 743 q 279 728 307 734 q 193 705 206 713 q 165 661 165 688 q 184 623 165 640 q 231 606 202 606 q 296 634 271 606 q 321 715 321 662 l 321 743 z "},"º":{"ha":507,"x_min":18,"x_max":488,"o":"m 18 756 q 82 944 18 877 q 253 1011 146 1011 q 424 944 359 1011 q 488 756 488 876 q 424 569 488 636 q 253 502 360 502 q 82 569 146 502 q 18 756 18 635 m 161 755 q 186 649 161 680 q 251 617 211 617 q 316 649 291 617 q 342 755 342 680 q 316 861 342 829 q 251 892 291 892 q 186 861 211 892 q 161 755 161 830 z "},"Ω":{"ha":1067,"x_min":37,"x_max":1038,"o":"m 313 140 q 188 216 235 173 q 86 362 119 277 q 52 550 52 448 q 182 890 52 760 q 527 1019 312 1019 q 791 966 685 1019 q 961 800 897 912 q 1024 551 1024 688 q 961 307 1024 414 q 765 141 897 199 l 989 157 l 1038 157 l 1038 0 l 602 0 l 602 165 q 706 236 668 197 q 784 368 758 290 q 810 532 810 446 q 732 785 810 699 q 534 871 654 871 q 341 783 418 871 q 263 535 263 695 q 293 363 263 443 q 377 229 322 284 q 475 165 412 194 l 475 0 l 37 0 l 37 156 l 104 156 l 313 140 z "},"æ":{"ha":1235,"x_min":60,"x_max":1170,"o":"m 974 230 l 1160 197 q 1043 37 1122 90 q 842 -16 964 -16 q 702 8 766 -16 q 585 83 637 33 q 461 13 537 41 q 304 -16 385 -16 q 124 44 189 -16 q 60 195 60 104 q 82 293 60 250 q 137 360 105 336 q 227 401 170 384 q 389 438 254 410 q 503 468 456 452 l 503 487 q 475 565 503 539 q 385 591 446 591 q 298 569 330 591 q 253 500 267 547 l 80 534 q 187 687 114 638 q 409 736 260 736 q 535 720 479 736 q 629 670 590 703 q 720 720 671 703 q 825 736 769 736 q 1009 691 934 736 q 1127 556 1084 645 q 1169 304 1170 467 l 690 304 q 742 170 702 212 q 840 129 782 129 q 922 154 888 129 q 974 230 956 178 m 981 423 q 965 509 977 483 q 914 569 948 547 q 833 591 880 591 q 763 572 793 591 q 715 516 733 553 q 694 423 692 467 l 981 423 m 502 345 q 332 298 345 303 q 268 262 286 283 q 250 213 250 241 q 280 146 250 174 q 357 118 309 118 q 451 150 407 118 q 493 209 484 174 q 502 345 502 245 z "},"ø":{"ha":848,"x_min":59,"x_max":802,"o":"m 642 677 l 712 759 l 788 696 l 715 612 q 779 498 755 564 q 802 359 802 432 q 696 91 802 198 q 429 -16 589 -16 q 220 41 312 -16 l 142 -50 l 68 15 l 146 106 q 82 224 106 155 q 59 364 59 292 q 163 632 59 527 q 430 736 267 736 q 642 677 551 736 m 534 554 q 431 591 489 591 q 301 532 355 591 q 248 366 248 473 q 267 245 248 299 l 534 554 m 593 471 l 327 164 q 429 132 372 132 q 560 190 507 132 q 613 355 613 249 q 593 471 613 418 z "},"¿":{"ha":848,"x_min":68,"x_max":783,"o":"m 517 720 l 517 530 l 327 530 l 327 720 l 517 720 m 345 464 l 517 464 q 519 412 519 419 q 489 279 519 335 q 374 153 460 223 q 271 56 288 83 q 254 -7 254 28 q 299 -99 254 -60 q 419 -139 344 -139 q 540 -99 492 -139 q 608 28 588 -58 l 783 6 q 734 -135 771 -79 q 604 -248 684 -212 q 427 -285 524 -285 q 166 -199 263 -285 q 68 -1 68 -113 q 86 84 68 43 q 140 166 103 125 q 258 274 177 208 q 331 353 317 321 q 345 464 346 385 z "},"¡":{"ha":463,"x_min":132,"x_max":338,"o":"m 331 720 l 331 530 l 140 530 l 140 720 l 331 720 m 289 460 l 338 -43 l 338 -276 l 132 -276 l 132 -43 l 182 460 l 289 460 z "},"¬":{"ha":811,"x_min":58,"x_max":753,"o":"m 578 255 l 578 554 l 58 554 l 58 728 l 753 728 l 753 255 l 578 255 z "},"√":{"ha":762,"x_min":59,"x_max":764,"o":"m 714 1267 l 764 1267 l 553 -53 l 216 640 l 82 578 l 59 621 l 263 724 l 538 165 l 714 1267 z "},"ƒ":{"ha":772,"x_min":-14,"x_max":774,"o":"m 187 577 l 212 720 l 349 720 l 359 781 q 392 913 378 884 q 452 981 414 958 q 593 1011 502 1011 q 774 983 685 1011 l 738 830 q 631 849 674 849 q 576 833 594 849 q 547 758 559 817 l 540 720 l 681 720 l 656 577 l 517 577 l 399 -86 q 364 -206 386 -167 q 298 -269 342 -245 q 176 -292 254 -292 q -14 -265 71 -292 l 25 -115 q 138 -131 99 -131 q 197 -105 180 -131 q 222 -15 211 -85 l 324 577 l 187 577 z "},"≈":{"ha":762,"x_min":21,"x_max":741,"o":"m 21 516 l 21 691 q 222 785 107 785 q 300 776 264 785 q 413 737 336 768 q 514 699 490 706 q 556 692 538 692 q 644 716 594 692 q 741 791 694 739 l 741 608 q 654 546 710 575 q 538 517 598 517 q 472 526 505 517 q 370 564 440 534 q 206 610 266 610 q 21 516 111 610 m 21 187 l 21 363 q 222 456 107 456 q 300 447 264 456 q 413 408 336 439 q 514 371 490 378 q 556 364 538 364 q 644 388 594 364 q 741 462 694 411 l 741 279 q 654 217 710 246 q 538 189 598 189 q 472 197 505 189 q 370 236 440 205 q 206 281 266 281 q 21 187 111 281 z "},"∆":{"ha":850,"x_min":20,"x_max":833,"o":"m 833 0 l 20 0 l 446 941 l 833 0 m 673 56 l 403 711 l 104 56 l 673 56 z "},"«":{"ha":772,"x_min":65,"x_max":695,"o":"m 429 667 l 253 361 l 429 47 l 279 47 l 65 361 l 279 667 l 429 667 m 695 667 l 519 361 l 695 47 l 545 47 l 331 361 l 545 667 l 695 667 z "},"»":{"ha":772,"x_min":72,"x_max":702,"o":"m 338 47 l 514 354 l 338 667 l 488 667 l 702 354 l 488 47 l 338 47 m 72 47 l 248 354 l 72 667 l 222 667 l 436 354 l 222 47 l 72 47 z "},"…":{"ha":1389,"x_min":136,"x_max":1253,"o":"m 1062 0 l 1062 191 l 1253 191 l 1253 0 l 1062 0 m 600 0 l 600 191 l 790 191 l 790 0 l 600 0 m 136 0 l 136 191 l 327 191 l 327 0 l 136 0 z "},"À":{"ha":1003,"x_min":0,"x_max":998,"o":"m 998 0 l 779 0 l 692 226 l 295 226 l 213 0 l 0 0 l 387 994 l 600 994 l 998 0 m 628 393 l 491 762 l 357 393 l 628 393 m 604 1051 l 484 1051 l 297 1254 l 511 1254 l 604 1051 z "},"Ã":{"ha":1003,"x_min":0,"x_max":998,"o":"m 998 0 l 779 0 l 692 226 l 295 226 l 213 0 l 0 0 l 387 994 l 600 994 l 998 0 m 628 393 l 491 762 l 357 393 l 628 393 m 336 1049 l 249 1049 q 248 1074 248 1065 q 283 1183 248 1145 q 372 1221 317 1221 q 416 1216 395 1221 q 490 1187 436 1211 q 574 1163 544 1163 q 611 1177 596 1163 q 629 1222 625 1190 l 718 1222 q 683 1091 717 1131 q 597 1052 650 1052 q 551 1057 574 1052 q 473 1084 536 1061 q 382 1108 411 1108 q 349 1095 361 1108 q 336 1049 336 1082 z "},"Õ":{"ha":1080,"x_min":60,"x_max":1025,"o":"m 60 491 q 106 746 60 643 q 198 882 140 822 q 327 972 257 943 q 541 1011 420 1011 q 893 875 761 1011 q 1025 496 1025 739 q 894 119 1025 255 q 544 -17 763 -17 q 191 118 322 -17 q 60 491 60 254 m 267 498 q 345 242 267 329 q 543 155 423 155 q 740 241 663 155 q 817 500 817 328 q 742 755 817 671 q 543 840 667 840 q 343 754 419 840 q 267 498 267 669 m 379 1049 l 292 1049 q 292 1074 292 1065 q 326 1183 292 1145 q 415 1221 361 1221 q 459 1216 439 1221 q 533 1187 479 1211 q 618 1163 587 1163 q 654 1177 640 1163 q 673 1222 669 1190 l 761 1222 q 727 1091 760 1131 q 640 1052 693 1052 q 595 1057 617 1052 q 517 1084 579 1061 q 426 1108 454 1108 q 392 1095 404 1108 q 379 1049 380 1082 z "},"Œ":{"ha":1389,"x_min":49,"x_max":1346,"o":"m 1346 169 l 1346 0 l 707 0 l 707 117 q 446 -17 629 -17 q 170 98 269 -17 q 49 498 49 239 q 168 892 49 755 q 437 1011 269 1011 q 592 977 522 1011 q 707 884 663 942 l 707 994 l 1327 994 l 1327 826 l 881 826 l 881 605 l 1289 605 l 1289 437 l 881 437 l 881 169 l 1346 169 m 475 840 q 315 766 375 840 q 256 513 256 692 q 323 225 256 312 q 475 159 374 159 q 647 253 598 159 q 695 509 695 346 q 636 766 695 692 q 475 840 576 840 z "},"œ":{"ha":1311,"x_min":60,"x_max":1255,"o":"m 1059 231 l 1245 201 q 1130 41 1212 99 q 931 -16 1048 -16 q 795 8 863 -16 q 677 84 728 33 q 561 9 624 34 q 425 -16 498 -16 q 163 89 267 -16 q 60 359 60 195 q 104 551 60 460 q 235 690 149 643 q 428 736 321 736 q 566 711 503 736 q 680 636 629 686 q 786 711 726 686 q 920 736 846 736 q 1046 713 988 736 q 1142 655 1104 690 q 1205 569 1179 621 q 1243 451 1232 517 q 1254 304 1255 386 l 780 304 q 828 173 787 216 q 932 129 869 129 q 1008 153 977 129 q 1059 231 1040 176 m 1071 423 q 1025 554 1065 511 q 923 596 984 596 q 817 542 856 596 q 782 423 789 504 l 1071 423 m 256 349 q 299 209 256 277 q 426 142 342 142 q 544 198 496 142 q 592 366 592 254 q 544 524 592 469 q 426 578 496 578 q 303 522 351 578 q 256 349 256 466 z "},"–":{"ha":772,"x_min":-3,"x_max":770,"o":"m -3 289 l -3 431 l 770 431 l 770 289 l -3 289 z "},"—":{"ha":1389,"x_min":0,"x_max":1389,"o":"m 0 289 l 0 431 l 1389 431 l 1389 289 l 0 289 z "},"“":{"ha":694,"x_min":90,"x_max":614,"o":"m 280 591 l 90 591 l 90 728 q 104 858 90 810 q 158 944 119 906 q 258 1004 197 982 l 296 925 q 214 872 239 906 q 188 782 189 838 l 280 782 l 280 591 m 598 591 l 408 591 l 408 728 q 422 859 408 811 q 476 944 437 906 q 576 1004 516 982 l 614 925 q 532 872 557 906 q 506 782 507 838 l 598 782 l 598 591 z "},"”":{"ha":694,"x_min":71,"x_max":597,"o":"m 407 994 l 597 994 l 597 857 q 583 727 597 774 q 529 641 568 680 q 429 581 489 603 l 391 661 q 473 713 448 680 q 498 804 498 747 l 407 804 l 407 994 m 87 994 l 277 994 l 277 857 q 263 727 277 774 q 209 641 249 680 q 109 581 170 603 l 71 661 q 153 713 129 680 q 179 804 178 747 l 87 804 l 87 994 z "},"‘":{"ha":386,"x_min":103,"x_max":309,"o":"m 294 591 l 103 591 l 103 728 q 118 858 103 810 q 172 944 132 906 q 272 1004 211 982 l 309 925 q 228 872 252 906 q 201 782 203 838 l 294 782 l 294 591 z "},"’":{"ha":386,"x_min":79,"x_max":286,"o":"m 95 991 l 286 991 l 286 855 q 271 725 286 772 q 217 639 257 677 q 117 579 178 601 l 79 658 q 161 710 137 677 q 187 801 186 743 l 95 801 l 95 991 z "},"÷":{"ha":762,"x_min":33,"x_max":728,"o":"m 286 665 l 286 856 l 476 856 l 476 665 l 286 665 m 33 401 l 33 580 l 728 580 l 728 401 l 33 401 m 286 125 l 286 316 l 476 316 l 476 125 l 286 125 z "},"◊":{"ha":686,"x_min":32,"x_max":656,"o":"m 372 964 l 656 481 l 372 0 l 297 0 l 32 481 l 297 964 l 372 964 m 336 899 l 105 481 l 336 64 l 579 481 l 336 899 z "},"ÿ":{"ha":772,"x_min":9,"x_max":750,"o":"m 9 720 l 212 720 l 385 209 l 553 720 l 750 720 l 496 27 l 450 -98 q 402 -195 425 -161 q 350 -249 380 -228 q 278 -281 321 -269 q 180 -292 235 -292 q 73 -281 125 -292 l 56 -132 q 136 -140 100 -140 q 235 -101 203 -140 q 283 -2 267 -62 l 9 720 m 156 848 l 156 1011 l 319 1011 l 319 848 l 156 848 m 448 848 l 448 1011 l 612 1011 l 612 848 l 448 848 z "},"Ÿ":{"ha":926,"x_min":-2,"x_max":928,"o":"m 362 0 l 362 418 l -2 994 l 233 994 l 467 601 l 696 994 l 928 994 l 562 417 l 562 0 l 362 0 m 237 1051 l 237 1215 l 401 1215 l 401 1051 l 237 1051 m 529 1051 l 529 1215 l 693 1215 l 693 1051 l 529 1051 z "},"⁄":{"ha":232,"x_min":-233,"x_max":465,"o":"m -125 -37 l -233 -37 l 357 1006 l 465 1006 l -125 -37 z "},"€":{"ha":772,"x_min":-22,"x_max":729,"o":"m 729 970 l 689 782 q 521 840 631 840 q 342 760 410 840 q 287 648 303 715 l 660 648 l 638 543 l 273 543 q 273 503 273 528 q 274 454 273 479 l 619 454 l 597 349 l 288 349 q 340 235 305 276 q 517 155 408 155 q 724 235 647 155 l 724 27 q 519 -17 636 -17 q 193 119 321 -17 q 79 349 106 211 l -22 349 l 0 454 l 66 454 q 66 488 66 470 q 67 543 66 519 l -22 543 l 0 648 l 81 648 q 194 874 109 783 q 531 1011 322 1011 q 729 970 645 1011 z "},"‹":{"ha":463,"x_min":51,"x_max":415,"o":"m 415 667 l 239 361 l 415 47 l 265 47 l 51 361 l 265 667 l 415 667 z "},"›":{"ha":463,"x_min":51,"x_max":415,"o":"m 51 47 l 227 354 l 51 667 l 201 667 l 415 354 l 201 47 l 51 47 z "},"":{"ha":848,"x_min":21,"x_max":747,"o":"m 21 720 l 127 720 l 127 774 q 146 910 127 865 q 217 983 165 955 q 349 1011 269 1011 q 508 987 430 1011 l 482 854 q 395 865 437 865 q 335 845 353 865 q 317 771 317 826 l 317 720 l 460 720 l 460 570 l 317 570 l 317 0 l 127 0 l 127 570 l 21 570 l 21 720 m 556 818 l 556 994 l 747 994 l 747 818 l 556 818 m 556 0 l 556 720 l 747 720 l 747 0 l 556 0 z "},"":{"ha":848,"x_min":21,"x_max":747,"o":"m 21 720 l 127 720 l 127 774 q 146 910 127 865 q 217 983 165 955 q 349 1011 269 1011 q 508 987 430 1011 l 482 854 q 395 865 437 865 q 335 845 353 865 q 317 771 317 826 l 317 720 l 460 720 l 460 570 l 317 570 l 317 0 l 127 0 l 127 570 l 21 570 l 21 720 m 556 0 l 556 994 l 747 994 l 747 0 l 556 0 z "},"‡":{"ha":772,"x_min":46,"x_max":718,"o":"m 296 -237 l 296 -12 l 46 -12 l 46 146 l 296 146 l 296 591 l 46 591 l 46 749 l 296 749 l 296 982 l 473 982 l 473 749 l 718 749 l 718 591 l 473 591 l 473 146 l 718 146 l 718 -12 l 473 -12 l 473 -237 l 296 -237 z "},"·":{"ha":386,"x_min":100,"x_max":290,"o":"m 100 389 l 100 579 l 290 579 l 290 389 l 100 389 z "},"‚":{"ha":386,"x_min":79,"x_max":286,"o":"m 95 191 l 286 191 l 286 54 q 271 -76 286 -28 q 217 -162 257 -124 q 117 -222 178 -200 l 79 -143 q 161 -91 137 -124 q 187 0 186 -58 l 95 0 l 95 191 z "},"„":{"ha":694,"x_min":71,"x_max":597,"o":"m 407 191 l 597 191 l 597 54 q 583 -77 597 -29 q 529 -162 568 -124 q 429 -222 489 -201 l 391 -143 q 473 -90 448 -124 q 498 0 498 -56 l 407 0 l 407 191 m 87 191 l 277 191 l 277 54 q 263 -77 277 -29 q 209 -162 249 -124 q 109 -222 170 -201 l 71 -143 q 153 -90 129 -124 q 179 0 178 -56 l 87 0 l 87 191 z "},"‰":{"ha":1389,"x_min":1,"x_max":1388,"o":"m 1 759 q 56 948 1 885 q 197 1011 111 1011 q 338 949 283 1011 q 393 758 393 886 q 338 554 393 617 q 196 490 284 490 q 54 552 107 490 q 1 759 1 614 m 133 751 q 143 644 133 680 q 164 607 151 618 q 195 596 178 596 q 227 607 213 596 q 248 644 240 618 q 258 751 258 680 q 248 858 258 822 q 227 895 240 884 q 195 905 213 905 q 165 895 178 905 q 143 858 151 884 q 133 751 133 822 m 190 -35 l 606 1011 l 739 1011 l 323 -35 l 190 -35 m 542 229 q 597 418 542 355 q 739 481 652 481 q 879 419 825 481 q 933 229 933 357 q 879 24 933 87 q 737 -40 825 -40 q 595 22 648 -40 q 542 229 542 84 m 673 221 q 684 114 673 150 q 706 77 692 88 q 736 66 720 66 q 767 77 753 66 q 789 114 781 87 q 800 221 800 150 q 789 328 800 292 q 767 365 781 354 q 736 376 753 376 q 706 365 720 376 q 684 328 692 354 q 673 221 673 292 m 996 229 q 1051 418 996 355 q 1193 481 1106 481 q 1334 419 1279 481 q 1388 229 1388 357 q 1334 24 1388 87 q 1192 -40 1280 -40 q 1049 22 1103 -40 q 996 229 996 84 m 1128 221 q 1131 138 1128 153 q 1153 83 1137 100 q 1190 66 1169 66 q 1221 77 1207 66 q 1244 113 1236 88 q 1254 221 1254 150 q 1244 328 1254 292 q 1222 365 1236 354 q 1192 376 1208 376 q 1160 365 1174 376 q 1139 328 1147 354 q 1128 221 1128 292 z "},"Â":{"ha":1003,"x_min":0,"x_max":998,"o":"m 998 0 l 779 0 l 692 226 l 295 226 l 213 0 l 0 0 l 387 994 l 600 994 l 998 0 m 628 393 l 491 762 l 357 393 l 628 393 m 262 1051 l 404 1251 l 581 1251 l 721 1051 l 568 1051 l 489 1152 l 416 1051 l 262 1051 z "},"Ê":{"ha":926,"x_min":101,"x_max":857,"o":"m 101 0 l 101 994 l 838 994 l 838 826 l 302 826 l 302 606 l 801 606 l 801 438 l 302 438 l 302 168 l 857 168 l 857 0 l 101 0 m 229 1051 l 371 1251 l 547 1251 l 688 1051 l 534 1051 l 456 1152 l 382 1051 l 229 1051 z "},"Á":{"ha":1003,"x_min":0,"x_max":998,"o":"m 998 0 l 779 0 l 692 226 l 295 226 l 213 0 l 0 0 l 387 994 l 600 994 l 998 0 m 628 393 l 491 762 l 357 393 l 628 393 m 376 1051 l 469 1254 l 683 1254 l 496 1051 l 376 1051 z "},"Ë":{"ha":926,"x_min":101,"x_max":857,"o":"m 101 0 l 101 994 l 838 994 l 838 826 l 302 826 l 302 606 l 801 606 l 801 438 l 302 438 l 302 168 l 857 168 l 857 0 l 101 0 m 240 1051 l 240 1215 l 404 1215 l 404 1051 l 240 1051 m 532 1051 l 532 1215 l 696 1215 l 696 1051 l 532 1051 z "},"È":{"ha":926,"x_min":101,"x_max":857,"o":"m 101 0 l 101 994 l 838 994 l 838 826 l 302 826 l 302 606 l 801 606 l 801 438 l 302 438 l 302 168 l 857 168 l 857 0 l 101 0 m 585 1051 l 465 1051 l 277 1254 l 491 1254 l 585 1051 z "},"Í":{"ha":386,"x_min":72,"x_max":379,"o":"m 95 0 l 95 994 l 296 994 l 296 0 l 95 0 m 72 1051 l 165 1254 l 379 1254 l 193 1051 l 72 1051 z "},"Î":{"ha":386,"x_min":-28,"x_max":431,"o":"m 95 0 l 95 994 l 296 994 l 296 0 l 95 0 m -28 1051 l 114 1251 l 290 1251 l 431 1051 l 277 1051 l 199 1152 l 125 1051 l -28 1051 z "},"Ï":{"ha":386,"x_min":-31,"x_max":425,"o":"m 95 0 l 95 994 l 296 994 l 296 0 l 95 0 m -31 1051 l -31 1215 l 133 1215 l 133 1051 l -31 1051 m 261 1051 l 261 1215 l 425 1215 l 425 1051 l 261 1051 z "},"Ì":{"ha":386,"x_min":-7,"x_max":300,"o":"m 95 0 l 95 994 l 296 994 l 296 0 l 95 0 m 300 1051 l 180 1051 l -7 1254 l 207 1254 l 300 1051 z "},"Ó":{"ha":1080,"x_min":60,"x_max":1025,"o":"m 60 491 q 106 746 60 643 q 198 882 140 822 q 327 972 257 943 q 541 1011 420 1011 q 893 875 761 1011 q 1025 496 1025 739 q 894 119 1025 255 q 544 -17 763 -17 q 191 118 322 -17 q 60 491 60 254 m 267 498 q 345 242 267 329 q 543 155 423 155 q 740 241 663 155 q 817 500 817 328 q 742 755 817 671 q 543 840 667 840 q 343 754 419 840 q 267 498 267 669 m 419 1051 l 513 1254 l 726 1254 l 540 1051 l 419 1051 z "},"Ô":{"ha":1080,"x_min":60,"x_max":1025,"o":"m 60 491 q 106 746 60 643 q 198 882 140 822 q 327 972 257 943 q 541 1011 420 1011 q 893 875 761 1011 q 1025 496 1025 739 q 894 119 1025 255 q 544 -17 763 -17 q 191 118 322 -17 q 60 491 60 254 m 267 498 q 345 242 267 329 q 543 155 423 155 q 740 241 663 155 q 817 500 817 328 q 742 755 817 671 q 543 840 667 840 q 343 754 419 840 q 267 498 267 669 m 305 1051 l 448 1251 l 624 1251 l 764 1051 l 611 1051 l 532 1152 l 459 1051 l 305 1051 z "},"Ò":{"ha":1080,"x_min":60,"x_max":1025,"o":"m 60 491 q 106 746 60 643 q 198 882 140 822 q 327 972 257 943 q 541 1011 420 1011 q 893 875 761 1011 q 1025 496 1025 739 q 894 119 1025 255 q 544 -17 763 -17 q 191 118 322 -17 q 60 491 60 254 m 267 498 q 345 242 267 329 q 543 155 423 155 q 740 241 663 155 q 817 500 817 328 q 742 755 817 671 q 543 840 667 840 q 343 754 419 840 q 267 498 267 669 m 648 1051 l 528 1051 l 340 1254 l 554 1254 l 648 1051 z "},"Ú":{"ha":1003,"x_min":100,"x_max":892,"o":"m 100 994 l 300 994 l 300 456 q 308 290 300 328 q 369 192 321 229 q 502 155 418 155 q 631 190 587 155 q 683 275 674 224 q 692 444 692 326 l 692 994 l 892 994 l 892 472 q 876 219 892 293 q 816 94 860 145 q 699 13 772 43 q 508 -17 626 -17 q 292 16 366 -17 q 176 101 218 49 q 119 212 133 154 q 100 464 100 297 l 100 994 m 373 1051 l 467 1254 l 680 1254 l 494 1051 l 373 1051 z "},"Û":{"ha":1003,"x_min":100,"x_max":892,"o":"m 100 994 l 300 994 l 300 456 q 308 290 300 328 q 369 192 321 229 q 502 155 418 155 q 631 190 587 155 q 683 275 674 224 q 692 444 692 326 l 692 994 l 892 994 l 892 472 q 876 219 892 293 q 816 94 860 145 q 699 13 772 43 q 508 -17 626 -17 q 292 16 366 -17 q 176 101 218 49 q 119 212 133 154 q 100 464 100 297 l 100 994 m 273 1051 l 415 1251 l 591 1251 l 732 1051 l 578 1051 l 500 1152 l 427 1051 l 273 1051 z "},"Ù":{"ha":1003,"x_min":100,"x_max":892,"o":"m 100 994 l 300 994 l 300 456 q 308 290 300 328 q 369 192 321 229 q 502 155 418 155 q 631 190 587 155 q 683 275 674 224 q 692 444 692 326 l 692 994 l 892 994 l 892 472 q 876 219 892 293 q 816 94 860 145 q 699 13 772 43 q 508 -17 626 -17 q 292 16 366 -17 q 176 101 218 49 q 119 212 133 154 q 100 464 100 297 l 100 994 m 602 1051 l 481 1051 l 294 1254 l 508 1254 l 602 1051 z "},"ı":{"ha":386,"x_min":100,"x_max":290,"o":"m 100 0 l 100 720 l 290 720 l 290 0 l 100 0 z "},"ˆ":{"ha":463,"x_min":2,"x_max":461,"o":"m 2 811 l 144 1011 l 321 1011 l 461 811 l 308 811 l 229 912 l 156 811 l 2 811 z "},"˜":{"ha":463,"x_min":-9,"x_max":460,"o":"m 79 817 l -8 817 q -9 842 -9 833 q 26 951 -9 913 q 115 989 60 989 q 159 984 138 989 q 233 955 179 979 q 317 931 287 931 q 354 945 339 931 q 372 990 368 958 l 460 990 q 426 859 460 899 q 340 820 393 820 q 294 825 317 820 q 216 852 279 829 q 125 876 154 876 q 92 863 104 876 q 79 817 79 850 z "},"ˉ":{"ha":463,"x_min":13,"x_max":450,"o":"m 13 839 l 13 964 l 450 964 l 450 839 l 13 839 z "},"˘":{"ha":463,"x_min":18,"x_max":441,"o":"m 348 1011 l 441 1011 q 376 866 433 919 q 229 814 319 814 q 82 866 139 814 q 18 1011 26 919 l 111 1011 q 144 938 115 963 q 229 913 174 913 q 314 938 285 913 q 348 1011 343 963 z "},"˙":{"ha":463,"x_min":139,"x_max":326,"o":"m 139 831 l 139 1011 l 326 1011 l 326 831 l 139 831 z "},"˚":{"ha":463,"x_min":98,"x_max":364,"o":"m 364 910 q 325 816 364 855 q 231 777 286 777 q 137 816 176 777 q 98 910 98 855 q 137 1004 98 965 q 231 1043 176 1043 q 325 1004 286 1043 q 364 910 364 966 m 292 910 q 274 953 292 935 q 231 970 256 970 q 189 953 206 970 q 171 910 171 935 q 189 867 171 885 q 231 850 206 850 q 274 867 256 850 q 292 910 292 885 z "},"¸":{"ha":463,"x_min":26,"x_max":395,"o":"m 26 -273 l 26 -193 q 154 -201 96 -201 q 243 -179 214 -201 q 266 -137 266 -163 q 245 -97 266 -114 q 180 -80 224 -80 q 91 -94 136 -80 l 109 -26 q 222 -8 161 -8 q 351 -45 307 -8 q 395 -136 395 -83 q 347 -233 395 -196 q 158 -284 281 -284 q 26 -273 71 -284 z "},"˝":{"ha":463,"x_min":65,"x_max":610,"o":"m 65 812 l 159 1014 l 359 1014 l 184 812 l 65 812 m 320 812 l 416 1014 l 610 1014 l 442 812 l 320 812 z "},"˛":{"ha":463,"x_min":109,"x_max":410,"o":"m 133 18 l 235 18 q 221 -80 221 -20 q 246 -161 221 -134 q 318 -187 271 -187 q 410 -172 361 -187 l 410 -263 q 279 -292 342 -292 q 153 -250 198 -292 q 109 -134 109 -207 q 133 18 109 -77 z "},"ˇ":{"ha":463,"x_min":2,"x_max":461,"o":"m 2 1011 l 156 1011 l 229 910 l 308 1011 l 461 1011 l 321 811 l 144 811 l 2 1011 z "},"Ł":{"ha":848,"x_min":7,"x_max":812,"o":"m 112 496 l 112 994 l 312 994 l 312 665 l 535 852 l 535 688 l 312 502 l 312 168 l 812 168 l 812 0 l 112 0 l 112 335 l 7 248 l 7 408 l 112 496 z "},"ł":{"ha":386,"x_min":7,"x_max":383,"o":"m 100 488 l 100 994 l 290 994 l 290 650 l 383 729 l 383 600 l 290 522 l 290 0 l 100 0 l 100 359 l 7 281 l 7 410 l 100 488 z "},"Š":{"ha":926,"x_min":50,"x_max":859,"o":"m 50 323 l 245 342 q 317 198 263 244 q 463 152 371 152 q 609 193 559 152 q 658 289 658 234 q 637 349 658 324 q 565 392 616 374 q 404 435 530 404 q 178 534 243 475 q 86 734 86 616 q 129 876 86 810 q 253 977 172 942 q 449 1011 334 1011 q 731 929 636 1011 q 830 710 825 847 l 629 701 q 574 811 616 778 q 447 845 532 845 q 310 809 359 845 q 278 747 278 786 q 308 687 278 712 q 492 621 346 655 q 709 549 639 586 q 819 448 779 512 q 859 290 859 384 q 811 130 859 204 q 677 19 764 55 q 460 -18 590 -18 q 171 70 272 -18 q 50 323 70 157 m 227 1255 l 380 1255 l 454 1154 l 532 1255 l 686 1255 l 545 1055 l 369 1055 l 227 1255 z "},"š":{"ha":772,"x_min":33,"x_max":705,"o":"m 33 205 l 224 235 q 273 150 236 179 q 378 121 311 121 q 489 149 452 121 q 514 199 514 168 q 500 235 514 221 q 437 260 486 249 q 144 353 206 311 q 59 515 59 412 q 133 673 59 609 q 362 736 207 736 q 582 688 510 736 q 681 546 654 640 l 501 513 q 457 577 490 555 q 366 600 425 600 q 258 578 290 600 q 236 540 236 564 q 255 505 236 519 q 433 452 281 486 q 646 367 585 417 q 705 225 705 316 q 623 55 705 126 q 378 -16 540 -16 q 145 43 231 -16 q 33 205 59 103 m 139 1011 l 293 1011 l 366 910 l 445 1011 l 598 1011 l 458 811 l 281 811 l 139 1011 z "},"Ž":{"ha":848,"x_min":15,"x_max":823,"o":"m 15 0 l 15 181 l 537 826 l 74 826 l 74 994 l 802 994 l 802 838 l 257 168 l 823 168 l 823 0 l 15 0 m 184 1255 l 338 1255 l 411 1154 l 490 1255 l 643 1255 l 503 1055 l 326 1055 l 184 1255 z "},"ž":{"ha":694,"x_min":23,"x_max":666,"o":"m 23 0 l 23 149 l 293 458 q 391 566 359 534 q 304 564 358 564 l 50 562 l 50 720 l 645 720 l 645 585 l 370 268 l 273 163 q 371 168 352 168 l 666 168 l 666 0 l 23 0 m 115 1011 l 269 1011 l 342 910 l 421 1011 l 574 1011 l 434 811 l 258 811 l 115 1011 z "},"¦":{"ha":389,"x_min":119,"x_max":271,"o":"m 119 475 l 119 1011 l 271 1011 l 271 475 l 119 475 m 119 -292 l 119 244 l 271 244 l 271 -292 l 119 -292 z "},"Ð":{"ha":1003,"x_min":-2,"x_max":935,"o":"m 101 994 l 467 994 q 659 975 593 994 q 809 881 747 948 q 903 720 871 814 q 935 485 935 625 q 900 263 935 362 q 797 99 865 165 q 656 21 745 50 q 478 0 590 0 l 101 0 l 101 434 l -2 434 l -2 560 l 101 560 l 101 994 m 301 826 l 301 560 l 514 560 l 514 434 l 301 434 l 301 168 l 452 168 q 595 184 551 168 q 684 258 654 204 q 727 492 727 335 q 709 665 727 604 q 656 763 691 726 q 565 815 621 800 q 392 826 522 826 l 301 826 z "},"ð":{"ha":848,"x_min":56,"x_max":797,"o":"m 225 994 l 424 994 q 498 934 463 964 l 621 994 l 651 928 l 553 882 q 740 620 684 751 q 797 370 797 488 q 692 89 797 195 q 422 -17 588 -17 q 160 89 263 -17 q 56 361 56 194 q 166 632 56 526 q 372 720 258 720 q 446 709 409 720 q 523 673 473 701 q 479 747 496 721 q 424 821 461 774 l 254 740 l 225 805 l 373 875 q 225 994 305 937 m 255 359 q 304 195 255 252 q 425 138 353 138 q 548 195 497 138 q 599 353 599 252 q 547 512 599 454 q 423 570 494 570 q 304 515 353 570 q 255 359 255 460 z "},"Ý":{"ha":926,"x_min":-2,"x_max":928,"o":"m 362 0 l 362 418 l -2 994 l 233 994 l 467 601 l 696 994 l 928 994 l 562 417 l 562 0 l 362 0 m 336 1051 l 429 1254 l 643 1254 l 456 1051 l 336 1051 z "},"ý":{"ha":772,"x_min":9,"x_max":750,"o":"m 9 720 l 212 720 l 385 209 l 553 720 l 750 720 l 496 27 l 450 -98 q 402 -195 425 -161 q 350 -249 380 -228 q 278 -281 321 -269 q 180 -292 235 -292 q 73 -281 125 -292 l 56 -132 q 136 -140 100 -140 q 235 -101 203 -140 q 283 -2 267 -62 l 9 720 m 283 808 l 377 1011 l 591 1011 l 404 808 l 283 808 z "},"Þ":{"ha":926,"x_min":101,"x_max":863,"o":"m 101 0 l 101 994 l 302 994 l 302 807 l 423 807 q 663 792 606 807 q 805 694 748 769 q 863 500 863 619 q 829 347 863 410 q 745 249 796 285 q 641 202 694 213 q 433 187 569 187 l 302 187 l 302 0 l 101 0 m 302 639 l 302 356 l 412 356 q 555 363 524 356 q 626 408 597 374 q 656 500 656 443 q 632 580 656 546 q 575 627 609 614 q 399 639 542 639 l 302 639 z "},"þ":{"ha":848,"x_min":94,"x_max":797,"o":"m 94 994 l 285 994 l 285 636 q 388 714 341 692 q 496 736 435 736 q 709 638 622 736 q 797 364 797 540 q 709 84 797 184 q 495 -16 621 -16 q 387 7 435 -16 q 285 89 338 31 l 285 -274 l 94 -274 l 94 994 m 283 376 q 319 210 283 264 q 450 134 368 134 q 558 188 513 134 q 602 358 602 242 q 557 536 602 481 q 443 591 513 591 q 329 537 374 591 q 283 376 283 484 z "},"−":{"ha":811,"x_min":58,"x_max":753,"o":"m 58 401 l 58 580 l 753 580 l 753 401 l 58 401 z "},"×":{"ha":811,"x_min":74,"x_max":736,"o":"m 75 285 l 280 490 l 74 695 l 200 821 l 406 616 l 611 821 l 734 697 l 529 492 l 736 286 l 610 159 l 403 366 l 198 161 l 75 285 z "},"¹":{"ha":463,"x_min":62,"x_max":336,"o":"m 336 493 l 207 493 l 207 841 q 62 774 143 797 l 62 880 q 178 939 126 898 q 231 1006 215 967 l 336 1006 l 336 493 z "},"²":{"ha":463,"x_min":17,"x_max":429,"o":"m 429 600 l 429 493 l 17 493 q 54 596 24 551 q 186 722 83 642 q 279 802 263 783 q 300 854 300 828 q 283 895 300 880 q 231 909 266 909 q 180 893 197 909 q 159 831 163 876 l 31 842 q 81 958 41 922 q 235 1006 136 1006 q 379 963 329 1006 q 429 861 429 920 q 413 791 429 824 q 363 723 397 758 q 272 647 346 705 q 216 600 233 616 l 429 600 z "},"³":{"ha":463,"x_min":27,"x_max":435,"o":"m 27 642 l 152 655 q 177 600 157 618 q 229 582 197 582 q 282 602 262 582 q 302 655 302 623 q 283 703 302 684 q 233 722 264 722 q 171 712 212 722 l 186 811 q 242 818 222 810 q 270 838 262 826 q 279 865 279 850 q 264 897 279 884 q 222 909 250 909 q 178 894 195 909 q 155 843 161 879 l 35 861 q 85 960 52 930 q 226 1006 136 1006 q 359 964 310 1006 q 408 868 408 922 q 394 821 408 842 q 342 770 375 790 q 411 723 388 754 q 435 649 435 691 q 378 535 435 585 q 228 485 321 485 q 89 528 141 485 q 27 642 37 570 z "},"½":{"ha":1158,"x_min":62,"x_max":1123,"o":"m 336 493 l 208 493 l 208 841 q 62 774 144 797 l 62 880 q 179 939 127 898 q 232 1006 216 967 l 336 1006 l 336 493 m 338 -37 l 231 -37 l 820 1006 l 928 1006 l 338 -37 m 1123 78 l 1123 -28 l 711 -28 q 749 75 719 29 q 880 201 779 120 q 973 281 958 261 q 994 333 994 307 q 977 373 994 358 q 926 388 960 388 q 874 371 892 388 q 854 310 857 355 l 725 321 q 777 437 735 399 q 929 485 830 485 q 1073 441 1023 485 q 1123 339 1123 398 q 1108 270 1123 302 q 1058 201 1093 237 q 966 125 1040 184 q 911 78 928 95 l 1123 78 z "},"¼":{"ha":1158,"x_min":62,"x_max":1145,"o":"m 336 493 l 208 493 l 208 841 q 62 774 144 797 l 62 880 q 179 939 127 898 q 232 1006 216 967 l 336 1006 l 336 493 m 338 -37 l 231 -37 l 820 1006 l 928 1006 l 338 -37 m 951 -28 l 951 71 l 707 71 l 707 166 l 966 485 l 1072 485 l 1072 169 l 1145 169 l 1145 71 l 1072 71 l 1072 -28 l 951 -28 m 951 169 l 951 321 l 827 169 l 951 169 z "},"¾":{"ha":1158,"x_min":27,"x_max":1145,"o":"m 27 642 l 152 655 q 177 600 157 618 q 229 582 197 582 q 282 602 262 582 q 302 655 302 623 q 283 703 302 684 q 233 722 264 722 q 171 712 212 722 l 186 811 q 242 818 222 810 q 270 838 262 826 q 279 865 279 850 q 264 897 279 884 q 222 909 250 909 q 178 894 195 909 q 155 843 161 879 l 35 861 q 85 960 52 930 q 226 1006 136 1006 q 359 964 310 1006 q 408 868 408 922 q 394 821 408 842 q 342 770 375 790 q 411 723 388 754 q 435 649 435 691 q 378 535 435 585 q 228 485 321 485 q 89 528 141 485 q 27 642 37 570 m 355 -37 l 247 -37 l 836 1006 l 943 1006 l 355 -37 m 951 -28 l 951 71 l 707 71 l 707 166 l 966 485 l 1072 485 l 1072 169 l 1145 169 l 1145 71 l 1072 71 l 1072 -28 l 951 -28 m 951 169 l 951 321 l 827 169 l 951 169 z "},"₣":{"ha":772,"x_min":0,"x_max":703,"o":"m 103 123 l 0 123 l 0 275 l 103 275 l 102 994 l 703 994 l 703 826 l 303 826 l 303 591 l 637 591 l 637 422 l 303 422 l 303 275 l 473 275 l 473 123 l 303 123 l 303 0 l 103 0 l 103 123 z "},"Ğ":{"ha":1080,"x_min":66,"x_max":996,"o":"m 564 366 l 564 533 l 996 533 l 996 137 q 813 30 933 76 q 571 -17 694 -17 q 299 48 415 -17 q 125 236 183 114 q 66 500 66 357 q 132 777 66 656 q 322 962 197 897 q 560 1011 418 1011 q 849 933 745 1011 q 983 719 954 856 l 784 682 q 705 797 763 755 q 560 840 647 840 q 351 756 429 840 q 273 509 273 673 q 352 243 273 332 q 558 155 431 155 q 685 179 621 155 q 793 239 748 204 l 793 366 l 564 366 m 691 1245 l 784 1245 q 719 1100 776 1153 q 572 1048 663 1048 q 426 1100 482 1048 q 361 1245 369 1153 l 454 1245 q 488 1172 458 1197 q 572 1147 517 1147 q 657 1172 628 1147 q 691 1245 686 1197 z "},"ğ":{"ha":848,"x_min":57,"x_max":760,"o":"m 82 -47 l 300 -74 q 325 -126 305 -112 q 410 -146 352 -146 q 522 -124 485 -146 q 560 -76 547 -109 q 569 12 569 -52 l 569 117 q 353 0 484 0 q 123 123 208 0 q 57 364 57 220 q 144 641 57 545 q 361 736 231 736 q 581 619 494 736 l 581 720 l 760 720 l 760 74 q 739 -117 760 -54 q 680 -216 718 -180 q 578 -272 642 -252 q 418 -292 515 -292 q 158 -230 235 -292 q 81 -71 81 -167 q 82 -47 81 -61 m 252 375 q 297 207 252 260 q 406 154 341 154 q 524 209 476 154 q 572 370 572 263 q 526 536 572 482 q 410 591 480 591 q 297 537 341 591 q 252 375 252 484 m 525 1011 l 618 1011 q 553 866 610 919 q 406 814 496 814 q 259 866 316 814 q 195 1011 203 919 l 288 1011 q 321 938 292 963 q 406 913 351 913 q 491 938 462 913 q 525 1011 520 963 z "},"İ":{"ha":386,"x_min":95,"x_max":296,"o":"m 95 0 l 95 994 l 296 994 l 296 0 l 95 0 m 102 1051 l 102 1232 l 290 1232 l 290 1051 l 102 1051 z "},"Ş":{"ha":926,"x_min":50,"x_max":859,"o":"m 50 323 l 245 342 q 317 198 263 244 q 463 152 371 152 q 609 193 559 152 q 658 289 658 234 q 637 349 658 324 q 565 392 616 374 q 404 435 530 404 q 178 534 243 475 q 86 734 86 616 q 129 876 86 810 q 253 977 172 942 q 449 1011 334 1011 q 731 929 636 1011 q 830 710 825 847 l 629 701 q 574 811 616 778 q 447 845 532 845 q 310 809 359 845 q 278 747 278 786 q 308 687 278 712 q 492 621 346 655 q 709 549 639 586 q 819 448 779 512 q 859 290 859 384 q 811 130 859 204 q 677 19 764 55 q 460 -18 590 -18 q 171 70 272 -18 q 50 323 70 157 m 279 -273 l 279 -193 q 407 -201 349 -201 q 496 -179 467 -201 q 519 -137 519 -163 q 498 -97 519 -114 q 433 -80 477 -80 q 344 -94 389 -80 l 361 -26 q 475 -8 414 -8 q 604 -45 560 -8 q 648 -136 648 -83 q 600 -233 648 -196 q 411 -284 534 -284 q 279 -273 323 -284 z "},"ş":{"ha":772,"x_min":33,"x_max":705,"o":"m 33 205 l 224 235 q 273 150 236 179 q 378 121 311 121 q 489 149 452 121 q 514 199 514 168 q 500 235 514 221 q 437 260 486 249 q 144 353 206 311 q 59 515 59 412 q 133 673 59 609 q 362 736 207 736 q 582 688 510 736 q 681 546 654 640 l 501 513 q 457 577 490 555 q 366 600 425 600 q 258 578 290 600 q 236 540 236 564 q 255 505 236 519 q 433 452 281 486 q 646 367 585 417 q 705 225 705 316 q 623 55 705 126 q 378 -16 540 -16 q 145 43 231 -16 q 33 205 59 103 m 214 -273 l 214 -193 q 342 -201 284 -201 q 432 -179 403 -201 q 454 -137 454 -163 q 433 -97 454 -114 q 368 -80 412 -80 q 279 -94 325 -80 l 297 -26 q 411 -8 350 -8 q 540 -45 496 -8 q 584 -136 584 -83 q 535 -233 584 -196 q 347 -284 469 -284 q 214 -273 259 -284 z "},"Ć":{"ha":1003,"x_min":66,"x_max":932,"o":"m 737 366 l 932 304 q 783 62 887 141 q 519 -17 679 -17 q 193 118 321 -17 q 66 488 66 254 q 194 874 66 736 q 531 1011 322 1011 q 827 903 713 1011 q 929 720 895 840 l 730 673 q 657 795 713 750 q 521 840 601 840 q 341 760 410 840 q 273 503 273 681 q 340 235 273 315 q 517 155 408 155 q 654 205 597 155 q 737 366 712 256 m 391 1051 l 485 1254 l 699 1254 l 512 1051 l 391 1051 z "},"ć":{"ha":772,"x_min":58,"x_max":737,"o":"m 728 507 l 540 473 q 497 558 530 530 q 410 587 463 587 q 296 537 338 587 q 254 373 254 488 q 297 192 254 245 q 412 139 340 139 q 501 170 467 139 q 550 276 536 201 l 737 244 q 625 50 708 115 q 404 -16 543 -16 q 152 83 245 -16 q 58 359 58 183 q 152 637 58 538 q 407 736 246 736 q 616 680 538 736 q 728 507 694 623 m 293 808 l 387 1011 l 600 1011 l 414 808 l 293 808 z "},"Č":{"ha":1003,"x_min":66,"x_max":932,"o":"m 737 366 l 932 304 q 783 62 887 141 q 519 -17 679 -17 q 193 118 321 -17 q 66 488 66 254 q 194 874 66 736 q 531 1011 322 1011 q 827 903 713 1011 q 929 720 895 840 l 730 673 q 657 795 713 750 q 521 840 601 840 q 341 760 410 840 q 273 503 273 681 q 340 235 273 315 q 517 155 408 155 q 654 205 597 155 q 737 366 712 256 m 282 1255 l 436 1255 l 509 1154 l 588 1255 l 741 1255 l 601 1055 l 425 1055 l 282 1255 z "},"č":{"ha":772,"x_min":58,"x_max":737,"o":"m 728 507 l 540 473 q 497 558 530 530 q 410 587 463 587 q 296 537 338 587 q 254 373 254 488 q 297 192 254 245 q 412 139 340 139 q 501 170 467 139 q 550 276 536 201 l 737 244 q 625 50 708 115 q 404 -16 543 -16 q 152 83 245 -16 q 58 359 58 183 q 152 637 58 538 q 407 736 246 736 q 616 680 538 736 q 728 507 694 623 m 186 1011 l 340 1011 l 413 910 l 492 1011 l 645 1011 l 505 811 l 328 811 l 186 1011 z "},"đ":{"ha":848,"x_min":57,"x_max":836,"o":"m 570 797 l 364 797 l 364 924 l 570 924 l 570 994 l 760 994 l 760 924 l 836 924 l 836 797 l 760 797 l 760 0 l 583 0 l 583 106 q 479 14 539 44 q 358 -16 419 -16 q 145 84 234 -16 q 57 363 57 184 q 143 641 57 546 q 361 736 229 736 q 570 636 481 736 l 570 797 m 252 376 q 283 209 252 260 q 412 134 330 134 q 524 190 478 134 q 570 357 570 246 q 526 536 570 481 q 411 591 481 591 q 297 537 343 591 q 252 376 252 483 z "},"¯":{"ha":767,"x_min":-13,"x_max":779,"o":"m -13 1053 l -13 1177 l 779 1177 l 779 1053 l -13 1053 z "},"Ă":{"ha":1003,"x_min":0,"x_max":998,"o":"m 998 0 l 779 0 l 692 226 l 295 226 l 213 0 l 0 0 l 387 994 l 600 994 l 998 0 m 628 393 l 491 762 l 357 393 l 628 393 m 618 1245 l 711 1245 q 646 1100 703 1153 q 499 1048 589 1048 q 352 1100 409 1048 q 288 1245 296 1153 l 380 1245 q 414 1172 385 1197 q 499 1147 444 1147 q 584 1172 555 1147 q 618 1245 613 1197 z "},"ă":{"ha":772,"x_min":50,"x_max":726,"o":"m 242 500 l 69 532 q 170 686 98 636 q 381 736 241 736 q 571 706 509 736 q 659 630 633 676 q 684 459 684 583 l 682 237 q 691 97 682 142 q 726 0 701 52 l 537 0 q 519 56 530 19 q 512 79 514 73 q 408 7 463 31 q 289 -16 352 -16 q 114 44 178 -16 q 50 197 50 104 q 79 306 50 258 q 160 379 108 353 q 312 423 213 404 q 497 470 446 448 l 497 489 q 470 567 497 544 q 368 591 443 591 q 288 571 317 591 q 242 500 260 551 m 497 346 q 381 317 460 334 q 277 283 302 300 q 240 216 240 257 q 270 147 240 176 q 346 118 300 118 q 444 152 397 118 q 490 215 479 178 q 497 308 497 239 l 497 346 m 504 1011 l 597 1011 q 532 866 589 919 q 385 814 475 814 q 238 866 295 814 q 174 1011 182 919 l 267 1011 q 300 938 271 963 q 385 913 330 913 q 470 938 441 913 q 504 1011 499 963 z "},"Ą":{"ha":1003,"x_min":0,"x_max":1061,"o":"m 998 0 l 779 0 l 692 226 l 295 226 l 213 0 l 0 0 l 387 994 l 600 994 l 998 0 m 628 393 l 491 762 l 357 393 l 628 393 m 784 18 l 886 18 q 872 -80 872 -20 q 897 -161 872 -134 q 969 -187 922 -187 q 1061 -172 1012 -187 l 1061 -263 q 930 -292 993 -292 q 804 -250 849 -292 q 760 -134 760 -207 q 784 18 760 -77 z "},"ą":{"ha":772,"x_min":50,"x_max":821,"o":"m 242 500 l 69 532 q 170 686 98 636 q 381 736 241 736 q 571 706 509 736 q 659 630 633 676 q 684 459 684 583 l 682 237 q 691 97 682 142 q 726 0 701 52 l 537 0 q 519 56 530 19 q 512 79 514 73 q 408 7 463 31 q 289 -16 352 -16 q 114 44 178 -16 q 50 197 50 104 q 79 306 50 258 q 160 379 108 353 q 312 423 213 404 q 497 470 446 448 l 497 489 q 470 567 497 544 q 368 591 443 591 q 288 571 317 591 q 242 500 260 551 m 497 346 q 381 317 460 334 q 277 283 302 300 q 240 216 240 257 q 270 147 240 176 q 346 118 300 118 q 444 152 397 118 q 490 215 479 178 q 497 308 497 239 l 497 346 m 543 18 l 645 18 q 631 -80 631 -20 q 656 -161 631 -134 q 728 -187 682 -187 q 821 -172 771 -187 l 821 -263 q 689 -292 752 -292 q 564 -250 608 -292 q 519 -134 519 -207 q 543 18 519 -77 z "},"Ď":{"ha":1003,"x_min":100,"x_max":934,"o":"m 100 994 l 467 994 q 656 975 591 994 q 806 884 744 949 q 901 723 869 818 q 934 488 934 627 q 903 276 934 365 q 797 100 866 168 q 656 21 745 50 q 478 0 589 0 l 100 0 l 100 994 m 301 826 l 301 168 l 451 168 q 572 177 535 168 q 653 218 621 189 q 706 314 686 248 q 726 496 726 381 q 706 673 726 612 q 649 770 686 735 q 556 817 612 804 q 391 826 514 826 l 301 826 m 186 1255 l 340 1255 l 413 1154 l 492 1255 l 645 1255 l 505 1055 l 328 1055 l 186 1255 z "},"ď":{"ha":998,"x_min":55,"x_max":998,"o":"m 827 994 l 998 994 l 998 871 q 985 752 998 795 q 935 675 971 709 q 846 623 898 641 l 812 694 q 886 741 864 711 q 909 823 909 772 l 827 823 l 827 994 m 758 0 l 581 0 l 581 106 q 477 14 537 44 q 356 -16 417 -16 q 143 84 232 -16 q 55 363 55 184 q 141 641 55 546 q 359 736 227 736 q 568 636 479 736 l 568 994 l 758 994 l 758 0 m 250 376 q 281 209 250 260 q 410 134 328 134 q 522 190 476 134 q 568 357 568 246 q 524 536 568 481 q 409 591 479 591 q 295 537 341 591 q 250 376 250 483 z "},"Đ":{"ha":1003,"x_min":-2,"x_max":935,"o":"m 101 994 l 467 994 q 659 975 593 994 q 809 881 747 948 q 903 720 871 814 q 935 485 935 625 q 900 263 935 362 q 797 99 865 165 q 656 21 745 50 q 478 0 590 0 l 101 0 l 101 434 l -2 434 l -2 560 l 101 560 l 101 994 m 301 826 l 301 560 l 514 560 l 514 434 l 301 434 l 301 168 l 452 168 q 595 184 551 168 q 684 258 654 204 q 727 492 727 335 q 709 665 727 604 q 656 763 691 726 q 565 815 621 800 q 392 826 522 826 l 301 826 z "},"Ę":{"ha":926,"x_min":101,"x_max":857,"o":"m 101 0 l 101 994 l 838 994 l 838 826 l 302 826 l 302 606 l 801 606 l 801 438 l 302 438 l 302 168 l 857 168 l 857 0 l 101 0 m 580 18 l 682 18 q 668 -80 668 -20 q 693 -161 668 -134 q 765 -187 718 -187 q 857 -172 808 -187 l 857 -263 q 726 -292 789 -292 q 600 -250 645 -292 q 555 -134 555 -207 q 580 18 555 -77 z "},"ę":{"ha":772,"x_min":44,"x_max":721,"o":"m 517 229 l 707 197 q 591 38 670 93 q 393 -16 512 -16 q 115 106 205 -16 q 44 355 44 205 q 138 635 44 534 q 374 736 231 736 q 628 630 535 736 q 717 305 721 524 l 239 305 q 286 173 241 220 q 395 126 330 126 q 471 151 440 126 q 517 229 501 175 m 528 422 q 485 548 526 505 q 386 591 444 591 q 283 545 323 591 q 243 422 242 500 l 528 422 m 340 18 l 441 18 q 428 -80 428 -20 q 453 -161 428 -134 q 525 -187 478 -187 q 617 -172 568 -187 l 617 -263 q 486 -292 549 -292 q 360 -250 405 -292 q 315 -134 315 -207 q 340 18 315 -77 z "},"Ě":{"ha":926,"x_min":101,"x_max":857,"o":"m 101 0 l 101 994 l 838 994 l 838 826 l 302 826 l 302 606 l 801 606 l 801 438 l 302 438 l 302 168 l 857 168 l 857 0 l 101 0 m 229 1255 l 383 1255 l 456 1154 l 535 1255 l 688 1255 l 548 1055 l 372 1055 l 229 1255 z "},"ě":{"ha":772,"x_min":44,"x_max":721,"o":"m 517 229 l 707 197 q 591 38 670 93 q 393 -16 512 -16 q 115 106 205 -16 q 44 355 44 205 q 138 635 44 534 q 374 736 231 736 q 628 630 535 736 q 717 305 721 524 l 239 305 q 286 173 241 220 q 395 126 330 126 q 471 151 440 126 q 517 229 501 175 m 528 422 q 485 548 526 505 q 386 591 444 591 q 283 545 323 591 q 243 422 242 500 l 528 422 m 151 1011 l 304 1011 l 378 910 l 456 1011 l 610 1011 l 469 811 l 293 811 l 151 1011 z "},"Ĺ":{"ha":848,"x_min":106,"x_max":806,"o":"m 106 0 l 106 986 l 307 986 l 307 168 l 806 168 l 806 0 l 106 0 m 292 1051 l 385 1254 l 599 1254 l 412 1051 l 292 1051 z "},"ĺ":{"ha":386,"x_min":82,"x_max":389,"o":"m 100 0 l 100 994 l 290 994 l 290 0 l 100 0 m 82 1045 l 176 1248 l 389 1248 l 203 1045 l 82 1045 z "},"Ľ":{"ha":848,"x_min":106,"x_max":806,"o":"m 106 0 l 106 986 l 307 986 l 307 168 l 806 168 l 806 0 l 106 0 m 569 986 l 760 986 l 760 849 q 745 719 760 766 q 691 633 731 671 q 591 573 652 595 l 553 652 q 635 705 610 671 q 661 795 660 738 l 569 795 l 569 986 z "},"ľ":{"ha":535,"x_min":101,"x_max":532,"o":"m 360 994 l 532 994 l 532 871 q 518 752 532 795 q 468 675 505 709 q 380 623 431 641 l 346 694 q 420 741 397 711 q 443 823 443 772 l 360 823 l 360 994 m 101 0 l 101 994 l 292 994 l 292 0 l 101 0 z "},"Ŀ":{"ha":848,"x_min":106,"x_max":806,"o":"m 106 0 l 106 986 l 307 986 l 307 168 l 806 168 l 806 0 l 106 0 m 526 389 l 526 579 l 716 579 l 716 389 l 526 389 z "},"ŀ":{"ha":665,"x_min":100,"x_max":568,"o":"m 100 0 l 100 994 l 290 994 l 290 0 l 100 0 m 378 389 l 378 579 l 568 579 l 568 389 l 378 389 z "},"Ń":{"ha":1003,"x_min":103,"x_max":892,"o":"m 103 0 l 103 994 l 298 994 l 705 330 l 705 994 l 892 994 l 892 0 l 690 0 l 290 648 l 290 0 l 103 0 m 376 1051 l 470 1254 l 684 1254 l 497 1051 l 376 1051 z "},"ń":{"ha":848,"x_min":98,"x_max":755,"o":"m 755 0 l 564 0 l 564 368 q 552 518 564 484 q 512 572 540 553 q 446 591 485 591 q 357 564 397 591 q 303 492 318 536 q 289 326 289 447 l 289 0 l 98 0 l 98 720 l 275 720 l 275 614 q 513 736 370 736 q 628 714 576 736 q 707 656 680 691 q 744 576 734 621 q 755 448 755 531 l 755 0 m 322 808 l 416 1011 l 629 1011 l 443 808 l 322 808 z "},"Ň":{"ha":1003,"x_min":103,"x_max":892,"o":"m 103 0 l 103 994 l 298 994 l 705 330 l 705 994 l 892 994 l 892 0 l 690 0 l 290 648 l 290 0 l 103 0 m 256 1255 l 410 1255 l 484 1154 l 562 1255 l 715 1255 l 575 1055 l 399 1055 l 256 1255 z "},"ň":{"ha":848,"x_min":98,"x_max":755,"o":"m 755 0 l 564 0 l 564 368 q 552 518 564 484 q 512 572 540 553 q 446 591 485 591 q 357 564 397 591 q 303 492 318 536 q 289 326 289 447 l 289 0 l 98 0 l 98 720 l 275 720 l 275 614 q 513 736 370 736 q 628 714 576 736 q 707 656 680 691 q 744 576 734 621 q 755 448 755 531 l 755 0 m 197 1011 l 351 1011 l 424 910 l 503 1011 l 656 1011 l 515 811 l 339 811 l 197 1011 z "},"Ő":{"ha":1080,"x_min":60,"x_max":1025,"o":"m 60 491 q 106 746 60 643 q 198 882 140 822 q 327 972 257 943 q 541 1011 420 1011 q 893 875 761 1011 q 1025 496 1025 739 q 894 119 1025 255 q 544 -17 763 -17 q 191 118 322 -17 q 60 491 60 254 m 267 498 q 345 242 267 329 q 543 155 423 155 q 740 241 663 155 q 817 500 817 328 q 742 755 817 671 q 543 840 667 840 q 343 754 419 840 q 267 498 267 669 m 326 1051 l 420 1253 l 619 1253 l 445 1051 l 326 1051 m 581 1051 l 676 1253 l 870 1253 l 703 1051 l 581 1051 z "},"ő":{"ha":848,"x_min":56,"x_max":799,"o":"m 56 370 q 102 554 56 465 q 235 690 149 643 q 427 736 321 736 q 694 630 590 736 q 799 362 799 524 q 693 91 799 199 q 428 -16 588 -16 q 239 28 329 -16 q 102 160 149 73 q 56 370 56 246 m 251 360 q 302 196 251 253 q 427 139 353 139 q 552 196 502 139 q 603 361 603 253 q 552 524 603 467 q 427 581 502 581 q 302 524 353 581 q 251 360 251 467 m 193 812 l 288 1014 l 487 1014 l 313 812 l 193 812 m 448 812 l 544 1014 l 738 1014 l 570 812 l 448 812 z "},"Ŕ":{"ha":1003,"x_min":102,"x_max":996,"o":"m 102 0 l 102 994 l 524 994 q 756 967 684 994 q 871 872 828 941 q 915 715 915 804 q 849 531 915 604 q 652 439 783 458 q 760 355 718 401 q 874 194 802 310 l 996 0 l 755 0 l 610 216 q 505 362 533 332 q 444 404 476 393 q 343 415 412 415 l 302 415 l 302 0 l 102 0 m 302 574 l 451 574 q 631 586 595 574 q 688 628 667 598 q 708 703 708 658 q 681 784 708 753 q 606 823 654 814 q 459 826 581 826 l 302 826 l 302 574 m 318 1051 l 412 1254 l 625 1254 l 439 1051 l 318 1051 z "},"ŕ":{"ha":541,"x_min":92,"x_max":558,"o":"m 282 0 l 92 0 l 92 720 l 269 720 l 269 618 q 350 713 314 690 q 433 736 387 736 q 558 701 498 736 l 499 534 q 410 566 451 566 q 342 544 370 566 q 298 464 314 522 q 282 222 282 406 l 282 0 m 187 808 l 281 1011 l 494 1011 l 308 808 l 187 808 z "},"Ř":{"ha":1003,"x_min":102,"x_max":996,"o":"m 102 0 l 102 994 l 524 994 q 756 967 684 994 q 871 872 828 941 q 915 715 915 804 q 849 531 915 604 q 652 439 783 458 q 760 355 718 401 q 874 194 802 310 l 996 0 l 755 0 l 610 216 q 505 362 533 332 q 444 404 476 393 q 343 415 412 415 l 302 415 l 302 0 l 102 0 m 302 574 l 451 574 q 631 586 595 574 q 688 628 667 598 q 708 703 708 658 q 681 784 708 753 q 606 823 654 814 q 459 826 581 826 l 302 826 l 302 574 m 202 1255 l 356 1255 l 429 1154 l 508 1255 l 661 1255 l 521 1055 l 345 1055 l 202 1255 z "},"ř":{"ha":541,"x_min":54,"x_max":558,"o":"m 282 0 l 92 0 l 92 720 l 269 720 l 269 618 q 350 713 314 690 q 433 736 387 736 q 558 701 498 736 l 499 534 q 410 566 451 566 q 342 544 370 566 q 298 464 314 522 q 282 222 282 406 l 282 0 m 54 1011 l 208 1011 l 281 910 l 360 1011 l 513 1011 l 373 811 l 197 811 l 54 1011 z "},"Ś":{"ha":926,"x_min":50,"x_max":859,"o":"m 50 323 l 245 342 q 317 198 263 244 q 463 152 371 152 q 609 193 559 152 q 658 289 658 234 q 637 349 658 324 q 565 392 616 374 q 404 435 530 404 q 178 534 243 475 q 86 734 86 616 q 129 876 86 810 q 253 977 172 942 q 449 1011 334 1011 q 731 929 636 1011 q 830 710 825 847 l 629 701 q 574 811 616 778 q 447 845 532 845 q 310 809 359 845 q 278 747 278 786 q 308 687 278 712 q 492 621 346 655 q 709 549 639 586 q 819 448 779 512 q 859 290 859 384 q 811 130 859 204 q 677 19 764 55 q 460 -18 590 -18 q 171 70 272 -18 q 50 323 70 157 m 374 1051 l 467 1254 l 681 1254 l 494 1051 l 374 1051 z "},"ś":{"ha":772,"x_min":33,"x_max":705,"o":"m 33 205 l 224 235 q 273 150 236 179 q 378 121 311 121 q 489 149 452 121 q 514 199 514 168 q 500 235 514 221 q 437 260 486 249 q 144 353 206 311 q 59 515 59 412 q 133 673 59 609 q 362 736 207 736 q 582 688 510 736 q 681 546 654 640 l 501 513 q 457 577 490 555 q 366 600 425 600 q 258 578 290 600 q 236 540 236 564 q 255 505 236 519 q 433 452 281 486 q 646 367 585 417 q 705 225 705 316 q 623 55 705 126 q 378 -16 540 -16 q 145 43 231 -16 q 33 205 59 103 m 308 808 l 401 1011 l 615 1011 l 429 808 l 308 808 z "},"Ţ":{"ha":848,"x_min":30,"x_max":820,"o":"m 325 0 l 325 826 l 30 826 l 30 994 l 820 994 l 820 826 l 526 826 l 526 0 l 325 0 m 335 -82 l 526 -82 l 526 -218 q 484 -356 526 -300 q 359 -443 441 -413 l 321 -364 q 391 -327 367 -349 q 427 -273 415 -304 l 335 -273 l 335 -82 z "},"ţ":{"ha":463,"x_min":21,"x_max":446,"o":"m 430 720 l 430 568 l 300 568 l 300 278 q 303 175 300 190 q 320 151 307 161 q 353 142 334 142 q 429 160 379 142 l 446 12 q 295 -16 379 -16 q 202 1 243 -16 q 141 46 161 18 q 115 120 122 73 q 109 254 109 153 l 109 568 l 21 568 l 21 720 l 109 720 l 109 863 l 300 975 l 300 720 l 430 720 m 182 -82 l 354 -82 l 354 -205 q 317 -328 354 -277 q 204 -407 279 -379 l 170 -336 q 265 -254 243 -312 l 182 -254 l 182 -82 z "},"Ť":{"ha":848,"x_min":30,"x_max":820,"o":"m 325 0 l 325 826 l 30 826 l 30 994 l 820 994 l 820 826 l 526 826 l 526 0 l 325 0 m 185 1255 l 339 1255 l 412 1154 l 491 1255 l 644 1255 l 504 1055 l 328 1055 l 185 1255 z "},"ť":{"ha":665,"x_min":20,"x_max":667,"o":"m 495 994 l 667 994 l 667 871 q 653 752 667 795 q 603 675 640 709 q 515 623 566 641 l 481 694 q 555 741 532 711 q 578 823 578 772 l 495 823 l 495 994 m 429 720 l 429 568 l 299 568 l 299 278 q 303 175 299 190 q 320 151 307 161 q 352 142 333 142 q 429 160 378 142 l 445 12 q 294 -16 378 -16 q 201 1 243 -16 q 141 46 160 18 q 114 120 121 73 q 108 254 108 153 l 108 568 l 20 568 l 20 720 l 108 720 l 108 863 l 299 975 l 299 720 l 429 720 z "},"Ů":{"ha":1003,"x_min":100,"x_max":892,"o":"m 100 994 l 300 994 l 300 456 q 308 290 300 328 q 369 192 321 229 q 502 155 418 155 q 631 190 587 155 q 683 275 674 224 q 692 444 692 326 l 692 994 l 892 994 l 892 472 q 876 219 892 293 q 816 94 860 145 q 699 13 772 43 q 508 -17 626 -17 q 292 16 366 -17 q 176 101 218 49 q 119 212 133 154 q 100 464 100 297 l 100 994 m 629 1144 q 590 1050 629 1089 q 496 1011 551 1011 q 402 1050 441 1011 q 363 1144 363 1089 q 402 1238 363 1199 q 496 1277 441 1277 q 590 1238 551 1277 q 629 1144 629 1200 m 557 1144 q 539 1187 557 1169 q 496 1204 522 1204 q 454 1187 471 1204 q 436 1144 436 1169 q 454 1101 436 1119 q 496 1084 471 1084 q 539 1101 522 1084 q 557 1144 557 1119 z "},"ů":{"ha":848,"x_min":96,"x_max":751,"o":"m 574 0 l 574 108 q 470 17 534 50 q 335 -16 406 -16 q 205 16 262 -16 q 121 105 147 47 q 96 264 96 163 l 96 720 l 286 720 l 286 389 q 297 203 286 237 q 335 149 307 169 q 406 129 363 129 q 493 156 454 129 q 546 222 532 182 q 560 416 560 262 l 560 720 l 751 720 l 751 0 l 574 0 m 556 910 q 517 816 556 855 q 423 777 478 777 q 329 816 368 777 q 290 910 290 855 q 329 1004 290 965 q 423 1043 368 1043 q 517 1004 478 1043 q 556 910 556 966 m 484 910 q 466 953 484 935 q 423 970 448 970 q 380 953 398 970 q 363 910 363 935 q 380 867 363 885 q 423 850 398 850 q 466 867 448 850 q 484 910 484 885 z "},"Ű":{"ha":1003,"x_min":100,"x_max":892,"o":"m 100 994 l 300 994 l 300 456 q 308 290 300 328 q 369 192 321 229 q 502 155 418 155 q 631 190 587 155 q 683 275 674 224 q 692 444 692 326 l 692 994 l 892 994 l 892 472 q 876 219 892 293 q 816 94 860 145 q 699 13 772 43 q 508 -17 626 -17 q 292 16 366 -17 q 176 101 218 49 q 119 212 133 154 q 100 464 100 297 l 100 994 m 286 1051 l 380 1253 l 580 1253 l 406 1051 l 286 1051 m 541 1051 l 637 1253 l 831 1253 l 663 1051 l 541 1051 z "},"ű":{"ha":848,"x_min":96,"x_max":761,"o":"m 574 0 l 574 108 q 470 17 534 50 q 335 -16 406 -16 q 205 16 262 -16 q 121 105 147 47 q 96 264 96 163 l 96 720 l 286 720 l 286 389 q 297 203 286 237 q 335 149 307 169 q 406 129 363 129 q 493 156 454 129 q 546 222 532 182 q 560 416 560 262 l 560 720 l 751 720 l 751 0 l 574 0 m 216 812 l 311 1014 l 510 1014 l 336 812 l 216 812 m 471 812 l 567 1014 l 761 1014 l 593 812 l 471 812 z "},"Ź":{"ha":848,"x_min":15,"x_max":823,"o":"m 15 0 l 15 181 l 537 826 l 74 826 l 74 994 l 802 994 l 802 838 l 257 168 l 823 168 l 823 0 l 15 0 m 295 1051 l 389 1254 l 602 1254 l 416 1051 l 295 1051 z "},"ź":{"ha":694,"x_min":23,"x_max":666,"o":"m 23 0 l 23 149 l 293 458 q 391 566 359 534 q 304 564 358 564 l 50 562 l 50 720 l 645 720 l 645 585 l 370 268 l 273 163 q 371 168 352 168 l 666 168 l 666 0 l 23 0 m 216 808 l 309 1011 l 523 1011 l 336 808 l 216 808 z "},"Ż":{"ha":848,"x_min":15,"x_max":823,"o":"m 15 0 l 15 181 l 537 826 l 74 826 l 74 994 l 802 994 l 802 838 l 257 168 l 823 168 l 823 0 l 15 0 m 342 1056 l 342 1236 l 530 1236 l 530 1056 l 342 1056 z "},"ż":{"ha":694,"x_min":23,"x_max":666,"o":"m 23 0 l 23 149 l 293 458 q 391 566 359 534 q 304 564 358 564 l 50 562 l 50 720 l 645 720 l 645 585 l 370 268 l 273 163 q 371 168 352 168 l 666 168 l 666 0 l 23 0 m 244 831 l 244 1011 l 431 1011 l 431 831 l 244 831 z "},"Γ":{"ha":835,"x_min":104,"x_max":804,"o":"m 104 994 l 804 994 l 804 825 l 305 825 l 305 0 l 104 0 l 104 994 z "},"Θ":{"ha":1080,"x_min":58,"x_max":1023,"o":"m 58 491 q 186 872 58 734 q 539 1011 313 1011 q 895 871 766 1011 q 1023 496 1023 730 q 895 122 1023 261 q 556 -17 766 -17 q 285 41 389 -17 q 120 216 181 100 q 58 491 58 332 m 265 498 q 345 239 265 324 q 541 155 425 155 q 736 238 656 155 q 815 500 815 322 q 742 753 815 667 q 541 840 669 840 q 339 752 412 840 q 265 498 265 665 m 379 413 l 379 581 l 702 581 l 702 413 l 379 413 z "},"Φ":{"ha":1140,"x_min":58,"x_max":1082,"o":"m 470 1019 l 671 1019 l 671 930 q 968 810 854 926 q 1082 509 1082 694 q 973 214 1082 337 q 671 79 865 90 l 671 -40 l 470 -40 l 470 79 q 167 214 275 90 q 58 509 58 338 q 105 718 58 627 q 246 868 153 810 q 470 930 339 927 l 470 1019 m 470 760 q 321 685 376 751 q 265 509 265 619 q 319 335 265 405 q 470 256 372 265 l 470 760 m 671 256 q 819 332 764 267 q 875 509 875 397 q 822 682 875 612 q 671 760 768 752 l 671 256 z "},"α":{"ha":854,"x_min":53,"x_max":808,"o":"m 645 720 l 808 720 q 744 519 770 642 q 718 348 718 397 q 741 183 718 285 q 801 0 765 81 l 641 0 q 629 38 637 14 q 604 119 614 79 q 366 -16 521 -16 q 137 102 220 -16 q 53 378 53 220 q 136 632 53 528 q 368 736 220 736 q 605 596 515 736 q 645 720 617 646 m 248 358 q 291 196 248 258 q 401 134 333 134 q 507 189 466 134 q 549 358 549 244 q 505 528 549 470 q 398 585 460 585 q 291 526 333 585 q 248 358 248 466 z "},"δ":{"ha":842,"x_min":53,"x_max":790,"o":"m 120 994 l 728 994 l 728 836 l 389 836 q 583 691 446 783 q 708 590 671 632 q 768 486 745 549 q 790 355 790 423 q 696 93 790 202 q 423 -16 603 -16 q 227 29 300 -16 q 103 162 154 75 q 53 362 53 250 q 127 591 53 492 q 320 709 202 690 q 218 784 244 763 l 120 860 l 120 994 m 237 340 q 290 184 237 239 q 420 130 343 130 q 551 187 496 130 q 606 347 606 244 q 553 508 606 451 q 425 565 499 565 q 287 502 338 565 q 237 340 237 439 z "},"ε":{"ha":659,"x_min":53,"x_max":643,"o":"m 448 445 l 448 297 q 290 278 332 297 q 248 212 248 259 q 277 156 248 178 q 347 134 307 134 q 517 201 418 134 l 643 77 q 336 -16 486 -16 q 134 43 215 -16 q 53 197 53 103 q 180 373 53 319 q 80 530 80 428 q 145 676 80 615 q 351 736 210 736 q 613 664 509 736 l 500 543 q 364 581 431 581 q 293 563 317 581 q 269 519 269 545 q 448 445 269 445 z "},"σ":{"ha":950,"x_min":53,"x_max":918,"o":"m 918 720 l 918 562 l 743 562 q 796 363 796 472 q 693 95 796 205 q 422 -16 591 -16 q 155 87 257 -16 q 53 357 53 190 q 153 629 53 522 q 427 736 253 736 q 545 720 478 736 l 918 720 m 248 360 q 298 198 248 257 q 425 139 347 139 q 550 196 499 139 q 600 363 600 253 q 552 521 600 461 q 425 581 504 581 q 297 522 347 581 q 248 360 248 463 z "},"τ":{"ha":620,"x_min":33,"x_max":587,"o":"m 33 720 l 587 720 l 587 562 l 410 562 l 410 0 l 220 0 l 220 562 l 33 562 l 33 720 z "},"φ":{"ha":994,"x_min":53,"x_max":941,"o":"m 387 736 l 345 568 q 272 499 296 553 q 248 383 248 445 q 286 234 248 301 q 403 140 324 166 l 403 450 q 419 619 403 564 q 484 705 436 674 q 609 736 532 736 q 791 684 715 736 q 904 546 867 631 q 941 378 941 461 q 850 122 941 234 q 593 -19 759 11 l 593 -274 l 403 -274 l 403 -19 q 147 112 241 4 q 53 372 53 220 q 149 648 53 544 q 387 736 233 738 m 593 131 q 745 402 745 199 q 715 528 745 474 q 642 581 686 581 q 606 561 619 581 q 593 425 593 540 l 593 131 z "},"‗":{"ha":767,"x_min":-13,"x_max":779,"o":"m -13 -275 l -13 -151 l 779 -151 l 779 -275 l -13 -275 m -13 -523 l -13 -399 l 779 -399 l 779 -523 l -13 -523 z "},"‼":{"ha":839,"x_min":125,"x_max":707,"o":"m 174 256 l 125 761 l 125 994 l 331 994 l 331 761 l 282 256 l 174 256 m 133 0 l 133 191 l 323 191 l 323 0 l 133 0 m 550 256 l 500 761 l 500 994 l 707 994 l 707 761 l 658 256 l 550 256 m 509 0 l 509 191 l 699 191 l 699 0 l 509 0 z "},"ⁿ":{"ha":550,"x_min":54,"x_max":496,"o":"m 496 352 l 356 352 l 356 582 q 350 667 356 648 q 328 695 343 685 q 288 706 312 706 q 210 669 235 706 q 194 557 194 644 l 194 352 l 54 352 l 54 803 l 185 803 l 185 752 l 197 763 q 255 798 219 784 q 330 812 290 812 q 424 791 385 812 q 480 734 463 770 q 496 630 496 699 l 496 352 z "},"₧":{"ha":1519,"x_min":28,"x_max":1493,"o":"m 28 994 l 313 994 q 534 923 453 994 q 631 723 616 852 l 689 723 l 689 938 l 884 938 l 884 723 l 1074 723 q 1205 742 1141 742 q 1339 720 1291 742 q 1419 664 1387 699 q 1466 592 1451 630 q 1482 505 1480 554 l 1303 505 q 1271 581 1299 554 q 1202 608 1243 608 q 1144 588 1167 608 q 1122 547 1122 568 q 1152 495 1122 516 q 1272 444 1181 474 q 1453 349 1413 395 q 1493 224 1493 302 q 1418 51 1493 119 q 1206 -18 1343 -18 q 1080 3 1131 -18 q 1013 45 1040 18 q 970 106 993 64 l 970 -13 q 888 -18 921 -18 q 755 10 808 -18 q 699 74 715 30 q 689 189 689 101 l 689 582 l 625 582 q 561 446 601 496 q 460 371 521 395 q 300 347 400 347 l 240 347 l 240 0 l 28 0 l 28 994 m 240 819 l 240 522 q 361 545 322 520 q 424 673 424 587 q 365 793 424 753 q 240 819 326 819 m 884 582 l 884 211 q 889 160 884 170 q 909 143 895 150 q 958 136 924 136 q 945 205 945 177 q 945 227 945 213 l 1112 227 q 1133 163 1118 183 q 1212 125 1165 125 q 1279 149 1251 125 q 1307 202 1307 174 q 1288 239 1307 220 q 1200 277 1268 257 q 1005 378 1057 320 q 954 511 954 435 q 970 582 954 545 l 884 582 z "},"←":{"ha":1389,"x_min":54,"x_max":1335,"o":"m 334 594 l 385 594 q 325 482 345 514 q 253 385 304 450 l 1335 385 l 1335 316 l 253 316 q 387 106 323 243 l 334 106 q 184 255 247 204 q 54 338 121 305 l 54 368 q 178 445 113 393 q 334 594 244 496 z "},"↑":{"ha":694,"x_min":104,"x_max":591,"o":"m 104 628 q 253 784 202 718 q 330 908 304 850 l 361 908 q 443 778 393 841 q 591 627 494 715 l 591 575 q 382 709 455 639 l 382 -291 l 313 -291 l 313 709 q 217 637 249 658 q 104 576 184 616 l 104 628 z "},"→":{"ha":1389,"x_min":54,"x_max":1335,"o":"m 1055 594 q 1211 445 1145 496 q 1335 368 1276 393 l 1335 338 q 1204 255 1267 305 q 1054 106 1141 204 l 1002 106 q 1135 316 1065 243 l 54 316 l 54 385 l 1135 385 q 1063 482 1084 450 q 1003 594 1043 514 l 1055 594 z "},"↓":{"ha":694,"x_min":104,"x_max":591,"o":"m 104 -11 l 104 41 q 217 -20 184 1 q 313 -92 249 -40 l 313 908 l 382 908 l 382 -92 q 591 42 455 -22 l 591 -10 q 443 -161 494 -98 q 361 -291 393 -224 l 330 -291 q 253 -167 304 -233 q 104 -11 202 -101 z "},"↔":{"ha":1389,"x_min":54,"x_max":1335,"o":"m 1335 366 l 1335 336 q 1209 257 1271 307 q 1059 107 1147 208 l 1005 107 q 1137 318 1052 224 l 252 318 q 383 107 336 224 l 329 107 q 179 257 241 208 q 54 336 117 307 l 54 366 q 179 445 117 396 q 329 595 241 494 l 383 595 q 252 385 336 479 l 1137 385 q 1005 595 1052 479 l 1059 595 q 1209 445 1147 494 q 1335 366 1271 396 z "},"↕":{"ha":694,"x_min":103,"x_max":591,"o":"m 332 992 l 362 992 q 441 866 392 928 q 591 716 490 804 l 591 662 q 380 794 475 709 l 380 -92 q 591 40 475 -6 l 591 -14 q 441 -164 490 -102 q 362 -290 392 -226 l 332 -290 q 253 -164 302 -226 q 103 -14 203 -102 l 103 40 q 314 -92 219 -6 l 314 794 q 103 662 219 709 l 103 716 q 253 866 203 804 q 332 992 302 928 z "},"↨":{"ha":694,"x_min":103,"x_max":591,"o":"m 332 992 l 362 992 q 441 866 392 928 q 591 716 490 804 l 591 662 q 380 794 475 709 l 380 -92 q 591 40 475 -6 l 591 -14 q 441 -164 490 -102 q 362 -290 392 -226 l 332 -290 q 253 -164 302 -226 q 103 -14 203 -102 l 103 40 q 314 -92 219 -6 l 314 794 q 103 662 219 709 l 103 716 q 253 866 203 804 q 332 992 302 928 m 104 -354 l 591 -354 l 591 -420 l 104 -420 l 104 -354 z "},"∟":{"ha":1360,"x_min":245,"x_max":1114,"o":"m 245 867 l 313 867 l 313 68 l 1114 68 l 1114 0 l 245 0 l 245 867 z "},"∩":{"ha":1003,"x_min":97,"x_max":901,"o":"m 237 0 l 97 0 l 97 406 q 102 626 97 578 q 134 767 110 711 q 210 877 158 823 q 338 965 262 931 q 499 998 414 998 q 655 966 581 998 q 785 880 730 935 q 865 764 841 825 q 898 610 890 703 q 901 406 901 573 l 901 0 l 762 0 l 762 411 q 758 593 762 554 q 734 711 752 664 q 689 781 722 745 q 604 839 656 816 q 498 861 553 861 q 390 837 444 861 q 303 773 336 812 q 256 687 269 734 q 239 576 243 640 q 237 411 237 541 l 237 0 z "},"≡":{"ha":810,"x_min":58,"x_max":753,"o":"m 58 703 l 58 879 l 753 879 l 753 703 l 58 703 m 58 403 l 58 578 l 753 578 l 753 403 l 58 403 m 58 102 l 58 277 l 753 277 l 753 102 l 58 102 z "},"⌂":{"ha":839,"x_min":106,"x_max":732,"o":"m 106 0 l 106 430 l 419 782 l 732 430 l 732 0 l 106 0 m 161 55 l 677 55 l 677 407 l 419 696 l 161 407 l 161 55 z "},"⌐":{"ha":811,"x_min":58,"x_max":753,"o":"m 233 255 l 58 255 l 58 728 l 753 728 l 753 554 l 233 554 l 233 255 z "},"⌠":{"ha":839,"x_min":370,"x_max":662,"o":"m 469 -349 l 370 -349 l 370 879 q 431 1103 370 1027 q 568 1178 492 1178 q 638 1156 614 1178 q 662 1104 662 1134 q 645 1059 662 1077 q 602 1042 627 1042 q 564 1052 582 1042 q 535 1083 551 1059 q 504 1108 519 1108 q 483 1100 492 1108 q 473 1082 476 1095 q 469 987 469 1059 l 469 -349 z "},"⌡":{"ha":839,"x_min":177,"x_max":469,"o":"m 370 1178 l 469 1178 l 469 -50 q 408 -274 469 -199 q 271 -349 347 -349 q 201 -327 225 -349 q 177 -275 177 -305 q 194 -231 177 -248 q 236 -213 212 -213 q 276 -224 257 -213 q 304 -255 288 -231 q 335 -279 319 -279 q 356 -271 347 -279 q 366 -252 363 -267 q 370 -159 370 -231 l 370 1178 z "},"─":{"ha":984,"x_min":-16,"x_max":999,"o":"m 999 362 l -16 362 l -16 481 l 999 481 l 999 362 z "},"│":{"ha":868,"x_min":310,"x_max":429,"o":"m 310 -421 l 310 1264 l 429 1264 l 429 -421 l 310 -421 z "},"┌":{"ha":984,"x_min":433,"x_max":1000,"o":"m 1000 481 l 1000 362 l 551 362 l 551 -421 l 433 -421 l 433 481 l 1000 481 z "},"┐":{"ha":984,"x_min":-16,"x_max":551,"o":"m 432 362 l -16 362 l -16 481 l 551 481 l 551 -421 l 432 -421 l 432 362 z "},"└":{"ha":984,"x_min":433,"x_max":1000,"o":"m 433 362 l 433 1264 l 551 1264 l 551 481 l 1000 481 l 1000 362 l 433 362 z "},"┘":{"ha":984,"x_min":-16,"x_max":551,"o":"m 551 362 l -16 362 l -16 481 l 432 481 l 432 1264 l 551 1264 l 551 362 z "},"├":{"ha":984,"x_min":433,"x_max":1000,"o":"m 433 -421 l 433 1264 l 551 1264 l 551 481 l 1000 481 l 1000 362 l 551 362 l 551 -421 l 433 -421 z "},"┤":{"ha":984,"x_min":-16,"x_max":551,"o":"m 432 -421 l 432 362 l -16 362 l -16 481 l 432 481 l 432 1264 l 551 1264 l 551 -421 l 432 -421 z "},"┬":{"ha":984,"x_min":-16,"x_max":999,"o":"m 432 362 l -16 362 l -16 481 l 999 481 l 999 362 l 551 362 l 551 -421 l 432 -421 l 432 362 z "},"┴":{"ha":984,"x_min":-16,"x_max":999,"o":"m 999 362 l -16 362 l -16 481 l 432 481 l 432 1264 l 551 1264 l 551 481 l 999 481 l 999 362 z "},"┼":{"ha":984,"x_min":-16,"x_max":999,"o":"m 432 362 l -16 362 l -16 481 l 432 481 l 432 1264 l 551 1264 l 551 481 l 999 481 l 999 362 l 551 362 l 551 -421 l 432 -421 l 432 362 z "},"═":{"ha":984,"x_min":-16,"x_max":999,"o":"m 999 491 l -16 491 l -16 610 l 999 610 l 999 491 m 999 233 l -16 233 l -16 352 l 999 352 l 999 233 z "},"║":{"ha":984,"x_min":304,"x_max":680,"o":"m 562 -421 l 562 1264 l 680 1264 l 680 -421 l 562 -421 m 304 -421 l 304 1264 l 422 1264 l 422 -421 l 304 -421 z "},"╒":{"ha":984,"x_min":433,"x_max":1000,"o":"m 433 -421 l 433 610 l 1000 610 l 1000 491 l 551 491 l 551 352 l 1000 352 l 1000 233 l 551 233 l 551 -421 l 433 -421 z "},"╓":{"ha":984,"x_min":304,"x_max":1000,"o":"m 304 -421 l 304 481 l 1000 481 l 1000 362 l 680 362 l 680 -421 l 562 -421 l 562 352 l 422 352 l 422 -421 l 304 -421 z "},"╔":{"ha":984,"x_min":304,"x_max":999,"o":"m 422 -421 l 304 -421 l 304 610 l 999 610 l 999 491 l 422 491 l 422 -421 m 680 233 l 680 -421 l 562 -421 l 562 352 l 999 352 l 999 233 l 680 233 z "},"╕":{"ha":984,"x_min":-16,"x_max":551,"o":"m 432 233 l -16 233 l -16 352 l 432 352 l 432 491 l -16 491 l -16 610 l 551 610 l 551 -421 l 432 -421 l 432 233 z "},"╖":{"ha":984,"x_min":-16,"x_max":680,"o":"m 303 -421 l 304 362 l -16 362 l -16 481 l 680 481 l 680 -421 l 561 -421 l 561 362 l 422 362 l 422 -421 l 303 -421 z "},"╗":{"ha":984,"x_min":-16,"x_max":680,"o":"m 561 -421 l 561 491 l -16 491 l -16 610 l 680 610 l 680 -421 l 561 -421 m 303 233 l -16 233 l -16 352 l 422 352 l 422 -421 l 303 -421 l 303 233 z "},"╘":{"ha":984,"x_min":433,"x_max":1000,"o":"m 433 233 l 433 1264 l 551 1264 l 551 610 l 1000 610 l 1000 491 l 551 491 l 551 352 l 1000 352 l 1000 233 l 433 233 z "},"╙":{"ha":984,"x_min":304,"x_max":1000,"o":"m 1000 362 l 304 362 l 304 1264 l 422 1264 l 422 481 l 562 481 l 562 1264 l 680 1264 l 680 481 l 1000 481 l 1000 362 z "},"╚":{"ha":984,"x_min":304,"x_max":999,"o":"m 422 1264 l 422 352 l 999 352 l 999 233 l 304 233 l 304 1264 l 422 1264 m 680 610 l 999 610 l 999 491 l 562 491 l 562 1264 l 680 1264 l 680 610 z "},"╛":{"ha":984,"x_min":-16,"x_max":551,"o":"m 551 233 l -16 233 l -16 352 l 432 352 l 432 491 l -16 491 l -16 610 l 432 610 l 432 1264 l 551 1264 l 551 233 z "},"╜":{"ha":984,"x_min":-16,"x_max":680,"o":"m 680 362 l -16 362 l -16 481 l 303 481 l 303 1264 l 422 1264 l 422 481 l 561 481 l 561 1264 l 680 1264 l 680 362 z "},"╝":{"ha":984,"x_min":-16,"x_max":680,"o":"m 561 1264 l 680 1264 l 680 233 l -16 233 l -16 352 l 561 352 l 561 1264 m 303 610 l 303 1264 l 422 1264 l 422 491 l -16 491 l -16 610 l 303 610 z "},"╞":{"ha":984,"x_min":433,"x_max":1000,"o":"m 433 -421 l 433 1264 l 551 1264 l 551 610 l 1000 610 l 1000 491 l 551 491 l 551 352 l 1000 352 l 1000 233 l 551 233 l 551 -421 l 433 -421 z "},"╟":{"ha":984,"x_min":304,"x_max":1000,"o":"m 562 -421 l 562 1264 l 680 1264 l 680 481 l 1000 481 l 1000 362 l 680 362 l 680 -421 l 562 -421 m 304 -421 l 304 1264 l 422 1264 l 422 -421 l 304 -421 z "},"╠":{"ha":984,"x_min":304,"x_max":1000,"o":"m 304 -421 l 304 1264 l 422 1264 l 422 -421 l 304 -421 m 562 491 l 562 1264 l 680 1264 l 680 610 l 1000 610 l 1000 491 l 562 491 m 562 -421 l 562 352 l 1000 352 l 1000 233 l 680 233 l 680 -421 l 562 -421 z "},"╡":{"ha":984,"x_min":-16,"x_max":551,"o":"m 432 233 l -16 233 l -16 352 l 433 352 l 432 491 l -16 491 l -16 610 l 432 610 l 432 1264 l 551 1264 l 551 -421 l 432 -421 l 432 233 z "},"╢":{"ha":984,"x_min":-16,"x_max":680,"o":"m 303 -421 l 304 362 l -16 362 l -16 481 l 303 481 l 303 1264 l 422 1264 l 422 -421 l 303 -421 m 561 -421 l 561 1264 l 680 1264 l 680 -421 l 561 -421 z "},"╣":{"ha":984,"x_min":-16,"x_max":680,"o":"m 561 -421 l 561 1264 l 680 1264 l 680 -421 l 561 -421 m 422 1264 l 422 491 l -16 491 l -16 610 l 303 610 l 303 1264 l 422 1264 m 303 233 l -16 233 l -16 352 l 422 352 l 422 -421 l 303 -421 l 303 233 z "},"╤":{"ha":984,"x_min":-16,"x_max":999,"o":"m 999 491 l -16 491 l -16 610 l 999 610 l 999 491 m 432 233 l -16 233 l -16 352 l 999 352 l 999 233 l 551 233 l 551 -421 l 432 -421 l 432 233 z "},"╥":{"ha":984,"x_min":-16,"x_max":999,"o":"m 303 -421 l 304 362 l -16 362 l -16 481 l 999 481 l 999 362 l 680 362 l 680 -421 l 561 -421 l 561 352 l 422 352 l 422 -421 l 303 -421 z "},"╦":{"ha":984,"x_min":-16,"x_max":999,"o":"m 999 491 l -16 491 l -16 610 l 999 610 l 999 491 m 303 233 l -16 233 l -16 352 l 422 352 l 422 -421 l 303 -421 l 303 233 m 561 -421 l 561 352 l 999 352 l 999 233 l 680 233 l 680 -421 l 561 -421 z "},"╧":{"ha":984,"x_min":-16,"x_max":999,"o":"m 999 491 l -16 491 l -16 610 l 432 610 l 432 1264 l 551 1264 l 551 610 l 999 610 l 999 491 m 999 233 l -16 233 l -16 352 l 999 352 l 999 233 z "},"╨":{"ha":984,"x_min":-16,"x_max":999,"o":"m 999 362 l -16 362 l -16 481 l 303 481 l 303 1264 l 422 1264 l 422 481 l 561 481 l 561 1264 l 680 1264 l 680 481 l 999 481 l 999 362 z "},"╩":{"ha":984,"x_min":-16,"x_max":999,"o":"m 422 491 l -16 491 l -16 610 l 303 610 l 303 1264 l 422 1264 l 422 491 m 999 491 l 561 491 l 561 1264 l 680 1264 l 680 610 l 999 610 l 999 491 m 999 233 l -16 233 l -16 352 l 999 352 l 999 233 z "},"╪":{"ha":984,"x_min":-16,"x_max":999,"o":"m 432 233 l -16 233 l -16 352 l 432 352 l 432 491 l -16 491 l -16 610 l 432 610 l 432 1264 l 551 1264 l 551 610 l 999 610 l 999 491 l 551 491 l 551 352 l 999 352 l 999 233 l 551 233 l 551 -421 l 432 -421 l 432 233 z "},"╫":{"ha":984,"x_min":-16,"x_max":999,"o":"m 303 -421 l 304 362 l -16 362 l -16 481 l 303 481 l 303 1264 l 422 1264 l 422 481 l 561 481 l 561 1264 l 680 1264 l 680 481 l 999 481 l 999 362 l 680 362 l 680 -421 l 561 -421 l 561 362 l 422 362 l 422 -421 l 303 -421 z "},"╬":{"ha":984,"x_min":-16,"x_max":999,"o":"m 680 610 l 999 610 l 999 491 l 562 491 l 562 1264 l 680 1264 l 680 610 m 303 610 l 303 1264 l 422 1264 l 422 491 l -16 491 l -16 610 l 303 610 m 303 233 l -16 233 l -16 352 l 422 352 l 422 -421 l 303 -421 l 303 233 m 680 233 l 680 -421 l 562 -421 l 562 352 l 999 352 l 999 233 l 680 233 z "},"▀":{"ha":984,"x_min":-16,"x_max":999,"o":"m 999 421 l -16 421 l -16 1264 l 999 1264 l 999 421 z "},"▄":{"ha":984,"x_min":-16,"x_max":999,"o":"m 999 -421 l -16 -421 l -16 421 l 999 421 l 999 -421 z "},"█":{"ha":984,"x_min":-16,"x_max":999,"o":"m -16 -421 l -16 1264 l 999 1264 l 999 -421 l -16 -421 z "},"▌":{"ha":984,"x_min":-16,"x_max":492,"o":"m -16 -421 l -16 1264 l 492 1264 l 492 -421 l -16 -421 z "},"▐":{"ha":984,"x_min":492,"x_max":1000,"o":"m 492 -421 l 492 1264 l 1000 1264 l 1000 -421 l 492 -421 z "},"░":{"ha":984,"x_min":69,"x_max":999,"o":"m 69 1264 l 154 1264 l 154 1179 l 69 1179 l 69 1264 m 407 1264 l 492 1264 l 492 1179 l 407 1179 l 407 1264 m 745 1264 l 830 1264 l 830 1179 l 745 1179 l 745 1264 m 238 1095 l 323 1095 l 323 1010 l 238 1010 l 238 1095 m 576 1095 l 661 1095 l 661 1010 l 576 1010 l 576 1095 m 914 1095 l 999 1095 l 999 1010 l 914 1010 l 914 1095 m 745 926 l 830 926 l 830 842 l 745 842 l 745 926 m 407 926 l 492 926 l 492 842 l 407 842 l 407 926 m 69 926 l 154 926 l 154 842 l 69 842 l 69 926 m 914 757 l 999 757 l 999 673 l 914 673 l 914 757 m 576 757 l 661 757 l 661 673 l 576 673 l 576 757 m 238 757 l 323 757 l 323 673 l 238 673 l 238 757 m 69 588 l 154 588 l 154 503 l 69 503 l 69 588 m 407 588 l 492 588 l 492 503 l 407 503 l 407 588 m 745 588 l 830 588 l 830 503 l 745 503 l 745 588 m 914 419 l 999 419 l 999 334 l 914 334 l 914 419 m 576 419 l 661 419 l 661 334 l 576 334 l 576 419 m 238 419 l 323 419 l 323 334 l 238 334 l 238 419 m 69 250 l 154 250 l 154 165 l 69 165 l 69 250 m 407 250 l 492 250 l 492 165 l 407 165 l 407 250 m 745 250 l 830 250 l 830 165 l 745 165 l 745 250 m 238 81 l 323 81 l 323 -3 l 238 -3 l 238 81 m 576 81 l 661 81 l 661 -3 l 576 -3 l 576 81 m 914 81 l 999 81 l 999 -3 l 914 -3 l 914 81 m 745 -88 l 830 -88 l 830 -173 l 745 -173 l 745 -88 m 407 -88 l 492 -88 l 492 -173 l 407 -173 l 407 -88 m 69 -88 l 154 -88 l 154 -173 l 69 -173 l 69 -88 m 238 -257 l 323 -257 l 323 -342 l 238 -342 l 238 -257 m 576 -257 l 661 -257 l 661 -342 l 576 -342 l 576 -257 m 914 -257 l 999 -257 l 999 -342 l 914 -342 l 914 -257 z "},"▒":{"ha":984,"x_min":-15,"x_max":999,"o":"m 70 1264 l 154 1264 l 154 1179 l 70 1179 l 70 1264 m 239 1264 l 323 1264 l 323 1179 l 239 1179 l 239 1264 m 408 1264 l 492 1264 l 492 1179 l 408 1179 l 408 1264 m 576 1264 l 661 1264 l 661 1179 l 576 1179 l 576 1264 m 746 1264 l 830 1264 l 830 1179 l 746 1179 l 746 1264 m 915 1264 l 999 1264 l 999 1179 l 915 1179 l 915 1264 m -15 1095 l 70 1095 l 70 1010 l -15 1010 l -15 1095 m 154 1095 l 239 1095 l 239 1010 l 154 1010 l 154 1095 m 323 1095 l 408 1095 l 408 1010 l 323 1010 l 323 1095 m 492 1095 l 576 1095 l 576 1010 l 492 1010 l 492 1095 m 661 1095 l 746 1095 l 746 1010 l 661 1010 l 661 1095 m 830 1095 l 915 1095 l 915 1010 l 830 1010 l 830 1095 m 70 926 l 154 926 l 154 842 l 70 842 l 70 926 m 239 926 l 323 926 l 323 842 l 239 842 l 239 926 m 408 926 l 492 926 l 492 842 l 408 842 l 408 926 m 576 926 l 661 926 l 661 842 l 576 842 l 576 926 m 746 926 l 830 926 l 830 842 l 746 842 l 746 926 m 915 926 l 999 926 l 999 842 l 915 842 l 915 926 m 154 757 l 239 757 l 239 673 l 154 673 l 154 757 m 323 757 l 408 757 l 408 673 l 323 673 l 323 757 m 492 757 l 576 757 l 576 673 l 492 673 l 492 757 m 661 757 l 746 757 l 746 673 l 661 673 l 661 757 m 830 757 l 915 757 l 915 673 l 830 673 l 830 757 m -15 757 l 70 757 l 70 673 l -15 673 l -15 757 m 70 588 l 154 588 l 154 503 l 70 503 l 70 588 m 239 588 l 323 588 l 323 503 l 239 503 l 239 588 m 408 588 l 492 588 l 492 503 l 408 503 l 408 588 m 576 588 l 661 588 l 661 503 l 576 503 l 576 588 m 746 588 l 830 588 l 830 503 l 746 503 l 746 588 m 915 588 l 999 588 l 999 503 l 915 503 l 915 588 m -15 419 l 70 419 l 70 334 l -15 334 l -15 419 m 323 419 l 408 419 l 408 334 l 323 334 l 323 419 m 492 419 l 576 419 l 576 334 l 492 334 l 492 419 m 661 419 l 746 419 l 746 334 l 661 334 l 661 419 m 830 419 l 915 419 l 915 334 l 830 334 l 830 419 m 154 419 l 239 419 l 239 334 l 154 334 l 154 419 m 915 250 l 999 250 l 999 165 l 915 165 l 915 250 m 746 250 l 830 250 l 830 165 l 746 165 l 746 250 m 576 250 l 661 250 l 661 165 l 576 165 l 576 250 m 408 250 l 492 250 l 492 165 l 408 165 l 408 250 m 239 250 l 323 250 l 323 165 l 239 165 l 239 250 m 70 250 l 154 250 l 154 165 l 70 165 l 70 250 m -15 81 l 70 81 l 70 -3 l -15 -3 l -15 81 m 154 81 l 239 81 l 239 -3 l 154 -3 l 154 81 m 323 81 l 408 81 l 408 -3 l 323 -3 l 323 81 m 492 81 l 576 81 l 576 -3 l 492 -3 l 492 81 m 661 81 l 746 81 l 746 -3 l 661 -3 l 661 81 m 830 81 l 915 81 l 915 -3 l 830 -3 l 830 81 m 915 -88 l 999 -88 l 999 -173 l 915 -173 l 915 -88 m 746 -88 l 830 -88 l 830 -173 l 746 -173 l 746 -88 m 576 -88 l 661 -88 l 661 -173 l 576 -173 l 576 -88 m 408 -88 l 492 -88 l 492 -173 l 408 -173 l 408 -88 m 239 -88 l 323 -88 l 323 -173 l 239 -173 l 239 -88 m 70 -88 l 154 -88 l 154 -173 l 70 -173 l 70 -88 m -15 -257 l 70 -257 l 70 -342 l -15 -342 l -15 -257 m 154 -257 l 239 -257 l 239 -342 l 154 -342 l 154 -257 m 323 -257 l 408 -257 l 408 -342 l 323 -342 l 323 -257 m 492 -257 l 576 -257 l 576 -342 l 492 -342 l 492 -257 m 661 -257 l 746 -257 l 746 -342 l 661 -342 l 661 -257 m 830 -257 l 915 -257 l 915 -342 l 830 -342 l 830 -257 z "},"▓":{"ha":1013,"x_min":-1,"x_max":1013,"o":"m 1013 1010 l 1013 757 l 929 757 l 929 673 l 1013 673 l 1013 419 l 929 419 l 929 334 l 1013 334 l 1013 81 l 929 81 l 929 -3 l 1013 -3 l 1013 -257 l 929 -257 l 929 -342 l 1013 -342 l 1013 -426 l -1 -426 l -1 -173 l 84 -173 l 84 -88 l -1 -88 l -1 165 l 84 165 l 84 250 l -1 250 l -1 503 l 84 503 l 84 588 l -1 588 l -1 842 l 84 842 l 84 926 l -1 926 l -1 1179 l 84 1179 l 84 1264 l 168 1264 l 168 1179 l 253 1179 l 253 1264 l 337 1264 l 337 1179 l 422 1179 l 422 1264 l 507 1264 l 507 1179 l 591 1179 l 591 1264 l 675 1264 l 675 1179 l 760 1179 l 760 1264 l 844 1264 l 844 1179 l 929 1179 l 929 1264 l 1013 1264 l 1013 1095 l 929 1095 l 929 1010 l 1013 1010 m 84 1095 l 84 1010 l 168 1010 l 168 1095 l 84 1095 m 253 1095 l 253 1010 l 337 1010 l 337 1095 l 253 1095 m 422 1095 l 422 1010 l 507 1010 l 507 1095 l 422 1095 m 591 1095 l 591 1010 l 675 1010 l 675 1095 l 591 1095 m 760 1095 l 760 1010 l 844 1010 l 844 1095 l 760 1095 m 929 926 l 844 926 l 844 842 l 929 842 l 929 926 m 760 926 l 675 926 l 675 842 l 760 842 l 760 926 m 591 926 l 507 926 l 507 842 l 591 842 l 591 926 m 422 926 l 337 926 l 337 842 l 422 842 l 422 926 m 253 926 l 168 926 l 168 842 l 253 842 l 253 926 m 84 757 l 84 673 l 168 673 l 168 757 l 84 757 m 253 757 l 253 673 l 337 673 l 337 757 l 253 757 m 422 757 l 422 673 l 507 673 l 507 757 l 422 757 m 591 757 l 591 673 l 675 673 l 675 757 l 591 757 m 760 757 l 760 673 l 844 673 l 844 757 l 760 757 m 253 588 l 168 588 l 168 503 l 253 503 l 253 588 m 337 588 l 337 503 l 422 503 l 422 588 l 337 588 m 507 588 l 507 503 l 591 503 l 591 588 l 507 588 m 675 588 l 675 503 l 760 503 l 760 588 l 675 588 m 844 588 l 844 503 l 929 503 l 929 588 l 844 588 m 84 419 l 84 334 l 168 334 l 168 419 l 84 419 m 422 419 l 422 334 l 507 334 l 507 419 l 422 419 m 337 334 l 337 419 l 253 419 l 253 334 l 337 334 m 591 419 l 591 334 l 675 334 l 675 419 l 591 419 m 760 419 l 760 334 l 844 334 l 844 419 l 760 419 m 929 165 l 929 250 l 844 250 l 844 165 l 929 165 m 760 165 l 760 250 l 675 250 l 675 165 l 760 165 m 591 165 l 591 250 l 507 250 l 507 165 l 591 165 m 422 165 l 422 250 l 337 250 l 337 165 l 422 165 m 253 165 l 253 250 l 168 250 l 168 165 l 253 165 m 84 81 l 84 -3 l 168 -3 l 168 81 l 84 81 m 253 81 l 253 -3 l 337 -3 l 337 81 l 253 81 m 422 81 l 422 -3 l 507 -3 l 507 81 l 422 81 m 591 81 l 591 -3 l 675 -3 l 675 81 l 591 81 m 760 81 l 760 -3 l 844 -3 l 844 81 l 760 81 m 929 -173 l 929 -88 l 844 -88 l 844 -173 l 929 -173 m 760 -173 l 760 -88 l 675 -88 l 675 -173 l 760 -173 m 591 -173 l 591 -88 l 507 -88 l 507 -173 l 591 -173 m 422 -173 l 422 -88 l 337 -88 l 337 -173 l 422 -173 m 253 -173 l 253 -88 l 168 -88 l 168 -173 l 253 -173 m 84 -257 l 84 -342 l 168 -342 l 168 -257 l 84 -257 m 253 -257 l 253 -342 l 337 -342 l 337 -257 l 253 -257 m 422 -257 l 422 -342 l 507 -342 l 507 -257 l 422 -257 m 591 -257 l 591 -342 l 675 -342 l 675 -257 l 591 -257 m 760 -257 l 760 -342 l 844 -342 l 844 -257 l 760 -257 z "},"■":{"ha":839,"x_min":99,"x_max":739,"o":"m 99 640 l 739 640 l 739 0 l 99 0 l 99 640 z "},"▬":{"ha":1389,"x_min":0,"x_max":1388,"o":"m 0 477 l 1388 477 l 1388 215 l 0 215 l 0 477 z "},"▲":{"ha":1375,"x_min":206,"x_max":1169,"o":"m 206 0 l 688 962 l 1169 0 l 206 0 z "},"►":{"ha":1375,"x_min":195,"x_max":1179,"o":"m 195 961 l 1179 470 l 195 -21 l 195 961 z "},"▼":{"ha":1375,"x_min":206,"x_max":1169,"o":"m 1169 941 l 688 -21 l 206 941 l 1169 941 z "},"◄":{"ha":1375,"x_min":195,"x_max":1179,"o":"m 1179 961 l 1179 -21 l 195 470 l 1179 961 z "},"○":{"ha":839,"x_min":121,"x_max":718,"o":"m 419 690 q 566 652 494 690 q 678 541 638 613 q 718 392 718 469 q 631 180 718 268 q 420 93 543 93 q 208 180 296 93 q 121 392 121 268 q 161 542 121 470 q 273 652 201 613 q 419 690 345 690 m 420 639 q 298 607 357 639 q 205 515 239 575 q 172 392 172 456 q 245 217 172 290 q 420 144 317 144 q 594 217 522 144 q 667 392 667 290 q 633 515 667 456 q 541 607 600 575 q 420 639 482 639 z "},"◘":{"ha":839,"x_min":87,"x_max":751,"o":"m 87 0 l 87 665 l 751 665 l 751 0 l 87 0 m 419 469 q 322 429 362 469 q 282 332 282 389 q 322 236 282 276 q 419 195 363 195 q 516 236 476 195 q 556 332 556 276 q 516 429 556 389 q 419 469 476 469 z "},"◙":{"ha":839,"x_min":28,"x_max":812,"o":"m 28 0 l 28 783 l 812 783 l 812 0 l 28 0 m 420 690 q 273 652 345 690 q 161 541 201 613 q 121 391 121 469 q 209 180 121 268 q 420 93 296 93 q 631 180 544 93 q 719 391 719 268 q 679 541 719 469 q 567 652 639 613 q 420 690 496 690 m 420 639 q 542 607 482 639 q 634 516 601 575 q 667 391 667 456 q 595 217 667 289 q 420 144 523 144 q 245 217 317 144 q 173 391 173 289 q 206 516 173 456 q 299 607 239 575 q 420 639 358 639 z "},"☺":{"ha":1418,"x_min":277,"x_max":1141,"o":"m 1141 351 q 1015 46 1141 172 q 709 -81 888 -81 q 404 46 530 -81 q 277 351 277 172 q 404 657 277 531 q 709 784 530 784 q 1015 657 888 784 q 1141 351 1141 531 m 1079 351 q 971 613 1079 505 q 709 721 863 721 q 448 613 556 721 q 340 351 340 505 q 448 91 340 199 q 709 -18 556 -18 q 971 91 863 -18 q 1079 351 1079 199 m 598 441 q 582 402 598 418 q 543 386 566 386 q 505 402 521 386 q 488 441 488 418 q 505 480 488 464 q 543 496 521 496 q 582 480 566 496 q 598 441 598 464 m 930 441 q 914 402 930 418 q 875 386 898 386 q 836 402 852 386 q 820 441 820 418 q 836 480 820 464 q 875 496 852 496 q 914 480 898 496 q 930 441 930 464 m 510 212 l 552 237 q 709 139 606 139 q 866 237 813 139 l 909 212 q 825 114 875 148 q 709 80 775 80 q 593 114 643 80 q 510 212 544 148 z "},"☻":{"ha":1461,"x_min":298,"x_max":1163,"o":"m 1163 351 q 1037 46 1163 172 q 731 -81 910 -81 q 425 46 552 -81 q 298 351 298 172 q 425 657 298 531 q 731 784 552 784 q 1037 657 910 784 q 1163 351 1163 531 m 620 441 q 604 480 620 464 q 565 496 588 496 q 526 480 543 496 q 510 441 510 464 q 526 402 510 418 q 565 386 543 386 q 604 402 588 386 q 620 441 620 418 m 951 441 q 936 480 951 464 q 897 496 920 496 q 858 480 874 496 q 842 441 842 464 q 858 402 842 418 q 897 386 874 386 q 936 402 920 386 q 951 441 951 418 m 532 212 q 615 114 566 148 q 731 80 665 80 q 847 114 797 80 q 930 212 897 148 l 888 237 q 731 139 835 139 q 574 237 627 139 l 532 212 z "},"☼":{"ha":1273,"x_min":11,"x_max":1263,"o":"m 612 1099 l 663 1099 l 663 871 q 786 845 732 866 q 900 775 840 823 l 1097 968 l 1132 932 l 938 738 q 1008 623 987 673 q 1035 495 1034 558 l 1263 495 l 1263 448 l 1036 448 q 939 213 1023 320 l 1132 16 l 1093 -18 l 901 173 q 785 105 835 124 q 663 77 736 85 l 663 -151 l 612 -151 l 612 77 q 484 109 536 87 q 378 171 432 130 l 178 -18 l 144 17 l 337 211 q 269 323 292 268 q 239 451 246 379 l 11 451 l 11 498 l 239 498 q 267 624 245 570 q 336 734 290 677 l 144 929 l 176 968 l 374 777 q 496 845 443 824 q 612 871 549 865 l 612 1099 m 983 474 q 881 720 983 618 q 635 821 779 821 q 390 720 492 821 q 288 474 288 618 q 390 228 288 330 q 635 126 492 126 q 881 228 779 126 q 983 474 983 330 z "},"♀":{"ha":1042,"x_min":165,"x_max":876,"o":"m 540 313 l 540 40 l 851 40 l 851 0 l 540 0 l 540 -298 l 500 -298 l 500 0 l 188 0 l 188 40 l 500 40 l 500 313 q 347 357 430 313 q 215 487 264 401 q 165 667 165 572 q 213 844 165 759 q 344 975 260 928 q 521 1022 428 1022 q 697 975 613 1022 q 829 843 782 928 q 876 667 876 759 q 778 422 876 525 q 540 313 681 319 m 520 984 q 364 943 440 984 q 245 825 288 902 q 202 666 202 749 q 295 440 202 534 q 520 347 389 347 q 746 440 652 347 q 839 666 839 534 q 796 825 839 749 q 677 943 753 902 q 520 984 601 984 z "},"♂":{"ha":1042,"x_min":75,"x_max":960,"o":"m 825 1099 l 849 1088 l 960 636 l 921 626 l 825 1020 l 582 499 q 734 362 682 448 q 785 178 785 276 q 739 1 785 85 q 607 -131 692 -83 q 430 -178 523 -178 q 253 -131 338 -178 q 122 1 169 -83 q 75 178 75 85 q 179 429 75 325 q 432 532 283 532 q 545 514 485 532 l 789 1037 l 425 857 l 408 893 l 825 1099 m 430 496 q 274 455 350 496 q 155 337 197 414 q 112 178 112 260 q 205 -48 112 45 q 430 -141 298 -141 q 655 -48 562 -141 q 749 178 749 45 q 706 337 749 260 q 587 455 663 414 q 430 496 511 496 z "},"♠":{"ha":738,"x_min":39,"x_max":699,"o":"m 370 835 q 424 704 387 762 q 554 561 460 646 q 673 431 648 476 q 699 338 699 385 q 655 230 699 273 q 549 186 612 186 q 453 219 496 186 q 377 315 410 252 q 403 157 378 216 q 485 65 429 98 q 633 25 541 31 l 638 0 l 100 0 l 106 25 q 299 98 231 25 q 366 315 368 171 q 290 219 335 251 q 188 186 245 186 q 83 231 127 186 q 39 336 39 275 q 62 426 39 386 q 161 538 92 481 q 262 631 229 594 q 334 731 311 687 q 370 835 357 775 z "},"♣":{"ha":911,"x_min":37,"x_max":873,"o":"m 745 0 l 170 0 l 175 23 q 323 70 287 47 q 413 172 378 104 q 448 315 448 240 q 448 347 448 326 q 347 224 406 262 q 226 185 288 185 q 92 240 147 185 q 37 375 37 295 q 87 508 37 454 q 201 562 138 562 q 312 527 242 562 q 275 598 283 574 q 267 650 267 623 q 320 781 267 728 q 454 835 374 835 q 588 781 534 835 q 643 654 643 728 q 596 527 643 593 q 665 557 653 554 q 706 563 683 563 q 824 510 774 563 q 873 378 873 456 q 819 241 873 296 q 688 186 764 186 q 600 207 645 186 q 522 262 555 227 q 463 347 498 287 q 495 176 465 239 q 588 72 526 113 q 739 23 630 44 l 745 0 z "},"♥":{"ha":825,"x_min":43,"x_max":782,"o":"m 414 -16 q 354 134 393 64 q 203 352 315 204 q 102 490 121 460 q 57 577 71 537 q 43 657 43 616 q 93 783 43 732 q 217 834 143 834 q 347 781 292 834 q 414 664 388 742 q 477 781 436 741 q 607 835 533 835 q 731 784 680 835 q 782 664 782 734 q 752 537 782 603 q 637 363 722 471 q 475 133 526 223 q 414 -16 435 62 z "},"♦":{"ha":709,"x_min":43,"x_max":666,"o":"m 353 835 q 502 615 414 732 q 666 410 604 479 q 502 205 616 357 q 354 -16 410 81 q 304 66 336 19 q 168 255 249 147 q 43 410 150 279 q 220 632 112 488 q 353 835 300 739 z "},"♪":{"ha":694,"x_min":25,"x_max":669,"o":"m 330 924 l 355 924 q 509 915 472 924 q 604 863 563 901 q 652 782 634 834 q 669 661 669 730 l 669 591 l 602 591 l 602 621 q 583 699 602 667 q 526 748 564 731 q 416 770 476 770 l 397 770 l 397 203 q 375 76 397 121 q 300 2 353 30 q 185 -25 248 -25 q 68 17 111 -25 q 25 126 25 58 q 77 246 25 197 q 212 294 128 294 q 330 263 264 294 l 330 924 z "},"♫":{"ha":1042,"x_min":58,"x_max":902,"o":"m 362 862 l 902 1030 l 902 279 q 881 152 902 195 q 808 81 859 109 q 692 54 757 54 q 574 96 618 54 q 530 205 530 138 q 583 322 530 273 q 718 372 635 372 q 765 367 745 372 q 833 342 786 362 l 833 833 l 429 708 l 429 141 q 408 13 429 59 q 333 -60 386 -33 q 218 -87 280 -87 q 101 -45 144 -87 q 58 64 58 -3 q 109 183 58 135 q 244 232 161 232 q 362 201 297 232 l 362 862 z "},"Ĳ":{"ha":1090,"x_min":95,"x_max":983,"o":"m 95 0 l 95 994 l 296 994 l 296 0 l 95 0 m 783 994 l 983 994 l 983 365 q 962 175 983 241 q 856 36 932 88 q 654 -17 779 -17 q 427 65 507 -17 q 347 307 348 148 l 536 329 q 562 208 540 243 q 661 155 594 155 q 755 193 728 155 q 783 352 783 231 l 783 994 z "},"ĳ":{"ha":772,"x_min":100,"x_max":663,"o":"m 100 818 l 100 994 l 290 994 l 290 818 l 100 818 m 100 0 l 100 720 l 290 720 l 290 0 l 100 0 m 473 818 l 473 994 l 663 994 l 663 818 l 473 818 m 663 720 l 663 22 q 645 -172 663 -115 q 576 -260 627 -229 q 446 -292 525 -292 q 384 -287 417 -292 q 313 -272 351 -282 l 347 -109 q 372 -114 360 -112 q 394 -115 384 -115 q 442 -103 423 -115 q 467 -73 460 -90 q 473 33 473 -55 l 473 720 l 663 720 z "},"ŉ":{"ha":984,"x_min":-39,"x_max":882,"o":"m -23 994 l 168 994 l 168 858 q 153 727 168 775 q 99 642 139 680 q -1 582 60 604 l -39 661 q 43 713 19 680 q 69 804 68 746 l -23 804 l -23 994 m 882 0 l 692 0 l 692 368 q 680 518 692 484 q 640 572 667 553 q 574 591 612 591 q 485 564 524 591 q 431 492 446 536 q 416 326 416 447 l 416 0 l 226 0 l 226 720 l 403 720 l 403 614 q 640 736 497 736 q 755 714 703 736 q 834 656 808 691 q 872 576 861 621 q 882 448 882 531 l 882 0 z "},"′":{"ha":333,"x_min":96,"x_max":342,"o":"m 96 641 l 99 826 l 135 994 l 342 994 l 307 826 l 236 641 l 96 641 z "},"″":{"ha":665,"x_min":96,"x_max":648,"o":"m 96 641 l 99 826 l 135 994 l 342 994 l 307 826 l 236 641 l 96 641 m 401 641 l 405 826 l 441 994 l 648 994 l 612 826 l 542 641 l 401 641 z "},"℅":{"ha":1230,"x_min":24,"x_max":1206,"o":"m 491 852 l 360 828 q 330 887 353 867 q 269 907 307 907 q 190 872 220 907 q 160 758 160 838 q 190 632 160 669 q 272 595 220 595 q 333 616 309 595 q 367 690 357 637 l 498 668 q 420 532 477 578 q 266 486 362 486 q 89 556 155 486 q 24 749 24 625 q 90 942 24 873 q 269 1011 155 1011 q 413 971 359 1011 q 491 852 468 932 m 395 -38 l 254 -38 l 784 1011 l 920 1011 l 395 -38 m 688 258 q 760 441 688 369 q 947 513 832 513 q 1133 439 1060 513 q 1206 252 1206 366 q 1132 63 1206 138 q 946 -12 1059 -12 q 759 60 830 -12 q 688 258 688 132 m 824 251 q 859 137 824 176 q 947 97 895 97 q 1034 137 999 97 q 1069 252 1069 176 q 1034 366 1069 326 q 947 405 999 405 q 859 366 895 405 q 824 251 824 326 z "},"ℓ":{"ha":679,"x_min":16,"x_max":629,"o":"m 46 252 l 16 426 l 117 475 q 144 795 119 698 q 243 951 170 892 q 406 1011 316 1011 q 566 946 503 1011 q 629 776 629 881 q 603 655 629 709 q 506 526 567 582 q 308 381 445 470 q 307 361 307 368 q 339 175 307 218 q 427 131 372 131 q 501 147 463 131 q 608 214 539 163 l 608 51 q 505 -2 549 12 q 409 -16 462 -16 q 200 73 273 -16 q 123 287 144 140 q 46 252 85 268 m 308 583 q 441 703 406 654 q 467 783 467 741 q 449 836 467 816 q 404 856 431 856 q 351 831 373 856 q 315 745 321 797 q 308 583 311 715 z "},"□":{"ha":839,"x_min":99,"x_max":739,"o":"m 99 640 l 739 640 l 739 0 l 99 0 l 99 640 m 151 589 l 151 52 l 688 52 l 688 589 l 151 589 z "},"▪":{"ha":492,"x_min":62,"x_max":431,"o":"m 431 643 l 431 275 l 62 275 l 62 643 l 431 643 z "},"▫":{"ha":492,"x_min":62,"x_max":431,"o":"m 431 643 l 431 275 l 62 275 l 62 643 l 431 643 m 379 591 l 114 591 l 114 326 l 379 326 l 379 591 z "},"●":{"ha":839,"x_min":121,"x_max":718,"o":"m 420 690 q 566 652 494 690 q 678 541 638 613 q 718 392 718 469 q 631 180 718 268 q 420 93 543 93 q 208 180 296 93 q 121 392 121 268 q 161 542 121 470 q 273 652 201 613 q 420 690 345 690 z "},"◦":{"ha":492,"x_min":52,"x_max":439,"o":"m 246 652 q 383 596 327 652 q 439 458 439 539 q 383 321 439 378 q 246 264 326 264 q 109 321 165 264 q 52 458 52 378 q 109 596 52 539 q 246 652 165 652 m 246 601 q 145 559 186 601 q 104 458 104 517 q 145 358 104 399 q 246 316 187 316 q 347 358 305 316 q 389 458 389 399 q 347 559 389 517 q 246 601 305 601 z "},"Ā":{"ha":1003,"x_min":0,"x_max":998,"o":"m 998 0 l 779 0 l 692 226 l 295 226 l 213 0 l 0 0 l 387 994 l 600 994 l 998 0 m 628 393 l 491 762 l 357 393 l 628 393 m 275 1084 l 275 1209 l 711 1209 l 711 1084 l 275 1084 z "},"ā":{"ha":772,"x_min":50,"x_max":726,"o":"m 242 500 l 69 532 q 170 686 98 636 q 381 736 241 736 q 571 706 509 736 q 659 630 633 676 q 684 459 684 583 l 682 237 q 691 97 682 142 q 726 0 701 52 l 537 0 q 519 56 530 19 q 512 79 514 73 q 408 7 463 31 q 289 -16 352 -16 q 114 44 178 -16 q 50 197 50 104 q 79 306 50 258 q 160 379 108 353 q 312 423 213 404 q 497 470 446 448 l 497 489 q 470 567 497 544 q 368 591 443 591 q 288 571 317 591 q 242 500 260 551 m 497 346 q 381 317 460 334 q 277 283 302 300 q 240 216 240 257 q 270 147 240 176 q 346 118 300 118 q 444 152 397 118 q 490 215 479 178 q 497 308 497 239 l 497 346 m 168 839 l 168 964 l 604 964 l 604 839 l 168 839 z "},"Ĉ":{"ha":1003,"x_min":66,"x_max":932,"o":"m 737 366 l 932 304 q 783 62 887 141 q 519 -17 679 -17 q 193 118 321 -17 q 66 488 66 254 q 194 874 66 736 q 531 1011 322 1011 q 827 903 713 1011 q 929 720 895 840 l 730 673 q 657 795 713 750 q 521 840 601 840 q 341 760 410 840 q 273 503 273 681 q 340 235 273 315 q 517 155 408 155 q 654 205 597 155 q 737 366 712 256 m 292 1084 l 434 1284 l 610 1284 l 751 1084 l 597 1084 l 519 1185 l 446 1084 l 292 1084 z "},"ĉ":{"ha":772,"x_min":58,"x_max":737,"o":"m 728 507 l 540 473 q 497 558 530 530 q 410 587 463 587 q 296 537 338 587 q 254 373 254 488 q 297 192 254 245 q 412 139 340 139 q 501 170 467 139 q 550 276 536 201 l 737 244 q 625 50 708 115 q 404 -16 543 -16 q 152 83 245 -16 q 58 359 58 183 q 152 637 58 538 q 407 736 246 736 q 616 680 538 736 q 728 507 694 623 m 157 811 l 299 1011 l 475 1011 l 616 811 l 463 811 l 384 912 l 311 811 l 157 811 z "},"Ċ":{"ha":1003,"x_min":66,"x_max":932,"o":"m 737 366 l 932 304 q 783 62 887 141 q 519 -17 679 -17 q 193 118 321 -17 q 66 488 66 254 q 194 874 66 736 q 531 1011 322 1011 q 827 903 713 1011 q 929 720 895 840 l 730 673 q 657 795 713 750 q 521 840 601 840 q 341 760 410 840 q 273 503 273 681 q 340 235 273 315 q 517 155 408 155 q 654 205 597 155 q 737 366 712 256 m 426 1084 l 426 1264 l 613 1264 l 613 1084 l 426 1084 z "},"ċ":{"ha":772,"x_min":58,"x_max":737,"o":"m 728 507 l 540 473 q 497 558 530 530 q 410 587 463 587 q 296 537 338 587 q 254 373 254 488 q 297 192 254 245 q 412 139 340 139 q 501 170 467 139 q 550 276 536 201 l 737 244 q 625 50 708 115 q 404 -16 543 -16 q 152 83 245 -16 q 58 359 58 183 q 152 637 58 538 q 407 736 246 736 q 616 680 538 736 q 728 507 694 623 m 294 831 l 294 1011 l 481 1011 l 481 831 l 294 831 z "},"Ē":{"ha":926,"x_min":101,"x_max":857,"o":"m 101 0 l 101 994 l 838 994 l 838 826 l 302 826 l 302 606 l 801 606 l 801 438 l 302 438 l 302 168 l 857 168 l 857 0 l 101 0 m 245 1084 l 245 1209 l 682 1209 l 682 1084 l 245 1084 z "},"ē":{"ha":772,"x_min":44,"x_max":721,"o":"m 517 229 l 707 197 q 591 38 670 93 q 393 -16 512 -16 q 115 106 205 -16 q 44 355 44 205 q 138 635 44 534 q 374 736 231 736 q 628 630 535 736 q 717 305 721 524 l 239 305 q 286 173 241 220 q 395 126 330 126 q 471 151 440 126 q 517 229 501 175 m 528 422 q 485 548 526 505 q 386 591 444 591 q 283 545 323 591 q 243 422 242 500 l 528 422 m 166 839 l 166 964 l 603 964 l 603 839 l 166 839 z "},"Ĕ":{"ha":926,"x_min":101,"x_max":857,"o":"m 101 0 l 101 994 l 838 994 l 838 826 l 302 826 l 302 606 l 801 606 l 801 438 l 302 438 l 302 168 l 857 168 l 857 0 l 101 0 m 580 1275 l 673 1275 q 608 1130 665 1183 q 461 1078 551 1078 q 314 1130 371 1078 q 250 1275 258 1183 l 342 1275 q 376 1202 347 1227 q 461 1177 406 1177 q 546 1202 517 1177 q 580 1275 575 1227 z "},"ĕ":{"ha":772,"x_min":44,"x_max":721,"o":"m 517 229 l 707 197 q 591 38 670 93 q 393 -16 512 -16 q 115 106 205 -16 q 44 355 44 205 q 138 635 44 534 q 374 736 231 736 q 628 630 535 736 q 717 305 721 524 l 239 305 q 286 173 241 220 q 395 126 330 126 q 471 151 440 126 q 517 229 501 175 m 528 422 q 485 548 526 505 q 386 591 444 591 q 283 545 323 591 q 243 422 242 500 l 528 422 m 494 1011 l 587 1011 q 523 866 579 919 q 376 814 466 814 q 229 866 286 814 q 164 1011 172 919 l 257 1011 q 291 938 262 963 q 376 913 320 913 q 460 938 431 913 q 494 1011 490 963 z "},"Ė":{"ha":926,"x_min":101,"x_max":857,"o":"m 101 0 l 101 994 l 838 994 l 838 826 l 302 826 l 302 606 l 801 606 l 801 438 l 302 438 l 302 168 l 857 168 l 857 0 l 101 0 m 371 1084 l 371 1264 l 558 1264 l 558 1084 l 371 1084 z "},"ė":{"ha":772,"x_min":44,"x_max":721,"o":"m 517 229 l 707 197 q 591 38 670 93 q 393 -16 512 -16 q 115 106 205 -16 q 44 355 44 205 q 138 635 44 534 q 374 736 231 736 q 628 630 535 736 q 717 305 721 524 l 239 305 q 286 173 241 220 q 395 126 330 126 q 471 151 440 126 q 517 229 501 175 m 528 422 q 485 548 526 505 q 386 591 444 591 q 283 545 323 591 q 243 422 242 500 l 528 422 m 292 831 l 292 1011 l 479 1011 l 479 831 l 292 831 z "},"Ĝ":{"ha":1080,"x_min":66,"x_max":996,"o":"m 564 366 l 564 533 l 996 533 l 996 137 q 813 30 933 76 q 571 -17 694 -17 q 299 48 415 -17 q 125 236 183 114 q 66 500 66 357 q 132 777 66 656 q 322 962 197 897 q 560 1011 418 1011 q 849 933 745 1011 q 983 719 954 856 l 784 682 q 705 797 763 755 q 560 840 647 840 q 351 756 429 840 q 273 509 273 673 q 352 243 273 332 q 558 155 431 155 q 685 179 621 155 q 793 239 748 204 l 793 366 l 564 366 m 326 1084 l 468 1284 l 644 1284 l 785 1084 l 631 1084 l 553 1185 l 479 1084 l 326 1084 z "},"ĝ":{"ha":848,"x_min":57,"x_max":760,"o":"m 82 -47 l 300 -74 q 325 -126 305 -112 q 410 -146 352 -146 q 522 -124 485 -146 q 560 -76 547 -109 q 569 12 569 -52 l 569 117 q 353 0 484 0 q 123 123 208 0 q 57 364 57 220 q 144 641 57 545 q 361 736 231 736 q 581 619 494 736 l 581 720 l 760 720 l 760 74 q 739 -117 760 -54 q 680 -216 718 -180 q 578 -272 642 -252 q 418 -292 515 -292 q 158 -230 235 -292 q 81 -71 81 -167 q 82 -47 81 -61 m 252 375 q 297 207 252 260 q 406 154 341 154 q 524 209 476 154 q 572 370 572 263 q 526 536 572 482 q 410 591 480 591 q 297 537 341 591 q 252 375 252 484 m 195 811 l 338 1011 l 514 1011 l 654 811 l 501 811 l 422 912 l 349 811 l 195 811 z "},"Ġ":{"ha":1080,"x_min":66,"x_max":996,"o":"m 564 366 l 564 533 l 996 533 l 996 137 q 813 30 933 76 q 571 -17 694 -17 q 299 48 415 -17 q 125 236 183 114 q 66 500 66 357 q 132 777 66 656 q 322 962 197 897 q 560 1011 418 1011 q 849 933 745 1011 q 983 719 954 856 l 784 682 q 705 797 763 755 q 560 840 647 840 q 351 756 429 840 q 273 509 273 673 q 352 243 273 332 q 558 155 431 155 q 685 179 621 155 q 793 239 748 204 l 793 366 l 564 366 m 463 1084 l 463 1264 l 650 1264 l 650 1084 l 463 1084 z "},"ġ":{"ha":848,"x_min":57,"x_max":760,"o":"m 82 -47 l 300 -74 q 325 -126 305 -112 q 410 -146 352 -146 q 522 -124 485 -146 q 560 -76 547 -109 q 569 12 569 -52 l 569 117 q 353 0 484 0 q 123 123 208 0 q 57 364 57 220 q 144 641 57 545 q 361 736 231 736 q 581 619 494 736 l 581 720 l 760 720 l 760 74 q 739 -117 760 -54 q 680 -216 718 -180 q 578 -272 642 -252 q 418 -292 515 -292 q 158 -230 235 -292 q 81 -71 81 -167 q 82 -47 81 -61 m 252 375 q 297 207 252 260 q 406 154 341 154 q 524 209 476 154 q 572 370 572 263 q 526 536 572 482 q 410 591 480 591 q 297 537 341 591 q 252 375 252 484 m 332 831 l 332 1011 l 519 1011 l 519 831 l 332 831 z "},"Ģ":{"ha":1080,"x_min":66,"x_max":996,"o":"m 600 -16 q 704 -137 704 -46 q 637 -245 704 -207 q 470 -284 571 -284 q 335 -273 380 -284 l 335 -193 q 460 -201 402 -201 q 575 -137 575 -201 q 554 -97 575 -115 q 488 -80 534 -80 q 400 -94 446 -80 l 417 -26 q 486 -12 443 -17 q 173 158 279 17 q 66 500 66 299 q 126 766 66 648 q 295 947 185 883 q 560 1011 406 1011 q 983 719 918 1011 l 784 682 q 703 799 763 758 q 562 840 642 840 q 350 755 426 840 q 273 509 273 670 q 347 251 273 347 q 558 155 420 155 q 793 239 686 155 l 793 366 l 564 366 l 564 533 l 996 533 l 996 137 q 828 35 941 83 q 600 -16 714 -12 z "},"ģ":{"ha":848,"x_min":57,"x_max":760,"o":"m 488 806 l 286 806 l 286 867 q 300 988 286 946 q 355 1062 314 1029 q 465 1113 395 1094 l 490 1023 q 421 990 440 1009 q 398 930 402 970 l 488 930 l 488 806 m 82 -47 l 300 -74 q 414 -146 304 -146 q 514 -129 481 -146 q 558 -81 547 -111 q 569 12 569 -52 l 569 117 q 351 0 484 0 q 193 52 263 0 q 90 188 122 103 q 57 366 57 273 q 143 640 57 543 q 361 736 229 736 q 581 619 494 736 l 581 720 l 760 720 l 760 74 q 730 -141 760 -66 q 623 -254 700 -216 q 420 -292 546 -292 q 163 -234 245 -292 q 81 -71 81 -175 q 82 -47 81 -61 m 252 371 q 292 214 252 273 q 408 154 331 154 q 523 208 474 154 q 572 373 572 262 q 531 530 572 469 q 408 591 490 591 q 292 530 332 591 q 252 371 252 470 z "},"Ĥ":{"ha":1003,"x_min":102,"x_max":897,"o":"m 102 0 l 102 994 l 302 994 l 302 603 l 696 603 l 696 994 l 897 994 l 897 0 l 696 0 l 696 435 l 302 435 l 302 0 l 102 0 m 272 1084 l 414 1284 l 591 1284 l 731 1084 l 578 1084 l 499 1185 l 426 1084 l 272 1084 z "},"ĥ":{"ha":848,"x_min":99,"x_max":755,"o":"m 290 994 l 290 629 q 510 736 382 736 q 629 712 576 736 q 708 650 682 688 q 745 566 735 612 q 755 422 755 519 l 755 0 l 564 0 l 564 380 q 553 524 564 494 q 515 573 543 555 q 446 591 488 591 q 361 568 399 591 q 307 498 324 545 q 290 361 290 452 l 290 0 l 99 0 l 99 994 l 290 994 m 195 1051 l 338 1251 l 514 1251 l 654 1051 l 501 1051 l 422 1152 l 349 1051 l 195 1051 z "},"Ħ":{"ha":1003,"x_min":3,"x_max":994,"o":"m 102 735 l 3 735 l 3 861 l 102 861 l 102 994 l 302 994 l 302 861 l 696 861 l 696 994 l 896 994 l 896 861 l 994 861 l 994 735 l 896 735 l 896 0 l 696 0 l 696 435 l 302 435 l 302 0 l 102 0 l 102 735 m 302 735 l 302 603 l 696 603 l 696 735 l 302 735 z "},"ħ":{"ha":848,"x_min":17,"x_max":755,"o":"m 290 924 l 488 924 l 488 797 l 290 797 l 290 629 q 513 736 381 736 q 656 698 597 736 q 735 601 714 660 q 755 422 755 542 l 755 0 l 564 0 l 564 380 q 556 513 564 478 q 520 570 549 549 q 446 591 492 591 q 330 541 370 591 q 290 361 290 490 l 290 0 l 99 0 l 99 797 l 17 797 l 17 924 l 99 924 l 99 994 l 290 994 l 290 924 z "},"Ĩ":{"ha":386,"x_min":-47,"x_max":422,"o":"m 95 0 l 95 994 l 296 994 l 296 0 l 95 0 m 40 1082 l -47 1082 q -47 1107 -47 1098 q -13 1216 -47 1178 q 76 1255 22 1255 q 120 1250 100 1255 q 194 1220 140 1244 q 279 1196 248 1196 q 315 1210 300 1196 q 334 1255 330 1223 l 422 1255 q 388 1124 421 1164 q 301 1085 354 1085 q 256 1090 278 1085 q 178 1118 240 1094 q 87 1141 115 1141 q 53 1128 65 1141 q 40 1082 41 1115 z "},"ĩ":{"ha":386,"x_min":-47,"x_max":422,"o":"m 100 0 l 100 720 l 290 720 l 290 0 l 100 0 m 41 817 l -46 817 q -47 842 -47 833 q -12 951 -47 913 q 77 989 22 989 q 121 984 100 989 q 195 955 141 979 q 279 931 249 931 q 316 945 301 931 q 334 990 330 958 l 422 990 q 388 859 422 899 q 302 820 355 820 q 256 825 279 820 q 178 852 241 829 q 87 876 116 876 q 54 863 66 876 q 41 817 41 850 z "},"Ī":{"ha":386,"x_min":-26,"x_max":411,"o":"m 95 0 l 95 994 l 296 994 l 296 0 l 95 0 m -26 1084 l -26 1209 l 411 1209 l 411 1084 l -26 1084 z "},"ī":{"ha":386,"x_min":-26,"x_max":411,"o":"m 100 0 l 100 720 l 290 720 l 290 0 l 100 0 m -26 839 l -26 964 l 411 964 l 411 839 l -26 839 z "},"Ĭ":{"ha":386,"x_min":-21,"x_max":402,"o":"m 95 0 l 95 994 l 296 994 l 296 0 l 95 0 m 309 1275 l 402 1275 q 337 1130 394 1183 q 191 1078 281 1078 q 44 1130 100 1078 q -21 1275 -13 1183 l 72 1275 q 106 1202 77 1227 q 191 1177 135 1177 q 275 1202 246 1177 q 309 1275 304 1227 z "},"ĭ":{"ha":386,"x_min":-20,"x_max":403,"o":"m 100 0 l 100 720 l 290 720 l 290 0 l 100 0 m 310 1011 l 403 1011 q 338 866 395 919 q 191 814 281 814 q 44 866 101 814 q -20 1011 -12 919 l 73 1011 q 106 938 77 963 q 191 913 136 913 q 276 938 247 913 q 310 1011 305 963 z "},"Į":{"ha":386,"x_min":75,"x_max":376,"o":"m 195 0 q 186 -79 186 -39 q 284 -188 186 -188 q 376 -172 325 -188 l 376 -263 q 240 -292 309 -292 q 120 -250 166 -292 q 75 -131 75 -208 q 95 0 75 -81 l 95 994 l 295 994 l 295 0 l 195 0 z "},"į":{"ha":386,"x_min":79,"x_max":381,"o":"m 100 818 l 100 994 l 290 994 l 290 818 l 100 818 m 100 0 l 100 720 l 290 720 l 290 0 l 200 0 q 191 -79 191 -41 q 289 -188 191 -188 q 381 -172 330 -188 l 381 -263 q 245 -292 313 -292 q 125 -250 170 -292 q 79 -132 79 -208 q 100 0 79 -75 z "},"Ĵ":{"ha":772,"x_min":24,"x_max":789,"o":"m 460 994 l 660 994 l 660 365 q 638 175 660 241 q 532 36 609 88 q 330 -17 456 -17 q 104 65 183 -17 q 24 307 24 148 l 213 329 q 238 208 216 243 q 337 155 271 155 q 432 193 404 155 q 460 352 460 231 l 460 994 m 330 1084 l 472 1284 l 648 1284 l 789 1084 l 635 1084 l 557 1185 l 484 1084 l 330 1084 z "},"ĵ":{"ha":386,"x_min":-64,"x_max":422,"o":"m -37 811 l 106 1011 l 282 1011 l 422 811 l 270 811 l 191 912 l 118 811 l -37 811 m 286 720 l 286 22 q 271 -162 286 -103 q 206 -257 256 -221 q 67 -292 155 -292 q -64 -272 12 -292 l -31 -109 q 17 -115 -5 -115 q 68 -100 49 -115 q 92 -62 88 -85 q 96 33 96 -39 l 96 720 l 286 720 z "},"Ķ":{"ha":1003,"x_min":104,"x_max":1000,"o":"m 104 0 l 104 994 l 304 994 l 304 553 l 710 994 l 980 994 l 606 607 l 1000 0 l 741 0 l 467 467 l 304 300 l 304 0 l 104 0 m 397 -18 q 472 -14 436 -14 q 665 -137 665 -14 q 602 -245 665 -204 q 411 -286 538 -286 q 296 -275 353 -286 l 296 -193 q 405 -200 351 -200 q 533 -142 533 -200 q 433 -97 533 -97 q 397 -99 417 -97 l 397 -18 z "},"ķ":{"ha":772,"x_min":93,"x_max":759,"o":"m 93 0 l 93 994 l 283 994 l 283 467 l 507 720 l 741 720 l 495 457 l 759 0 l 553 0 l 372 323 l 283 231 l 283 0 l 93 0 m 304 -18 q 380 -14 344 -14 q 573 -137 573 -14 q 509 -245 573 -204 q 319 -286 446 -286 q 203 -275 260 -286 l 203 -193 q 313 -200 258 -200 q 441 -142 441 -200 q 340 -97 441 -97 q 304 -99 325 -97 l 304 -18 z "},"ĸ":{"ha":772,"x_min":96,"x_max":762,"o":"m 96 0 l 96 720 l 286 720 l 286 467 l 509 720 l 744 720 l 498 457 l 762 0 l 556 0 l 375 323 l 286 231 l 286 0 l 96 0 z "},"Ļ":{"ha":848,"x_min":106,"x_max":806,"o":"m 106 0 l 106 986 l 307 986 l 307 168 l 806 168 l 806 0 l 106 0 m 319 -18 q 395 -14 359 -14 q 588 -137 588 -14 q 524 -245 588 -204 q 334 -286 460 -286 q 218 -275 275 -286 l 218 -193 q 328 -200 273 -200 q 456 -142 456 -200 q 355 -97 456 -97 q 319 -99 340 -97 l 319 -18 z "},"ļ":{"ha":386,"x_min":-13,"x_max":357,"o":"m 100 0 l 100 994 l 290 994 l 290 0 l 100 0 m 88 -18 q 163 -14 127 -14 q 357 -137 357 -14 q 293 -245 357 -204 q 102 -286 229 -286 q -13 -275 44 -286 l -13 -193 q 96 -200 42 -200 q 224 -142 224 -200 q 124 -97 224 -97 q 88 -99 109 -97 l 88 -18 z "},"Ņ":{"ha":1003,"x_min":103,"x_max":892,"o":"m 103 0 l 103 994 l 298 994 l 705 330 l 705 994 l 892 994 l 892 0 l 690 0 l 290 648 l 290 0 l 103 0 m 397 -18 q 472 -14 436 -14 q 665 -137 665 -14 q 602 -245 665 -204 q 411 -286 538 -286 q 296 -275 353 -286 l 296 -193 q 405 -200 351 -200 q 533 -142 533 -200 q 433 -97 533 -97 q 397 -99 417 -97 l 397 -18 z "},"ņ":{"ha":848,"x_min":98,"x_max":755,"o":"m 755 0 l 564 0 l 564 368 q 552 518 564 484 q 512 572 540 553 q 446 591 485 591 q 357 564 397 591 q 303 492 318 536 q 289 326 289 447 l 289 0 l 98 0 l 98 720 l 275 720 l 275 614 q 513 736 370 736 q 628 714 576 736 q 707 656 680 691 q 744 576 734 621 q 755 448 755 531 l 755 0 m 319 -18 q 395 -14 359 -14 q 588 -137 588 -14 q 524 -245 588 -204 q 334 -286 460 -286 q 218 -275 275 -286 l 218 -193 q 328 -200 273 -200 q 456 -142 456 -200 q 355 -97 456 -97 q 319 -99 340 -97 l 319 -18 z "},"Ŋ":{"ha":1004,"x_min":106,"x_max":939,"o":"m 106 994 l 305 994 l 305 852 q 627 1011 446 1011 q 808 949 738 1011 q 908 782 878 887 q 939 490 939 676 q 909 173 939 265 q 819 32 880 81 q 652 -18 758 -18 q 455 29 538 -18 l 515 178 q 624 151 578 151 q 705 214 681 151 q 730 453 730 277 q 678 768 730 701 q 538 835 627 835 q 401 790 461 835 q 323 693 342 745 q 305 543 305 640 l 305 0 l 106 0 l 106 994 z "},"ŋ":{"ha":848,"x_min":96,"x_max":753,"o":"m 403 -272 l 437 -104 q 496 -115 473 -115 q 547 -88 532 -115 q 562 5 562 -61 l 562 368 q 554 503 562 464 q 517 567 547 542 q 443 591 488 591 q 353 562 395 591 q 299 483 311 532 q 287 326 287 434 l 287 0 l 96 0 l 96 720 l 273 720 l 273 614 q 512 736 368 736 q 653 700 595 736 q 731 608 710 664 q 753 448 753 553 l 753 36 q 740 -163 753 -104 q 671 -259 726 -222 q 526 -296 616 -296 q 403 -272 472 -296 z "},"Ō":{"ha":1080,"x_min":60,"x_max":1025,"o":"m 60 491 q 106 746 60 643 q 198 882 140 822 q 327 972 257 943 q 541 1011 420 1011 q 893 875 761 1011 q 1025 496 1025 739 q 894 119 1025 255 q 544 -17 763 -17 q 191 118 322 -17 q 60 491 60 254 m 267 498 q 345 242 267 329 q 543 155 423 155 q 740 241 663 155 q 817 500 817 328 q 742 755 817 671 q 543 840 667 840 q 343 754 419 840 q 267 498 267 669 m 321 1084 l 321 1209 l 758 1209 l 758 1084 l 321 1084 z "},"ō":{"ha":848,"x_min":56,"x_max":799,"o":"m 56 370 q 102 554 56 465 q 235 690 149 643 q 427 736 321 736 q 694 630 590 736 q 799 362 799 524 q 693 91 799 199 q 428 -16 588 -16 q 239 28 329 -16 q 102 160 149 73 q 56 370 56 246 m 251 360 q 302 196 251 253 q 427 139 353 139 q 552 196 502 139 q 603 361 603 253 q 552 524 603 467 q 427 581 502 581 q 302 524 353 581 q 251 360 251 467 m 205 839 l 205 964 l 642 964 l 642 839 l 205 839 z "},"Ŏ":{"ha":1080,"x_min":60,"x_max":1025,"o":"m 60 491 q 106 746 60 643 q 198 882 140 822 q 327 972 257 943 q 541 1011 420 1011 q 893 875 761 1011 q 1025 496 1025 739 q 894 119 1025 255 q 544 -17 763 -17 q 191 118 322 -17 q 60 491 60 254 m 267 498 q 345 242 267 329 q 543 155 423 155 q 740 241 663 155 q 817 500 817 328 q 742 755 817 671 q 543 840 667 840 q 343 754 419 840 q 267 498 267 669 m 656 1275 l 749 1275 q 685 1130 741 1183 q 538 1078 628 1078 q 391 1130 448 1078 q 326 1275 334 1183 l 419 1275 q 453 1202 424 1227 q 538 1177 482 1177 q 623 1202 593 1177 q 656 1275 652 1227 z "},"ŏ":{"ha":848,"x_min":56,"x_max":799,"o":"m 56 370 q 102 554 56 465 q 235 690 149 643 q 427 736 321 736 q 694 630 590 736 q 799 362 799 524 q 693 91 799 199 q 428 -16 588 -16 q 239 28 329 -16 q 102 160 149 73 q 56 370 56 246 m 251 360 q 302 196 251 253 q 427 139 353 139 q 552 196 502 139 q 603 361 603 253 q 552 524 603 467 q 427 581 502 581 q 302 524 353 581 q 251 360 251 467 m 541 1011 l 634 1011 q 569 866 626 919 q 422 814 513 814 q 276 866 332 814 q 211 1011 219 919 l 304 1011 q 338 938 309 963 q 422 913 367 913 q 507 938 478 913 q 541 1011 536 963 z "},"Ŗ":{"ha":1003,"x_min":102,"x_max":996,"o":"m 102 0 l 102 994 l 524 994 q 756 967 684 994 q 871 872 828 941 q 915 715 915 804 q 849 531 915 604 q 652 439 783 458 q 760 355 718 401 q 874 194 802 310 l 996 0 l 755 0 l 610 216 q 505 362 533 332 q 444 404 476 393 q 343 415 412 415 l 302 415 l 302 0 l 102 0 m 302 574 l 451 574 q 631 586 595 574 q 688 628 667 598 q 708 703 708 658 q 681 784 708 753 q 606 823 654 814 q 459 826 581 826 l 302 826 l 302 574 m 397 -18 q 472 -14 436 -14 q 665 -137 665 -14 q 602 -245 665 -204 q 411 -286 538 -286 q 296 -275 353 -286 l 296 -193 q 405 -200 351 -200 q 533 -142 533 -200 q 433 -97 533 -97 q 397 -99 417 -97 l 397 -18 z "},"ŗ":{"ha":541,"x_min":28,"x_max":558,"o":"m 282 0 l 92 0 l 92 720 l 269 720 l 269 618 q 350 713 314 690 q 433 736 387 736 q 558 701 498 736 l 499 534 q 410 566 451 566 q 342 544 370 566 q 298 464 314 522 q 282 222 282 406 l 282 0 m 130 -18 q 205 -14 169 -14 q 398 -137 398 -14 q 334 -245 398 -204 q 144 -286 271 -286 q 28 -275 85 -286 l 28 -193 q 138 -200 83 -200 q 266 -142 266 -200 q 165 -97 266 -97 q 130 -99 150 -97 l 130 -18 z "},"Ŝ":{"ha":926,"x_min":50,"x_max":859,"o":"m 50 323 l 245 342 q 317 198 263 244 q 463 152 371 152 q 609 193 559 152 q 658 289 658 234 q 637 349 658 324 q 565 392 616 374 q 404 435 530 404 q 178 534 243 475 q 86 734 86 616 q 129 876 86 810 q 253 977 172 942 q 449 1011 334 1011 q 731 929 636 1011 q 830 710 825 847 l 629 701 q 574 811 616 778 q 447 845 532 845 q 310 809 359 845 q 278 747 278 786 q 308 687 278 712 q 492 621 346 655 q 709 549 639 586 q 819 448 779 512 q 859 290 859 384 q 811 130 859 204 q 677 19 764 55 q 460 -18 590 -18 q 171 70 272 -18 q 50 323 70 157 m 234 1084 l 376 1284 l 553 1284 l 693 1084 l 540 1084 l 461 1185 l 388 1084 l 234 1084 z "},"ŝ":{"ha":772,"x_min":33,"x_max":705,"o":"m 33 205 l 224 235 q 273 150 236 179 q 378 121 311 121 q 489 149 452 121 q 514 199 514 168 q 500 235 514 221 q 437 260 486 249 q 144 353 206 311 q 59 515 59 412 q 133 673 59 609 q 362 736 207 736 q 582 688 510 736 q 681 546 654 640 l 501 513 q 457 577 490 555 q 366 600 425 600 q 258 578 290 600 q 236 540 236 564 q 255 505 236 519 q 433 452 281 486 q 646 367 585 417 q 705 225 705 316 q 623 55 705 126 q 378 -16 540 -16 q 145 43 231 -16 q 33 205 59 103 m 157 811 l 300 1011 l 476 1011 l 616 811 l 463 811 l 385 912 l 311 811 l 157 811 z "},"Ŧ":{"ha":848,"x_min":30,"x_max":820,"o":"m 325 374 l 112 374 l 112 501 l 325 501 l 325 826 l 30 826 l 30 994 l 820 994 l 820 826 l 526 826 l 526 501 l 739 501 l 739 374 l 526 374 l 526 0 l 325 0 l 325 374 z "},"ŧ":{"ha":463,"x_min":14,"x_max":446,"o":"m 300 411 l 419 411 l 419 293 l 300 293 l 300 277 q 301 185 300 202 q 316 155 303 168 q 353 142 330 142 q 429 160 379 142 l 446 12 q 295 -16 379 -16 q 178 13 222 -16 q 122 88 134 42 q 109 254 109 134 l 109 293 l 14 293 l 14 411 l 109 411 l 109 568 l 21 568 l 21 720 l 109 720 l 109 863 l 300 975 l 300 720 l 430 720 l 430 568 l 300 568 l 300 411 z "},"Ũ":{"ha":1003,"x_min":100,"x_max":892,"o":"m 100 994 l 300 994 l 300 456 q 308 290 300 328 q 369 192 321 229 q 502 155 418 155 q 631 190 587 155 q 683 275 674 224 q 692 444 692 326 l 692 994 l 892 994 l 892 472 q 876 219 892 293 q 816 94 860 145 q 699 13 772 43 q 508 -17 626 -17 q 292 16 366 -17 q 176 101 218 49 q 119 212 133 154 q 100 464 100 297 l 100 994 m 349 1082 l 262 1082 q 262 1107 262 1098 q 296 1216 262 1178 q 385 1255 331 1255 q 429 1250 409 1255 q 504 1220 450 1244 q 588 1196 557 1196 q 624 1210 610 1196 q 643 1255 639 1223 l 731 1255 q 697 1124 730 1164 q 610 1085 663 1085 q 565 1090 587 1085 q 487 1118 549 1094 q 396 1141 425 1141 q 362 1128 374 1141 q 349 1082 350 1115 z "},"ũ":{"ha":848,"x_min":96,"x_max":751,"o":"m 574 0 l 574 108 q 470 17 534 50 q 335 -16 406 -16 q 205 16 262 -16 q 121 105 147 47 q 96 264 96 163 l 96 720 l 286 720 l 286 389 q 297 203 286 237 q 335 149 307 169 q 406 129 363 129 q 493 156 454 129 q 546 222 532 182 q 560 416 560 262 l 560 720 l 751 720 l 751 0 l 574 0 m 272 817 l 185 817 q 184 842 184 833 q 219 951 184 913 q 308 989 254 989 q 352 984 332 989 q 426 955 372 979 q 511 931 480 931 q 547 945 532 931 q 566 990 562 958 l 654 990 q 620 859 653 899 q 533 820 586 820 q 488 825 510 820 q 410 852 472 829 q 319 876 347 876 q 285 863 297 876 q 272 817 273 850 z "},"Ū":{"ha":1003,"x_min":100,"x_max":892,"o":"m 100 994 l 300 994 l 300 456 q 308 290 300 328 q 369 192 321 229 q 502 155 418 155 q 631 190 587 155 q 683 275 674 224 q 692 444 692 326 l 692 994 l 892 994 l 892 472 q 876 219 892 293 q 816 94 860 145 q 699 13 772 43 q 508 -17 626 -17 q 292 16 366 -17 q 176 101 218 49 q 119 212 133 154 q 100 464 100 297 l 100 994 m 283 1084 l 283 1209 l 720 1209 l 720 1084 l 283 1084 z "},"ū":{"ha":848,"x_min":96,"x_max":751,"o":"m 574 0 l 574 108 q 470 17 534 50 q 335 -16 406 -16 q 205 16 262 -16 q 121 105 147 47 q 96 264 96 163 l 96 720 l 286 720 l 286 389 q 297 203 286 237 q 335 149 307 169 q 406 129 363 129 q 493 156 454 129 q 546 222 532 182 q 560 416 560 262 l 560 720 l 751 720 l 751 0 l 574 0 m 205 839 l 205 964 l 642 964 l 642 839 l 205 839 z "},"Ŭ":{"ha":1003,"x_min":100,"x_max":892,"o":"m 100 994 l 300 994 l 300 456 q 308 290 300 328 q 369 192 321 229 q 502 155 418 155 q 631 190 587 155 q 683 275 674 224 q 692 444 692 326 l 692 994 l 892 994 l 892 472 q 876 219 892 293 q 816 94 860 145 q 699 13 772 43 q 508 -17 626 -17 q 292 16 366 -17 q 176 101 218 49 q 119 212 133 154 q 100 464 100 297 l 100 994 m 618 1275 l 711 1275 q 647 1130 703 1183 q 500 1078 590 1078 q 353 1130 410 1078 q 288 1275 296 1183 l 381 1275 q 415 1202 386 1227 q 500 1177 444 1177 q 585 1202 555 1177 q 618 1275 614 1227 z "},"ŭ":{"ha":848,"x_min":96,"x_max":751,"o":"m 574 0 l 574 108 q 470 17 534 50 q 335 -16 406 -16 q 205 16 262 -16 q 121 105 147 47 q 96 264 96 163 l 96 720 l 286 720 l 286 389 q 297 203 286 237 q 335 149 307 169 q 406 129 363 129 q 493 156 454 129 q 546 222 532 182 q 560 416 560 262 l 560 720 l 751 720 l 751 0 l 574 0 m 541 1011 l 634 1011 q 569 866 626 919 q 422 814 513 814 q 276 866 332 814 q 211 1011 219 919 l 304 1011 q 338 938 309 963 q 422 913 367 913 q 507 938 478 913 q 541 1011 536 963 z "},"Ų":{"ha":1003,"x_min":100,"x_max":892,"o":"m 526 -17 q 521 -79 521 -54 q 618 -188 521 -188 q 711 -172 659 -188 l 711 -263 q 574 -292 642 -292 q 455 -250 500 -292 q 409 -130 409 -208 q 426 -14 409 -85 q 234 48 311 -3 q 129 181 157 100 q 100 464 100 263 l 100 994 l 300 994 l 300 456 q 311 279 300 330 q 370 192 321 229 q 502 155 418 155 q 629 188 584 155 q 683 273 673 222 q 692 444 692 323 l 692 994 l 892 994 l 892 472 q 867 183 892 271 q 755 42 841 95 q 526 -17 670 -10 z "},"ų":{"ha":848,"x_min":96,"x_max":856,"o":"m 675 0 q 666 -81 666 -37 q 763 -189 666 -189 q 856 -172 804 -189 l 856 -264 q 720 -294 787 -294 q 602 -253 649 -294 q 554 -132 554 -212 q 574 0 554 -85 l 574 108 q 472 18 536 52 q 334 -16 407 -16 q 198 19 255 -16 q 119 111 142 54 q 96 264 96 167 l 96 720 l 286 720 l 286 389 q 292 224 286 267 q 327 156 298 182 q 406 130 355 130 q 501 161 462 130 q 550 238 541 193 q 560 416 560 282 l 560 720 l 751 720 l 751 0 l 675 0 z "},"Ŵ":{"ha":1311,"x_min":5,"x_max":1310,"o":"m 242 0 l 5 994 l 210 994 l 360 311 l 542 994 l 781 994 l 955 300 l 1107 994 l 1310 994 l 1068 0 l 855 0 l 657 743 l 460 0 l 242 0 m 426 1084 l 568 1284 l 745 1284 l 885 1084 l 732 1084 l 653 1185 l 580 1084 l 426 1084 z "},"ŵ":{"ha":1080,"x_min":6,"x_max":1080,"o":"m 234 0 l 6 720 l 191 720 l 326 248 l 450 720 l 634 720 l 754 248 l 892 720 l 1080 720 l 848 0 l 665 0 l 541 463 l 419 0 l 234 0 m 311 811 l 454 1011 l 630 1011 l 770 811 l 617 811 l 538 912 l 465 811 l 311 811 z "},"Ŷ":{"ha":926,"x_min":-2,"x_max":928,"o":"m 362 0 l 362 418 l -2 994 l 233 994 l 467 601 l 696 994 l 928 994 l 562 417 l 562 0 l 362 0 m 240 1084 l 382 1284 l 559 1284 l 699 1084 l 546 1084 l 467 1185 l 394 1084 l 240 1084 z "},"ŷ":{"ha":772,"x_min":9,"x_max":750,"o":"m 9 720 l 212 720 l 385 209 l 553 720 l 750 720 l 496 27 l 450 -98 q 402 -195 425 -161 q 350 -249 380 -228 q 278 -281 321 -269 q 180 -292 235 -292 q 73 -281 125 -292 l 56 -132 q 136 -140 100 -140 q 235 -101 203 -140 q 283 -2 267 -62 l 9 720 m 157 811 l 299 1011 l 475 1011 l 616 811 l 463 811 l 384 912 l 311 811 l 157 811 z "},"ſ":{"ha":386,"x_min":96,"x_max":477,"o":"m 477 987 l 451 854 q 362 865 406 865 q 303 844 320 865 q 286 771 286 824 l 286 0 l 96 0 l 96 774 q 116 912 96 865 q 190 985 136 959 q 316 1011 244 1011 q 477 987 399 1011 z "},"Ǻ":{"ha":1003,"x_min":0,"x_max":998,"o":"m 998 0 l 779 0 l 692 226 l 295 226 l 213 0 l 0 0 l 387 994 l 600 994 l 998 0 m 628 393 l 491 762 l 357 393 l 628 393 m 625 1059 q 586 965 625 1004 q 492 926 547 926 q 398 965 437 926 q 359 1059 359 1004 q 398 1153 359 1114 q 492 1192 437 1192 q 586 1154 547 1192 q 625 1059 625 1115 m 552 1059 q 534 1102 552 1084 q 492 1120 517 1120 q 449 1102 467 1120 q 431 1059 431 1084 q 449 1017 431 1034 q 492 999 467 999 q 534 1017 517 999 q 552 1059 552 1034 m 397 1192 l 491 1395 l 705 1395 l 518 1192 l 397 1192 z "},"ǻ":{"ha":772,"x_min":50,"x_max":726,"o":"m 242 500 l 69 532 q 170 686 98 636 q 381 736 241 736 q 571 706 509 736 q 659 630 633 676 q 684 459 684 583 l 682 237 q 691 97 682 142 q 726 0 701 52 l 537 0 q 519 56 530 19 q 512 79 514 73 q 408 7 463 31 q 289 -16 352 -16 q 114 44 178 -16 q 50 197 50 104 q 79 306 50 258 q 160 379 108 353 q 312 423 213 404 q 497 470 446 448 l 497 489 q 470 567 497 544 q 368 591 443 591 q 288 571 317 591 q 242 500 260 551 m 497 346 q 381 317 460 334 q 277 283 302 300 q 240 216 240 257 q 270 147 240 176 q 346 118 300 118 q 444 152 397 118 q 490 215 479 178 q 497 308 497 239 l 497 346 m 520 910 q 481 816 520 855 q 387 777 442 777 q 293 816 332 777 q 254 910 254 855 q 293 1004 254 965 q 387 1043 332 1043 q 481 1004 442 1043 q 520 910 520 966 m 448 910 q 430 953 448 935 q 387 970 412 970 q 345 953 362 970 q 327 910 327 935 q 345 867 327 885 q 387 850 362 850 q 430 867 412 850 q 448 910 448 885 m 281 1084 l 375 1286 l 589 1286 l 402 1084 l 281 1084 z "},"Ǽ":{"ha":1389,"x_min":-58,"x_max":1322,"o":"m -58 0 l 406 994 l 1303 994 l 1303 826 l 811 826 l 811 605 l 1265 605 l 1265 437 l 811 437 l 811 168 l 1322 168 l 1322 0 l 610 0 l 610 234 l 266 234 l 164 0 l -58 0 m 340 408 l 612 408 l 612 844 l 534 844 l 340 408 m 590 1084 l 684 1286 l 897 1286 l 711 1084 l 590 1084 z "},"ǽ":{"ha":1235,"x_min":60,"x_max":1170,"o":"m 974 230 l 1160 197 q 1043 37 1122 90 q 842 -16 964 -16 q 702 8 766 -16 q 585 83 637 33 q 461 13 537 41 q 304 -16 385 -16 q 124 44 189 -16 q 60 195 60 104 q 82 293 60 250 q 137 360 105 336 q 227 401 170 384 q 389 438 254 410 q 503 468 456 452 l 503 487 q 475 565 503 539 q 385 591 446 591 q 298 569 330 591 q 253 500 267 547 l 80 534 q 187 687 114 638 q 409 736 260 736 q 535 720 479 736 q 629 670 590 703 q 720 720 671 703 q 825 736 769 736 q 1009 691 934 736 q 1127 556 1084 645 q 1169 304 1170 467 l 690 304 q 742 170 702 212 q 840 129 782 129 q 922 154 888 129 q 974 230 956 178 m 981 423 q 965 509 977 483 q 914 569 948 547 q 833 591 880 591 q 763 572 793 591 q 715 516 733 553 q 694 423 692 467 l 981 423 m 502 345 q 332 298 345 303 q 268 262 286 283 q 250 213 250 241 q 280 146 250 174 q 357 118 309 118 q 451 150 407 118 q 493 209 484 174 q 502 345 502 245 m 513 808 l 606 1011 l 820 1011 l 633 808 l 513 808 z "},"Ǿ":{"ha":1080,"x_min":43,"x_max":1042,"o":"m 840 922 l 947 1042 l 1042 959 l 928 831 q 999 681 974 770 q 1024 492 1024 592 q 893 119 1024 255 q 547 -17 762 -17 q 249 68 361 -17 l 139 -56 l 43 28 l 159 159 q 60 503 60 291 q 191 875 60 739 q 540 1011 321 1011 q 840 922 721 1011 m 715 782 q 542 840 647 840 q 342 755 418 840 q 267 498 267 670 q 298 314 267 391 l 715 782 m 789 675 l 372 207 q 541 146 442 146 q 739 233 661 146 q 817 494 817 321 q 789 675 817 604 m 436 1084 l 530 1286 l 743 1286 l 557 1084 l 436 1084 z "},"ǿ":{"ha":848,"x_min":59,"x_max":802,"o":"m 642 677 l 712 759 l 788 696 l 715 612 q 779 498 755 564 q 802 359 802 432 q 696 91 802 198 q 429 -16 589 -16 q 220 41 312 -16 l 142 -50 l 68 15 l 146 106 q 82 224 106 155 q 59 364 59 292 q 163 632 59 527 q 430 736 267 736 q 642 677 551 736 m 534 554 q 431 591 489 591 q 301 532 355 591 q 248 366 248 473 q 267 245 248 299 l 534 554 m 593 471 l 327 164 q 429 132 372 132 q 560 190 507 132 q 613 355 613 249 q 593 471 613 418 m 319 808 l 413 1011 l 627 1011 l 440 808 l 319 808 z "},"·":{"ha":463,"x_min":136,"x_max":327,"o":"m 136 530 l 136 720 l 327 720 l 327 530 l 136 530 z "},"Ẁ":{"ha":1311,"x_min":5,"x_max":1310,"o":"m 242 0 l 5 994 l 210 994 l 360 311 l 542 994 l 781 994 l 955 300 l 1107 994 l 1310 994 l 1068 0 l 855 0 l 657 743 l 460 0 l 242 0 m 760 1084 l 640 1084 l 452 1286 l 666 1286 l 760 1084 z "},"ẁ":{"ha":1080,"x_min":6,"x_max":1080,"o":"m 234 0 l 6 720 l 191 720 l 326 248 l 450 720 l 634 720 l 754 248 l 892 720 l 1080 720 l 848 0 l 665 0 l 541 463 l 419 0 l 234 0 m 644 808 l 524 808 l 337 1011 l 551 1011 l 644 808 z "},"Ẃ":{"ha":1311,"x_min":5,"x_max":1310,"o":"m 242 0 l 5 994 l 210 994 l 360 311 l 542 994 l 781 994 l 955 300 l 1107 994 l 1310 994 l 1068 0 l 855 0 l 657 743 l 460 0 l 242 0 m 551 1084 l 644 1286 l 858 1286 l 671 1084 l 551 1084 z "},"ẃ":{"ha":1080,"x_min":6,"x_max":1080,"o":"m 234 0 l 6 720 l 191 720 l 326 248 l 450 720 l 634 720 l 754 248 l 892 720 l 1080 720 l 848 0 l 665 0 l 541 463 l 419 0 l 234 0 m 435 808 l 529 1011 l 743 1011 l 556 808 l 435 808 z "},"Ẅ":{"ha":1311,"x_min":5,"x_max":1310,"o":"m 242 0 l 5 994 l 210 994 l 360 311 l 542 994 l 781 994 l 955 300 l 1107 994 l 1310 994 l 1068 0 l 855 0 l 657 743 l 460 0 l 242 0 m 428 1084 l 428 1247 l 591 1247 l 591 1084 l 428 1084 m 720 1084 l 720 1247 l 884 1247 l 884 1084 l 720 1084 z "},"ẅ":{"ha":1080,"x_min":6,"x_max":1080,"o":"m 234 0 l 6 720 l 191 720 l 326 248 l 450 720 l 634 720 l 754 248 l 892 720 l 1080 720 l 848 0 l 665 0 l 541 463 l 419 0 l 234 0 m 313 848 l 313 1011 l 476 1011 l 476 848 l 313 848 m 604 848 l 604 1011 l 768 1011 l 768 848 l 604 848 z "},"Ỳ":{"ha":926,"x_min":-2,"x_max":928,"o":"m 362 0 l 362 418 l -2 994 l 233 994 l 467 601 l 696 994 l 928 994 l 562 417 l 562 0 l 362 0 m 568 1084 l 448 1084 l 260 1286 l 474 1286 l 568 1084 z "},"ỳ":{"ha":772,"x_min":9,"x_max":750,"o":"m 9 720 l 212 720 l 385 209 l 553 720 l 750 720 l 496 27 l 450 -98 q 402 -195 425 -161 q 350 -249 380 -228 q 278 -281 321 -269 q 180 -292 235 -292 q 73 -281 125 -292 l 56 -132 q 136 -140 100 -140 q 235 -101 203 -140 q 283 -2 267 -62 l 9 720 m 490 808 l 370 808 l 183 1011 l 397 1011 l 490 808 z "},"‛":{"ha":386,"x_min":101,"x_max":307,"o":"m 292 994 l 292 804 l 199 804 q 307 661 202 692 l 270 581 q 165 646 205 605 q 113 735 125 687 q 101 857 101 783 l 101 994 l 292 994 z "},"‾":{"ha":463,"x_min":-28,"x_max":491,"o":"m -28 839 l -28 964 l 491 964 l 491 839 l -28 839 z "},"₤":{"ha":772,"x_min":9,"x_max":751,"o":"m 138 305 l 9 305 l 9 431 l 149 431 q 132 504 141 472 l 9 504 l 9 630 l 99 630 q 87 728 87 681 q 178 934 87 857 q 406 1011 269 1011 q 612 947 529 1011 q 713 750 694 882 l 530 723 q 399 859 506 859 q 305 820 338 859 q 272 731 272 781 q 288 630 272 694 l 517 630 l 517 504 l 322 504 q 336 431 336 444 l 517 431 l 517 305 l 323 305 q 235 173 307 256 q 328 192 273 192 q 465 167 365 192 q 539 155 509 155 q 677 193 594 155 l 751 32 q 562 -16 663 -16 q 403 13 503 -16 q 250 42 299 42 q 81 -17 165 42 l 9 147 q 138 305 106 217 z "},"℮":{"ha":833,"x_min":61,"x_max":779,"o":"m 218 360 l 218 109 q 420 26 299 26 q 688 193 592 26 l 736 164 q 579 12 655 47 q 420 -23 503 -23 q 160 85 259 -23 q 61 360 61 194 q 161 635 61 528 q 420 743 260 743 q 668 647 565 743 q 779 360 771 551 l 218 360 m 622 410 l 622 612 q 418 694 535 694 q 218 611 300 694 l 218 410 l 622 410 z "},"⅛":{"ha":1158,"x_min":62,"x_max":1127,"o":"m 336 493 l 208 493 l 208 841 q 62 774 144 796 l 62 880 q 170 932 122 895 q 232 1006 218 968 l 336 1006 l 336 493 m 338 -37 l 231 -37 l 820 1006 l 928 1006 l 338 -37 m 807 247 q 740 350 740 279 q 788 446 740 408 q 924 485 836 485 q 1056 449 1002 485 q 1109 348 1109 413 q 1044 247 1109 283 q 1127 125 1127 214 q 1074 9 1127 54 q 930 -37 1021 -37 q 781 7 837 -37 q 725 121 725 52 q 807 247 725 205 m 863 339 q 925 292 863 292 q 987 342 987 292 q 925 391 987 391 q 863 339 863 391 m 852 128 q 874 77 852 96 q 927 58 895 58 q 979 76 959 58 q 1000 127 1000 94 q 980 178 1000 159 q 927 197 960 197 q 872 178 892 197 q 852 128 852 159 z "},"⅜":{"ha":1158,"x_min":28,"x_max":1128,"o":"m 339 -37 l 231 -37 l 821 1006 l 928 1006 l 339 -37 m 28 642 l 153 655 q 229 582 163 582 q 283 603 263 582 q 303 655 303 623 q 284 703 303 684 q 233 722 265 722 q 172 712 211 722 l 187 811 q 279 865 279 811 q 223 909 279 909 q 156 843 162 909 l 35 861 q 227 1006 64 1006 q 358 966 307 1006 q 409 872 409 926 q 343 770 409 810 q 435 652 435 738 q 376 532 435 580 q 230 485 318 485 q 91 527 146 485 q 28 642 35 570 m 807 247 q 741 350 741 279 q 788 446 741 408 q 924 485 836 485 q 1060 446 1011 485 q 1109 348 1109 406 q 1044 247 1109 283 q 1128 125 1128 214 q 1073 7 1128 52 q 930 -37 1017 -37 q 784 6 842 -37 q 726 121 726 48 q 807 247 726 207 m 863 339 q 925 292 863 292 q 987 342 987 292 q 925 391 987 391 q 863 339 863 391 m 852 128 q 874 77 852 96 q 928 58 895 58 q 980 76 960 58 q 1000 127 1000 94 q 980 178 1000 159 q 928 197 960 197 q 872 178 892 197 q 852 128 852 159 z "},"⅝":{"ha":1158,"x_min":33,"x_max":1128,"o":"m 338 -37 l 231 -37 l 821 1006 l 928 1006 l 338 -37 m 33 638 l 161 649 q 238 579 170 579 q 293 602 272 579 q 313 666 313 625 q 234 747 313 747 q 150 711 186 747 l 45 724 l 107 998 l 419 998 l 419 890 l 205 890 l 194 831 q 258 842 227 842 q 392 792 338 842 q 445 669 445 743 q 391 543 445 600 q 237 485 338 485 q 97 525 151 485 q 33 638 42 565 m 807 247 q 741 350 741 279 q 788 446 741 408 q 924 485 836 485 q 1060 446 1012 485 q 1109 348 1109 406 q 1044 247 1109 283 q 1128 125 1128 214 q 1072 7 1128 52 q 930 -37 1017 -37 q 784 6 842 -37 q 726 121 726 48 q 807 247 726 207 m 863 339 q 925 292 863 292 q 987 342 987 292 q 925 391 987 391 q 863 339 863 391 m 852 128 q 874 77 852 96 q 928 58 895 58 q 979 76 959 58 q 1000 127 1000 94 q 980 178 1000 159 q 927 197 960 197 q 872 178 892 197 q 852 128 852 159 z "},"⅞":{"ha":1158,"x_min":32,"x_max":1128,"o":"m 306 -37 l 198 -37 l 788 1006 l 895 1006 l 306 -37 m 32 891 l 32 998 l 433 998 l 433 915 q 291 724 346 842 q 235 509 235 606 l 235 493 l 111 493 q 159 709 113 610 q 254 865 205 808 l 275 891 l 32 891 m 807 247 q 741 350 741 280 q 788 446 741 406 q 925 485 836 485 q 1059 447 1009 485 q 1109 348 1109 410 q 1044 247 1109 286 q 1128 123 1128 208 q 1073 8 1128 54 q 929 -37 1019 -37 q 784 6 842 -37 q 726 123 726 48 q 807 247 726 203 m 863 342 q 924 292 863 292 q 987 341 987 292 q 925 391 987 391 q 863 342 863 391 m 852 131 q 874 77 852 96 q 928 58 895 58 q 979 76 959 58 q 1000 127 1000 94 q 926 197 1000 197 q 871 177 890 197 q 852 131 852 157 z "},"":{"ha":463,"x_min":127,"x_max":332,"o":"m 130 -77 l 332 -77 l 332 -138 q 317 -258 332 -217 q 263 -332 303 -300 q 153 -384 222 -365 l 127 -294 q 219 -201 219 -269 l 130 -201 l 130 -77 z "},"":{"ha":463,"x_min":26,"x_max":395,"o":"m 127 -18 q 202 -14 166 -14 q 395 -137 395 -14 q 332 -245 395 -204 q 141 -286 268 -286 q 26 -275 83 -286 l 26 -193 q 135 -200 81 -200 q 263 -142 263 -200 q 163 -97 263 -97 q 127 -99 147 -97 l 127 -18 z "},"΄":{"ha":463,"x_min":127,"x_max":434,"o":"m 127 808 l 220 1011 l 434 1011 l 248 808 l 127 808 z "},"΅":{"ha":646,"x_min":-8,"x_max":654,"o":"m 272 1011 l 475 1011 l 322 808 l 200 808 l 272 1011 m 490 808 l 490 972 l 654 972 l 654 808 l 490 808 m -8 808 l -8 972 l 155 972 l 155 808 l -8 808 z "},"Ά":{"ha":1003,"x_min":-16,"x_max":1001,"o":"m 1001 0 l 782 0 l 695 226 l 298 226 l 216 0 l 3 0 l 390 994 l 603 994 l 1001 0 m 631 393 l 494 762 l 359 393 l 631 393 m -16 818 l 92 994 l 345 994 l 122 818 l -16 818 z "},"Έ":{"ha":1185,"x_min":-47,"x_max":1116,"o":"m 359 0 l 359 994 l 1097 994 l 1097 826 l 559 826 l 559 606 l 1059 606 l 1059 438 l 559 438 l 559 168 l 1116 168 l 1116 0 l 359 0 m -47 818 l 62 994 l 315 994 l 92 818 l -47 818 z "},"Ή":{"ha":1258,"x_min":-47,"x_max":1154,"o":"m 359 0 l 359 994 l 559 994 l 559 603 l 954 603 l 954 994 l 1154 994 l 1154 0 l 954 0 l 954 435 l 559 435 l 559 0 l 359 0 m -47 818 l 62 994 l 315 994 l 92 818 l -47 818 z "},"Ί":{"ha":658,"x_min":-47,"x_max":559,"o":"m 359 0 l 359 994 l 559 994 l 559 0 l 359 0 m -47 818 l 62 994 l 315 994 l 92 818 l -47 818 z "},"Ό":{"ha":1145,"x_min":-61,"x_max":1087,"o":"m 123 491 q 251 872 123 734 q 604 1011 378 1011 q 959 871 831 1011 q 1087 496 1087 730 q 960 122 1087 261 q 621 -17 832 -17 q 350 41 454 -17 q 185 216 246 100 q 123 491 123 332 m 330 498 q 406 244 330 334 q 606 155 482 155 q 801 238 722 155 q 880 500 880 322 q 807 753 880 667 q 606 840 734 840 q 402 749 473 840 q 330 498 330 659 m -61 818 l 47 994 l 300 994 l 77 818 l -61 818 z "},"Ύ":{"ha":1288,"x_min":-38,"x_max":1289,"o":"m 723 0 l 723 418 l 359 994 l 594 994 l 828 601 l 1058 994 l 1289 994 l 924 417 l 924 0 l 723 0 m -38 818 l 71 994 l 323 994 l 100 818 l -38 818 z "},"Ώ":{"ha":1164,"x_min":-68,"x_max":1098,"o":"m 117 0 l 117 168 l 310 168 q 133 568 133 353 q 260 883 133 755 q 608 1011 387 1011 q 955 883 827 1011 q 1082 568 1082 755 q 905 168 1082 353 l 1098 168 l 1098 0 l 642 0 l 642 160 q 816 298 758 203 q 875 519 875 394 q 804 747 875 654 q 608 840 733 840 q 408 744 476 840 q 340 519 340 648 q 402 293 340 383 q 572 160 465 202 l 572 0 l 117 0 m -68 818 l 41 994 l 294 994 l 71 818 l -68 818 z "},"ΐ":{"ha":386,"x_min":-146,"x_max":516,"o":"m 98 0 l 98 720 l 288 720 l 288 0 l 98 0 m 134 1011 l 338 1011 l 184 808 l 62 808 l 134 1011 m 353 808 l 353 972 l 516 972 l 516 808 l 353 808 m -146 808 l -146 972 l 18 972 l 18 808 l -146 808 z "},"Α":{"ha":1003,"x_min":0,"x_max":998,"o":"m 998 0 l 779 0 l 692 226 l 295 226 l 213 0 l 0 0 l 387 994 l 600 994 l 998 0 m 628 393 l 491 762 l 357 393 l 628 393 z "},"Β":{"ha":1003,"x_min":102,"x_max":935,"o":"m 102 994 l 499 994 q 675 984 617 994 q 779 943 733 975 q 855 860 825 912 q 886 744 886 808 q 848 616 886 674 q 746 528 810 557 q 886 438 837 502 q 935 288 935 374 q 903 156 935 220 q 817 54 871 92 q 682 7 762 16 q 440 0 632 1 l 102 0 l 102 994 m 302 829 l 302 599 l 434 599 q 580 602 551 599 q 661 638 631 608 q 690 715 690 667 q 665 790 690 762 q 589 825 640 819 q 418 829 559 829 l 302 829 m 302 433 l 302 168 l 488 168 q 626 174 597 168 q 699 213 671 182 q 727 298 727 245 q 705 374 727 342 q 643 419 684 405 q 465 433 602 433 l 302 433 z "},"Δ":{"ha":998,"x_min":0,"x_max":998,"o":"m 998 0 l 0 0 l 387 994 l 600 994 l 998 0 m 715 168 l 491 762 l 274 168 l 715 168 z "},"Ε":{"ha":926,"x_min":101,"x_max":857,"o":"m 101 0 l 101 994 l 838 994 l 838 826 l 302 826 l 302 606 l 801 606 l 801 438 l 302 438 l 302 168 l 857 168 l 857 0 l 101 0 z "},"Ζ":{"ha":848,"x_min":15,"x_max":823,"o":"m 15 0 l 15 181 l 537 826 l 74 826 l 74 994 l 802 994 l 802 838 l 257 168 l 823 168 l 823 0 l 15 0 z "},"Η":{"ha":1003,"x_min":102,"x_max":897,"o":"m 102 0 l 102 994 l 302 994 l 302 603 l 696 603 l 696 994 l 897 994 l 897 0 l 696 0 l 696 435 l 302 435 l 302 0 l 102 0 z "},"Ι":{"ha":386,"x_min":95,"x_max":296,"o":"m 95 0 l 95 994 l 296 994 l 296 0 l 95 0 z "},"Κ":{"ha":1003,"x_min":104,"x_max":1000,"o":"m 104 0 l 104 994 l 304 994 l 304 553 l 710 994 l 980 994 l 606 607 l 1000 0 l 741 0 l 467 467 l 304 300 l 304 0 l 104 0 z "},"Λ":{"ha":926,"x_min":0,"x_max":926,"o":"m 570 994 l 926 0 l 708 0 l 456 735 l 213 0 l 0 0 l 356 994 l 570 994 z "},"Μ":{"ha":1157,"x_min":98,"x_max":1059,"o":"m 98 0 l 98 994 l 399 994 l 579 316 l 758 994 l 1059 994 l 1059 0 l 872 0 l 872 783 l 675 0 l 481 0 l 285 783 l 285 0 l 98 0 z "},"Ν":{"ha":1003,"x_min":103,"x_max":892,"o":"m 103 0 l 103 994 l 298 994 l 705 330 l 705 994 l 892 994 l 892 0 l 690 0 l 290 648 l 290 0 l 103 0 z "},"Ξ":{"ha":894,"x_min":69,"x_max":825,"o":"m 88 994 l 806 994 l 806 826 l 88 826 l 88 994 m 125 608 l 769 608 l 769 439 l 125 439 l 125 608 m 69 168 l 825 168 l 825 0 l 69 0 l 69 168 z "},"Ο":{"ha":1080,"x_min":60,"x_max":1025,"o":"m 60 491 q 106 746 60 643 q 198 882 140 822 q 327 972 257 943 q 541 1011 420 1011 q 893 875 761 1011 q 1025 496 1025 739 q 894 119 1025 255 q 544 -17 763 -17 q 191 118 322 -17 q 60 491 60 254 m 267 498 q 345 242 267 329 q 543 155 423 155 q 740 241 663 155 q 817 500 817 328 q 742 755 817 671 q 543 840 667 840 q 343 754 419 840 q 267 498 267 669 z "},"Π":{"ha":1003,"x_min":104,"x_max":899,"o":"m 104 0 l 104 994 l 899 994 l 899 0 l 699 0 l 699 826 l 305 826 l 305 0 l 104 0 z "},"Ρ":{"ha":926,"x_min":101,"x_max":863,"o":"m 101 0 l 101 994 l 423 994 q 662 979 606 994 q 805 882 747 957 q 863 688 863 807 q 829 534 863 597 q 745 436 796 472 q 641 389 694 401 q 433 375 569 375 l 302 375 l 302 0 l 101 0 m 302 826 l 302 544 l 412 544 q 570 559 530 544 q 633 608 610 575 q 656 686 656 642 q 624 775 656 740 q 543 819 592 810 q 399 826 507 826 l 302 826 z "},"Σ":{"ha":833,"x_min":61,"x_max":783,"o":"m 74 994 l 762 994 l 762 826 l 321 826 l 578 519 l 295 168 l 783 168 l 783 0 l 61 0 l 61 186 l 328 519 l 74 815 l 74 994 z "},"Τ":{"ha":848,"x_min":30,"x_max":820,"o":"m 325 0 l 325 826 l 30 826 l 30 994 l 820 994 l 820 826 l 526 826 l 526 0 l 325 0 z "},"Υ":{"ha":926,"x_min":-2,"x_max":928,"o":"m 362 0 l 362 418 l -2 994 l 233 994 l 467 601 l 696 994 l 928 994 l 562 417 l 562 0 l 362 0 z "},"Χ":{"ha":926,"x_min":0,"x_max":924,"o":"m 0 0 l 340 519 l 32 994 l 267 994 l 466 675 l 661 994 l 894 994 l 585 511 l 924 0 l 682 0 l 462 344 l 241 0 l 0 0 z "},"Ψ":{"ha":1124,"x_min":58,"x_max":1065,"o":"m 58 994 l 259 994 l 259 762 q 303 524 259 587 q 462 460 347 461 l 462 994 l 662 994 l 662 460 q 783 487 740 461 q 846 575 826 513 q 865 762 865 637 l 865 994 l 1065 994 l 1065 728 q 1031 489 1065 574 q 911 349 998 404 q 662 290 825 294 l 662 0 l 462 0 l 462 290 q 218 346 306 294 q 94 484 130 398 q 58 728 58 570 l 58 994 z "},"Ω":{"ha":1114,"x_min":66,"x_max":1047,"o":"m 66 0 l 66 168 l 259 168 q 82 568 82 353 q 209 883 82 755 q 557 1011 336 1011 q 903 884 776 1011 q 1031 568 1031 756 q 854 168 1031 353 l 1047 168 l 1047 0 l 592 0 l 592 160 q 765 298 707 203 q 824 519 824 394 q 756 743 824 647 q 557 840 689 840 q 357 744 425 840 q 290 519 290 648 q 348 298 290 393 q 522 160 407 203 l 522 0 l 66 0 z "},"Ϊ":{"ha":386,"x_min":-35,"x_max":420,"o":"m 95 0 l 95 994 l 296 994 l 296 0 l 95 0 m -35 1061 l -35 1225 l 128 1225 l 128 1061 l -35 1061 m 256 1061 l 256 1225 l 420 1225 l 420 1061 l 256 1061 z "},"Ϋ":{"ha":926,"x_min":-2,"x_max":928,"o":"m 362 0 l 362 418 l -2 994 l 233 994 l 467 601 l 696 994 l 928 994 l 562 417 l 562 0 l 362 0 m 224 1061 l 224 1225 l 387 1225 l 387 1061 l 224 1061 m 515 1061 l 515 1225 l 680 1225 l 680 1061 l 515 1061 z "},"ά":{"ha":854,"x_min":53,"x_max":808,"o":"m 645 720 l 808 720 q 744 519 770 642 q 718 348 718 397 q 741 183 718 285 q 801 0 765 81 l 641 0 q 629 38 637 14 q 604 119 614 79 q 366 -16 521 -16 q 137 102 220 -16 q 53 378 53 220 q 136 632 53 528 q 368 736 220 736 q 605 596 515 736 q 645 720 617 646 m 248 358 q 291 196 248 258 q 401 134 333 134 q 507 189 466 134 q 549 358 549 244 q 505 528 549 470 q 398 585 460 585 q 291 526 333 585 q 248 358 248 466 m 352 808 l 446 1011 l 659 1011 l 473 808 l 352 808 z "},"έ":{"ha":627,"x_min":53,"x_max":643,"o":"m 448 445 l 448 297 q 290 278 332 297 q 248 212 248 259 q 277 156 248 178 q 347 134 307 134 q 517 201 418 134 l 643 77 q 336 -16 486 -16 q 134 43 215 -16 q 53 197 53 103 q 180 373 53 319 q 80 530 80 428 q 145 676 80 615 q 351 736 210 736 q 613 664 509 736 l 500 543 q 364 581 431 581 q 293 563 317 581 q 269 519 269 545 q 448 445 269 445 m 221 808 l 315 1011 l 528 1011 l 342 808 l 221 808 z "},"ή":{"ha":848,"x_min":96,"x_max":753,"o":"m 753 -274 l 562 -274 l 562 368 q 554 503 562 464 q 518 566 547 542 q 444 591 489 591 q 351 560 391 591 q 299 482 311 530 q 287 326 287 434 l 287 0 l 96 0 l 96 720 l 273 720 l 273 614 q 511 736 368 736 q 652 701 595 736 q 731 609 710 665 q 753 448 753 553 l 753 -274 m 320 808 l 414 1011 l 627 1011 l 441 808 l 320 808 z "},"ί":{"ha":386,"x_min":88,"x_max":395,"o":"m 98 0 l 98 720 l 288 720 l 288 0 l 98 0 m 88 808 l 182 1011 l 395 1011 l 209 808 l 88 808 z "},"ΰ":{"ha":808,"x_min":73,"x_max":735,"o":"m 80 720 l 271 720 l 271 351 q 308 179 271 219 q 404 139 345 139 q 505 185 473 139 q 538 351 538 232 l 538 720 l 728 720 l 728 382 q 696 156 728 237 q 588 30 665 76 q 407 -16 511 -16 q 217 32 294 -16 q 110 160 140 80 q 80 382 80 240 l 80 720 m 353 1011 l 557 1011 l 404 808 l 281 808 l 353 1011 m 572 808 l 572 972 l 735 972 l 735 808 l 572 808 m 73 808 l 73 972 l 237 972 l 237 808 l 73 808 z "},"β":{"ha":848,"x_min":98,"x_max":795,"o":"m 98 -274 l 98 640 q 203 932 98 853 q 435 1011 308 1011 q 652 940 564 1011 q 741 753 741 868 q 693 622 741 679 q 575 548 646 566 q 742 450 689 529 q 795 274 795 371 q 724 69 795 155 q 528 -16 652 -16 q 288 105 385 -16 l 288 -274 l 98 -274 m 374 591 q 510 633 461 593 q 559 734 559 673 q 520 826 559 791 q 426 861 481 861 q 345 832 378 861 q 300 758 311 803 q 288 625 288 712 l 288 420 q 304 272 288 328 q 368 175 320 216 q 473 134 416 134 q 564 175 527 134 q 600 278 600 215 q 545 428 600 370 q 374 486 490 486 l 374 591 z "},"γ":{"ha":772,"x_min":10,"x_max":758,"o":"m 291 0 l 10 720 l 210 720 l 346 353 l 385 230 l 405 292 q 425 353 414 322 l 562 720 l 758 720 l 481 0 l 481 -274 l 291 -274 l 291 0 z "},"ζ":{"ha":640,"x_min":53,"x_max":627,"o":"m 125 994 l 627 994 l 627 867 q 328 575 418 726 q 238 306 238 424 q 252 237 238 265 q 289 195 266 208 q 366 174 311 182 q 609 -40 609 142 q 534 -217 609 -141 q 271 -292 460 -292 l 318 -120 q 347 -123 336 -123 q 400 -103 382 -123 q 418 -61 418 -84 q 394 -17 418 -31 q 312 1 370 -3 q 114 94 176 9 q 53 292 53 178 q 392 836 53 543 l 125 836 l 125 994 z "},"η":{"ha":848,"x_min":96,"x_max":753,"o":"m 753 -274 l 562 -274 l 562 368 q 554 503 562 464 q 518 566 547 542 q 444 591 489 591 q 351 560 391 591 q 299 482 311 530 q 287 326 287 434 l 287 0 l 96 0 l 96 720 l 273 720 l 273 614 q 511 736 368 736 q 652 701 595 736 q 731 609 710 665 q 753 448 753 553 l 753 -274 z "},"θ":{"ha":751,"x_min":53,"x_max":699,"o":"m 376 1011 q 699 497 699 1011 q 376 -16 699 -16 q 139 100 226 -16 q 53 500 53 216 q 376 1011 53 1011 m 502 576 q 465 801 496 746 q 376 856 433 856 q 287 801 319 856 q 250 576 255 745 l 502 576 m 502 418 l 250 418 q 287 194 255 249 q 376 139 318 139 q 465 194 433 139 q 502 418 496 250 z "},"ι":{"ha":386,"x_min":98,"x_max":288,"o":"m 98 0 l 98 720 l 288 720 l 288 0 l 98 0 z "},"κ":{"ha":774,"x_min":96,"x_max":764,"o":"m 96 720 l 287 720 l 287 471 l 509 720 l 742 720 l 452 415 l 764 0 l 541 0 l 330 288 l 287 241 l 287 0 l 96 0 l 96 720 z "},"λ":{"ha":772,"x_min":10,"x_max":758,"o":"m 758 0 l 562 0 l 437 327 q 382 490 414 388 q 329 330 356 403 l 205 0 l 10 0 l 287 720 l 182 994 l 370 994 l 477 720 l 758 0 z "},"μ":{"ha":850,"x_min":98,"x_max":752,"o":"m 98 720 l 288 720 l 288 393 q 298 250 288 301 q 341 166 307 198 q 421 134 374 134 q 506 168 470 134 q 551 248 541 201 q 562 391 562 296 l 562 720 l 752 720 l 752 0 l 576 0 l 576 87 q 431 -16 523 -16 q 288 87 334 -16 l 288 -274 l 98 -274 l 98 720 z "},"ν":{"ha":772,"x_min":7,"x_max":755,"o":"m 298 0 l 7 720 l 208 720 l 343 353 l 382 230 q 402 292 398 277 q 422 353 412 322 l 559 720 l 755 720 l 469 0 l 298 0 z "},"ξ":{"ha":618,"x_min":53,"x_max":618,"o":"m 273 -292 l 316 -121 q 395 -101 367 -120 q 422 -57 422 -82 q 405 -22 422 -34 q 320 7 387 -11 q 164 67 216 35 q 82 157 111 100 q 53 285 53 215 q 267 584 53 469 q 128 670 170 610 q 85 797 85 730 q 158 948 85 885 q 410 1011 230 1011 l 542 1011 l 542 844 q 488 848 517 848 q 326 829 372 848 q 281 764 281 810 q 302 718 281 736 q 359 693 323 699 q 499 688 395 688 l 533 688 l 533 533 q 325 465 402 533 q 248 319 248 397 q 286 222 248 257 q 422 158 324 187 q 618 -47 618 102 q 537 -219 618 -147 q 273 -292 455 -292 z "},"ο":{"ha":848,"x_min":56,"x_max":799,"o":"m 56 370 q 102 554 56 465 q 235 690 149 643 q 427 736 321 736 q 694 630 590 736 q 799 362 799 524 q 693 91 799 199 q 428 -16 588 -16 q 239 28 329 -16 q 102 160 149 73 q 56 370 56 246 m 251 360 q 302 196 251 253 q 427 139 353 139 q 552 196 502 139 q 603 361 603 253 q 552 524 603 467 q 427 581 502 581 q 302 524 353 581 q 251 360 251 467 z "},"ρ":{"ha":859,"x_min":80,"x_max":806,"o":"m 271 44 l 271 -274 l 80 -274 l 80 293 q 112 536 80 446 q 226 681 143 626 q 426 736 309 736 q 703 624 600 736 q 806 353 806 511 q 707 91 806 199 q 463 -16 608 -16 q 271 44 368 -16 m 271 338 q 316 194 271 249 q 439 139 361 139 q 564 200 516 139 q 611 361 611 262 q 567 522 611 463 q 441 581 524 581 q 320 528 370 581 q 271 338 271 475 z "},"ς":{"ha":722,"x_min":53,"x_max":699,"o":"m 699 704 l 659 544 q 517 568 583 568 q 310 499 392 568 q 228 335 228 429 q 271 238 228 273 q 427 174 315 202 q 622 85 562 139 q 682 -65 682 31 q 600 -231 682 -170 q 384 -292 517 -292 q 256 -283 344 -292 l 296 -119 q 391 -133 353 -133 q 462 -115 433 -133 q 491 -64 491 -97 q 466 -15 491 -33 q 370 18 440 3 q 127 135 202 53 q 53 327 53 218 q 110 528 53 431 q 270 681 168 626 q 504 736 373 736 q 699 704 614 736 z "},"υ":{"ha":808,"x_min":80,"x_max":728,"o":"m 80 720 l 271 720 l 271 351 q 308 179 271 219 q 404 139 345 139 q 505 185 473 139 q 538 351 538 232 l 538 720 l 728 720 l 728 382 q 696 156 728 237 q 588 30 665 76 q 407 -16 511 -16 q 217 32 294 -16 q 110 160 140 80 q 80 382 80 240 l 80 720 z "},"χ":{"ha":800,"x_min":12,"x_max":790,"o":"m 28 720 l 238 720 l 398 387 l 572 720 l 771 720 l 513 228 l 790 -274 l 572 -274 l 398 68 l 218 -274 l 12 -274 l 287 228 l 28 720 z "},"ψ":{"ha":1046,"x_min":80,"x_max":966,"o":"m 80 720 l 271 720 l 271 363 q 284 235 271 278 q 334 165 297 191 q 428 135 370 140 l 428 720 l 618 720 l 618 135 q 713 166 677 140 q 762 235 749 192 q 775 363 775 277 l 775 720 l 966 720 l 966 363 q 938 161 966 231 q 833 41 909 92 q 618 -20 757 -9 l 618 -274 l 428 -274 l 428 -20 q 216 39 294 -9 q 109 159 138 88 q 80 363 80 231 l 80 720 z "},"ω":{"ha":1173,"x_min":53,"x_max":1121,"o":"m 155 720 l 337 720 q 248 340 248 535 q 288 182 248 229 q 382 134 328 134 q 447 157 419 134 q 484 214 475 180 q 492 318 492 248 l 492 536 l 682 536 l 682 318 q 690 216 682 251 q 727 157 698 180 q 792 134 755 134 q 887 184 849 134 q 926 348 926 233 q 903 529 926 425 q 837 720 880 633 l 1019 720 q 1089 548 1057 657 q 1121 347 1121 438 q 1037 86 1121 188 q 816 -16 953 -16 q 587 135 652 -16 q 358 -16 522 -16 q 137 86 220 -16 q 53 347 53 189 q 85 548 53 438 q 155 720 117 657 z "},"ϊ":{"ha":386,"x_min":-35,"x_max":421,"o":"m 98 0 l 98 720 l 288 720 l 288 0 l 98 0 m -35 848 l -35 1011 l 129 1011 l 129 848 l -35 848 m 257 848 l 257 1011 l 421 1011 l 421 848 l 257 848 z "},"ϋ":{"ha":808,"x_min":80,"x_max":728,"o":"m 80 720 l 271 720 l 271 351 q 308 179 271 219 q 404 139 345 139 q 505 185 473 139 q 538 351 538 232 l 538 720 l 728 720 l 728 382 q 696 156 728 237 q 588 30 665 76 q 407 -16 511 -16 q 217 32 294 -16 q 110 160 140 80 q 80 382 80 240 l 80 720 m 176 848 l 176 1011 l 340 1011 l 340 848 l 176 848 m 468 848 l 468 1011 l 632 1011 l 632 848 l 468 848 z "},"ό":{"ha":848,"x_min":56,"x_max":799,"o":"m 56 370 q 102 554 56 465 q 235 690 149 643 q 427 736 321 736 q 694 630 590 736 q 799 362 799 524 q 693 91 799 199 q 428 -16 588 -16 q 239 28 329 -16 q 102 160 149 73 q 56 370 56 246 m 251 360 q 302 196 251 253 q 427 139 353 139 q 552 196 502 139 q 603 361 603 253 q 552 524 603 467 q 427 581 502 581 q 302 524 353 581 q 251 360 251 467 m 320 808 l 414 1011 l 627 1011 l 441 808 l 320 808 z "},"ύ":{"ha":808,"x_min":80,"x_max":728,"o":"m 80 720 l 271 720 l 271 351 q 308 179 271 219 q 404 139 345 139 q 505 185 473 139 q 538 351 538 232 l 538 720 l 728 720 l 728 382 q 696 156 728 237 q 588 30 665 76 q 407 -16 511 -16 q 217 32 294 -16 q 110 160 140 80 q 80 382 80 240 l 80 720 m 300 808 l 393 1011 l 607 1011 l 420 808 l 300 808 z "},"ώ":{"ha":1173,"x_min":53,"x_max":1121,"o":"m 155 720 l 337 720 q 248 340 248 535 q 288 182 248 229 q 382 134 328 134 q 447 157 419 134 q 484 214 475 180 q 492 318 492 248 l 492 536 l 682 536 l 682 318 q 690 216 682 251 q 727 157 698 180 q 792 134 755 134 q 887 184 849 134 q 926 348 926 233 q 903 529 926 425 q 837 720 880 633 l 1019 720 q 1089 548 1057 657 q 1121 347 1121 438 q 1037 86 1121 188 q 816 -16 953 -16 q 587 135 652 -16 q 358 -16 522 -16 q 137 86 220 -16 q 53 347 53 189 q 85 548 53 438 q 155 720 117 657 m 438 808 l 532 1011 l 745 1011 l 559 808 l 438 808 z "},"Ё":{"ha":929,"x_min":101,"x_max":857,"o":"m 101 0 l 101 994 l 838 994 l 838 826 l 302 826 l 302 606 l 801 606 l 801 438 l 302 438 l 302 168 l 857 168 l 857 0 l 101 0 m 241 1051 l 241 1215 l 405 1215 l 405 1051 l 241 1051 m 533 1051 l 533 1215 l 697 1215 l 697 1051 l 533 1051 z "},"Ђ":{"ha":1230,"x_min":32,"x_max":1175,"o":"m 32 994 l 822 994 l 822 826 l 527 826 l 527 603 q 807 671 680 671 q 1071 582 966 671 q 1175 330 1175 494 q 1079 83 1175 176 q 843 -9 983 -9 q 710 13 781 -9 l 741 179 q 827 157 790 157 q 938 203 893 157 q 983 316 983 248 q 933 438 983 387 q 789 490 883 490 q 527 409 676 490 l 527 0 l 327 0 l 327 826 l 32 826 l 32 994 z "},"Ѓ":{"ha":787,"x_min":104,"x_max":804,"o":"m 104 994 l 804 994 l 804 825 l 305 825 l 305 0 l 104 0 l 104 994 m 342 1051 l 435 1254 l 649 1254 l 463 1051 l 342 1051 z "},"Є":{"ha":988,"x_min":60,"x_max":929,"o":"m 584 579 l 584 412 l 272 412 q 352 216 289 279 q 503 153 414 153 q 654 208 595 153 q 728 365 714 262 l 929 302 q 789 68 895 154 q 516 -17 684 -17 q 244 64 344 -17 q 102 252 145 146 q 60 492 60 359 q 182 868 60 725 q 520 1011 305 1011 q 790 932 686 1011 q 926 720 895 854 l 728 674 q 648 795 706 752 q 515 838 589 838 q 346 764 408 838 q 272 579 283 690 l 584 579 z "},"Ѕ":{"ha":926,"x_min":50,"x_max":859,"o":"m 50 323 l 245 342 q 317 198 263 244 q 463 152 371 152 q 609 193 559 152 q 658 289 658 234 q 637 349 658 324 q 565 392 616 374 q 404 435 530 404 q 178 534 243 475 q 86 734 86 616 q 129 876 86 810 q 253 977 172 942 q 449 1011 334 1011 q 731 929 636 1011 q 830 710 825 847 l 629 701 q 574 811 616 778 q 447 845 532 845 q 310 809 359 845 q 278 747 278 786 q 308 687 278 712 q 492 621 346 655 q 709 549 639 586 q 819 448 779 512 q 859 290 859 384 q 811 130 859 204 q 677 19 764 55 q 460 -18 590 -18 q 171 70 272 -18 q 50 323 70 157 z "},"І":{"ha":386,"x_min":95,"x_max":296,"o":"m 95 0 l 95 994 l 296 994 l 296 0 l 95 0 z "},"Ї":{"ha":383,"x_min":-37,"x_max":419,"o":"m 95 0 l 95 994 l 296 994 l 296 0 l 95 0 m -37 1051 l -37 1215 l 127 1215 l 127 1051 l -37 1051 m 255 1051 l 255 1215 l 419 1215 l 419 1051 l 255 1051 z "},"Ј":{"ha":772,"x_min":24,"x_max":660,"o":"m 460 994 l 660 994 l 660 365 q 638 175 660 241 q 532 36 609 88 q 330 -17 456 -17 q 104 65 183 -17 q 24 307 24 148 l 213 329 q 238 208 216 243 q 337 155 271 155 q 432 193 404 155 q 460 352 460 231 l 460 994 z "},"Љ":{"ha":1519,"x_min":18,"x_max":1454,"o":"m 825 597 l 1095 597 q 1276 568 1202 597 q 1402 467 1350 540 q 1454 294 1454 394 q 1403 122 1454 193 q 1285 25 1352 51 q 1095 0 1219 0 l 625 0 l 625 826 l 349 826 l 349 354 q 334 140 349 200 q 268 38 320 81 q 125 -5 216 -5 q 72 -3 101 -5 l 18 0 l 18 168 q 92 159 71 159 q 139 180 130 159 q 149 277 149 202 l 149 994 l 825 994 l 825 597 m 825 167 l 1021 167 q 1153 176 1116 167 q 1218 218 1190 185 q 1247 298 1247 250 q 1198 398 1247 366 q 1029 430 1149 430 l 825 430 l 825 167 z "},"Њ":{"ha":1476,"x_min":106,"x_max":1407,"o":"m 778 603 l 1047 603 q 1227 574 1154 603 q 1354 473 1301 546 q 1407 296 1407 399 q 1356 123 1407 194 q 1239 26 1305 52 q 1047 0 1173 0 l 578 0 l 578 435 l 307 435 l 307 0 l 106 0 l 106 994 l 307 994 l 307 603 l 578 603 l 578 994 l 778 994 l 778 603 m 778 167 l 974 167 q 1105 176 1069 167 q 1171 219 1142 185 q 1200 300 1200 252 q 1151 402 1200 370 q 983 435 1102 435 l 778 435 l 778 167 z "},"Ћ":{"ha":1215,"x_min":37,"x_max":1116,"o":"m 37 994 l 827 994 l 827 826 l 532 826 l 532 623 q 778 671 665 671 q 941 640 869 671 q 1055 559 1013 610 q 1106 462 1096 509 q 1116 306 1116 416 l 1116 0 l 915 0 l 915 210 q 906 390 915 342 q 853 469 897 437 q 732 502 810 502 q 532 450 628 502 l 532 0 l 332 0 l 332 826 l 37 826 l 37 994 z "},"Ќ":{"ha":848,"x_min":104,"x_max":836,"o":"m 104 994 l 305 994 l 305 571 q 396 606 372 578 q 469 760 420 633 q 595 961 532 922 q 796 1000 657 1000 q 825 1001 803 1000 l 825 852 l 797 853 q 707 838 735 853 q 661 791 678 823 q 608 663 643 760 q 569 577 590 612 q 493 512 547 543 q 604 435 560 493 q 700 273 648 378 l 836 0 l 600 0 l 481 257 q 469 278 478 262 q 444 325 466 283 q 381 416 406 398 q 305 435 356 435 l 305 0 l 104 0 l 104 994 m 319 1051 l 413 1254 l 627 1254 l 440 1051 l 319 1051 z "},"Ў":{"ha":864,"x_min":0,"x_max":864,"o":"m 0 994 l 224 994 l 456 478 l 654 994 l 864 994 l 528 239 q 416 52 473 116 q 269 -12 359 -12 q 130 -1 180 -12 l 130 149 q 208 146 173 146 q 308 171 277 146 q 366 281 338 197 l 0 994 m 564 1246 l 656 1246 q 592 1101 648 1154 q 445 1048 535 1048 q 298 1101 355 1048 q 233 1246 241 1154 l 326 1246 q 360 1173 331 1198 q 445 1148 389 1148 q 530 1173 500 1148 q 564 1246 559 1198 z "},"Џ":{"ha":998,"x_min":104,"x_max":895,"o":"m 583 0 l 583 -274 l 416 -274 l 416 0 l 104 0 l 104 994 l 304 994 l 304 168 l 694 168 l 694 994 l 895 994 l 895 0 l 583 0 z "},"А":{"ha":1003,"x_min":0,"x_max":998,"o":"m 998 0 l 779 0 l 692 226 l 295 226 l 213 0 l 0 0 l 387 994 l 600 994 l 998 0 m 628 393 l 491 762 l 357 393 l 628 393 z "},"Б":{"ha":998,"x_min":105,"x_max":936,"o":"m 105 994 l 848 994 l 848 827 l 306 827 l 306 597 l 574 597 q 759 570 686 597 q 884 469 832 543 q 936 298 936 396 q 884 125 936 197 q 765 26 831 53 q 574 0 698 0 l 105 0 l 105 994 m 306 167 l 501 167 q 633 176 595 167 q 699 218 671 185 q 727 298 727 250 q 678 398 727 367 q 510 430 629 430 l 306 430 l 306 167 z "},"В":{"ha":1003,"x_min":102,"x_max":935,"o":"m 102 994 l 499 994 q 675 984 617 994 q 779 943 733 975 q 855 860 825 912 q 886 744 886 808 q 848 616 886 674 q 746 528 810 557 q 886 438 837 502 q 935 288 935 374 q 903 156 935 220 q 817 54 871 92 q 682 7 762 16 q 440 0 632 1 l 102 0 l 102 994 m 302 829 l 302 599 l 434 599 q 580 602 551 599 q 661 638 631 608 q 690 715 690 667 q 665 790 690 762 q 589 825 640 819 q 418 829 559 829 l 302 829 m 302 433 l 302 168 l 488 168 q 626 174 597 168 q 699 213 671 182 q 727 298 727 245 q 705 374 727 342 q 643 419 684 405 q 465 433 602 433 l 302 433 z "},"Г":{"ha":787,"x_min":111,"x_max":785,"o":"m 111 994 l 785 994 l 785 827 l 312 827 l 312 0 l 111 0 l 111 994 z "},"Д":{"ha":989,"x_min":-4,"x_max":956,"o":"m 181 994 l 868 994 l 868 167 l 956 167 l 956 -217 l 789 -217 l 789 0 l 163 0 l 163 -217 l -4 -217 l -4 167 l 80 167 q 161 463 142 294 q 181 889 181 631 l 181 994 m 372 827 q 290 167 372 374 l 668 167 l 668 827 l 372 827 z "}}}
